%TF.GenerationSoftware,KiCad,Pcbnew,(6.0.9)*%
%TF.CreationDate,2023-01-29T17:11:57+01:00*%
%TF.ProjectId,witns_mxr,7769746e-735f-46d7-9872-2e6b69636164,rev?*%
%TF.SameCoordinates,Original*%
%TF.FileFunction,Copper,L1,Top*%
%TF.FilePolarity,Positive*%
%FSLAX46Y46*%
G04 Gerber Fmt 4.6, Leading zero omitted, Abs format (unit mm)*
G04 Created by KiCad (PCBNEW (6.0.9)) date 2023-01-29 17:11:57*
%MOMM*%
%LPD*%
G01*
G04 APERTURE LIST*
%TA.AperFunction,ComponentPad*%
%ADD10O,2.720000X3.240000*%
%TD*%
%TA.AperFunction,ComponentPad*%
%ADD11R,1.800000X1.800000*%
%TD*%
%TA.AperFunction,ComponentPad*%
%ADD12C,1.800000*%
%TD*%
%TA.AperFunction,ComponentPad*%
%ADD13R,1.930000X1.830000*%
%TD*%
%TA.AperFunction,ComponentPad*%
%ADD14C,2.130000*%
%TD*%
%TA.AperFunction,ViaPad*%
%ADD15C,0.800000*%
%TD*%
%TA.AperFunction,Conductor*%
%ADD16C,0.500000*%
%TD*%
G04 APERTURE END LIST*
D10*
%TO.P,RV4,*%
%TO.N,*%
X45200000Y-102000000D03*
X54800000Y-102000000D03*
D11*
%TO.P,RV4,1,1*%
%TO.N,GND*%
X47500000Y-109500000D03*
D12*
%TO.P,RV4,2,2*%
%TO.N,Net-(RV4-Pad2)*%
X50000000Y-109500000D03*
%TO.P,RV4,3,3*%
%TO.N,Net-(J104-PadT)*%
X52500000Y-109500000D03*
%TD*%
D10*
%TO.P,RV1,*%
%TO.N,*%
X45200000Y-51000000D03*
X54800000Y-51000000D03*
D11*
%TO.P,RV1,1,1*%
%TO.N,GND*%
X47500000Y-58500000D03*
D12*
%TO.P,RV1,2,2*%
%TO.N,Net-(RV1-Pad2)*%
X50000000Y-58500000D03*
%TO.P,RV1,3,3*%
%TO.N,Net-(J101-PadT)*%
X52500000Y-58500000D03*
%TD*%
D13*
%TO.P,J103,S*%
%TO.N,GND*%
X55000000Y-126520000D03*
D14*
%TO.P,J103,T*%
%TO.N,Net-(J103-PadT)*%
X55000000Y-137920000D03*
%TO.P,J103,TN*%
%TO.N,unconnected-(J103-PadTN)*%
X55000000Y-129620000D03*
%TD*%
D13*
%TO.P,J102,S*%
%TO.N,GND*%
X55000000Y-126520000D03*
D14*
%TO.P,J102,T*%
%TO.N,Net-(J102-PadT)*%
X55000000Y-115120000D03*
%TO.P,J102,TN*%
%TO.N,unconnected-(J102-PadTN)*%
X55000000Y-123420000D03*
%TD*%
D10*
%TO.P,RV2,*%
%TO.N,*%
X54800000Y-68000000D03*
X45200000Y-68000000D03*
D11*
%TO.P,RV2,1,1*%
%TO.N,GND*%
X47500000Y-75500000D03*
D12*
%TO.P,RV2,2,2*%
%TO.N,Net-(RV2-Pad2)*%
X50000000Y-75500000D03*
%TO.P,RV2,3,3*%
%TO.N,Net-(J102-PadT)*%
X52500000Y-75500000D03*
%TD*%
D13*
%TO.P,J104,S*%
%TO.N,GND*%
X45000000Y-126520000D03*
D14*
%TO.P,J104,T*%
%TO.N,Net-(J104-PadT)*%
X45000000Y-137920000D03*
%TO.P,J104,TN*%
%TO.N,unconnected-(J104-PadTN)*%
X45000000Y-129620000D03*
%TD*%
D13*
%TO.P,J101,S*%
%TO.N,GND*%
X45000000Y-126520000D03*
D14*
%TO.P,J101,T*%
%TO.N,Net-(J101-PadT)*%
X45000000Y-115120000D03*
%TO.P,J101,TN*%
%TO.N,unconnected-(J101-PadTN)*%
X45000000Y-123420000D03*
%TD*%
D13*
%TO.P,J105,S*%
%TO.N,GND*%
X55000000Y-152480000D03*
D14*
%TO.P,J105,T*%
%TO.N,Net-(J105-PadT)*%
X55000000Y-141080000D03*
%TO.P,J105,TN*%
%TO.N,unconnected-(J105-PadTN)*%
X55000000Y-149380000D03*
%TD*%
D10*
%TO.P,RV3,*%
%TO.N,*%
X45200000Y-85000000D03*
X54800000Y-85000000D03*
D11*
%TO.P,RV3,1,1*%
%TO.N,GND*%
X47500000Y-92500000D03*
D12*
%TO.P,RV3,2,2*%
%TO.N,Net-(RV3-Pad2)*%
X50000000Y-92500000D03*
%TO.P,RV3,3,3*%
%TO.N,Net-(J103-PadT)*%
X52500000Y-92500000D03*
%TD*%
D15*
%TO.N,GND*%
X46000000Y-147000000D03*
X51000000Y-147500000D03*
X51400000Y-145000000D03*
X41100000Y-133200000D03*
X49000000Y-120900000D03*
X46000000Y-149500000D03*
X46000000Y-144500000D03*
X41400000Y-126200000D03*
X51000000Y-119600000D03*
X48800000Y-115900000D03*
%TD*%
D16*
%TO.N,Net-(J101-PadT)*%
X52500000Y-58500000D02*
X52500000Y-65900000D01*
X42500000Y-75900000D02*
X42500000Y-112580000D01*
X52500000Y-65900000D02*
X42500000Y-75900000D01*
X42500000Y-112580000D02*
X45000000Y-115080000D01*
%TO.N,Net-(J102-PadT)*%
X52500000Y-75500000D02*
X52500000Y-87900000D01*
X57300000Y-92700000D02*
X57300000Y-112780000D01*
X52500000Y-87900000D02*
X57300000Y-92700000D01*
X57300000Y-112780000D02*
X55000000Y-115080000D01*
%TO.N,Net-(J103-PadT)*%
X53000000Y-113100000D02*
X54500000Y-111600000D01*
X54500000Y-111600000D02*
X54500000Y-107000000D01*
X55000000Y-137920000D02*
X53000000Y-135920000D01*
X54500000Y-107000000D02*
X52500000Y-105000000D01*
X52500000Y-105000000D02*
X52500000Y-92500000D01*
X53000000Y-135920000D02*
X53000000Y-113100000D01*
%TO.N,Net-(J104-PadT)*%
X52500000Y-109500000D02*
X47500000Y-114500000D01*
X47500000Y-135420000D02*
X45000000Y-137920000D01*
X47500000Y-114500000D02*
X47500000Y-135420000D01*
%TD*%
%TA.AperFunction,Conductor*%
%TO.N,GND*%
G36*
X58933621Y-45528502D02*
G01*
X58980114Y-45582158D01*
X58991500Y-45634500D01*
X58991500Y-154365500D01*
X58971498Y-154433621D01*
X58917842Y-154480114D01*
X58865500Y-154491500D01*
X41134500Y-154491500D01*
X41066379Y-154471498D01*
X41019886Y-154417842D01*
X41008500Y-154365500D01*
X41008500Y-153439669D01*
X53527001Y-153439669D01*
X53527371Y-153446490D01*
X53532895Y-153497352D01*
X53536521Y-153512604D01*
X53581676Y-153633054D01*
X53590214Y-153648649D01*
X53666715Y-153750724D01*
X53679276Y-153763285D01*
X53781351Y-153839786D01*
X53796946Y-153848324D01*
X53917394Y-153893478D01*
X53932649Y-153897105D01*
X53983514Y-153902631D01*
X53990328Y-153903000D01*
X54727885Y-153903000D01*
X54743124Y-153898525D01*
X54744329Y-153897135D01*
X54746000Y-153889452D01*
X54746000Y-153884884D01*
X55254000Y-153884884D01*
X55258475Y-153900123D01*
X55259865Y-153901328D01*
X55267548Y-153902999D01*
X56009669Y-153902999D01*
X56016490Y-153902629D01*
X56067352Y-153897105D01*
X56082604Y-153893479D01*
X56203054Y-153848324D01*
X56218649Y-153839786D01*
X56320724Y-153763285D01*
X56333285Y-153750724D01*
X56409786Y-153648649D01*
X56418324Y-153633054D01*
X56463478Y-153512606D01*
X56467105Y-153497351D01*
X56472631Y-153446486D01*
X56473000Y-153439672D01*
X56473000Y-152752115D01*
X56468525Y-152736876D01*
X56467135Y-152735671D01*
X56459452Y-152734000D01*
X55272115Y-152734000D01*
X55256876Y-152738475D01*
X55255671Y-152739865D01*
X55254000Y-152747548D01*
X55254000Y-153884884D01*
X54746000Y-153884884D01*
X54746000Y-152752115D01*
X54741525Y-152736876D01*
X54740135Y-152735671D01*
X54732452Y-152734000D01*
X53545116Y-152734000D01*
X53529877Y-152738475D01*
X53528672Y-152739865D01*
X53527001Y-152747548D01*
X53527001Y-153439669D01*
X41008500Y-153439669D01*
X41008500Y-149380000D01*
X53421634Y-149380000D01*
X53441066Y-149626911D01*
X53442220Y-149631718D01*
X53442221Y-149631724D01*
X53478499Y-149782830D01*
X53498885Y-149867742D01*
X53593666Y-150096563D01*
X53723075Y-150307740D01*
X53883927Y-150496073D01*
X54072260Y-150656925D01*
X54283437Y-150786334D01*
X54351656Y-150814591D01*
X54351658Y-150814592D01*
X54406938Y-150859141D01*
X54429359Y-150926504D01*
X54411801Y-150995295D01*
X54359838Y-151043674D01*
X54303439Y-151057001D01*
X53990331Y-151057001D01*
X53983510Y-151057371D01*
X53932648Y-151062895D01*
X53917396Y-151066521D01*
X53796946Y-151111676D01*
X53781351Y-151120214D01*
X53679276Y-151196715D01*
X53666715Y-151209276D01*
X53590214Y-151311351D01*
X53581676Y-151326946D01*
X53536522Y-151447394D01*
X53532895Y-151462649D01*
X53527369Y-151513514D01*
X53527000Y-151520328D01*
X53527000Y-152207885D01*
X53531475Y-152223124D01*
X53532865Y-152224329D01*
X53540548Y-152226000D01*
X56454884Y-152226000D01*
X56470123Y-152221525D01*
X56471328Y-152220135D01*
X56472999Y-152212452D01*
X56472999Y-151520331D01*
X56472629Y-151513510D01*
X56467105Y-151462648D01*
X56463479Y-151447396D01*
X56418324Y-151326946D01*
X56409786Y-151311351D01*
X56333285Y-151209276D01*
X56320724Y-151196715D01*
X56218649Y-151120214D01*
X56203054Y-151111676D01*
X56082606Y-151066522D01*
X56067351Y-151062895D01*
X56016486Y-151057369D01*
X56009672Y-151057000D01*
X55696562Y-151057000D01*
X55628441Y-151036998D01*
X55581948Y-150983342D01*
X55571844Y-150913068D01*
X55601338Y-150848488D01*
X55648343Y-150814592D01*
X55676640Y-150802871D01*
X55711989Y-150788229D01*
X55711993Y-150788227D01*
X55716563Y-150786334D01*
X55927740Y-150656925D01*
X56116073Y-150496073D01*
X56276925Y-150307740D01*
X56406334Y-150096563D01*
X56501115Y-149867742D01*
X56521501Y-149782830D01*
X56557779Y-149631724D01*
X56557780Y-149631718D01*
X56558934Y-149626911D01*
X56578366Y-149380000D01*
X56558934Y-149133089D01*
X56557780Y-149128282D01*
X56557779Y-149128276D01*
X56502270Y-148897070D01*
X56501115Y-148892258D01*
X56406334Y-148663437D01*
X56276925Y-148452260D01*
X56116073Y-148263927D01*
X55927740Y-148103075D01*
X55716563Y-147973666D01*
X55711993Y-147971773D01*
X55711989Y-147971771D01*
X55492315Y-147880779D01*
X55492313Y-147880778D01*
X55487742Y-147878885D01*
X55402830Y-147858499D01*
X55251724Y-147822221D01*
X55251718Y-147822220D01*
X55246911Y-147821066D01*
X55000000Y-147801634D01*
X54753089Y-147821066D01*
X54748282Y-147822220D01*
X54748276Y-147822221D01*
X54597170Y-147858499D01*
X54512258Y-147878885D01*
X54507687Y-147880778D01*
X54507685Y-147880779D01*
X54288011Y-147971771D01*
X54288007Y-147971773D01*
X54283437Y-147973666D01*
X54072260Y-148103075D01*
X53883927Y-148263927D01*
X53723075Y-148452260D01*
X53593666Y-148663437D01*
X53498885Y-148892258D01*
X53497730Y-148897070D01*
X53442221Y-149128276D01*
X53442220Y-149128282D01*
X53441066Y-149133089D01*
X53421634Y-149380000D01*
X41008500Y-149380000D01*
X41008500Y-146000000D01*
X53494859Y-146000000D01*
X53502839Y-146097060D01*
X53514646Y-146240678D01*
X53514647Y-146240684D01*
X53515070Y-146245829D01*
X53575159Y-146485055D01*
X53577217Y-146489788D01*
X53577218Y-146489791D01*
X53592270Y-146524407D01*
X53673514Y-146711256D01*
X53807492Y-146918355D01*
X53810971Y-146922178D01*
X53810973Y-146922181D01*
X53837154Y-146950953D01*
X53973496Y-147100790D01*
X53977547Y-147103989D01*
X53977551Y-147103993D01*
X54163013Y-147250462D01*
X54163017Y-147250464D01*
X54167068Y-147253664D01*
X54171589Y-147256160D01*
X54171591Y-147256161D01*
X54207582Y-147276029D01*
X54383008Y-147372869D01*
X54387877Y-147374593D01*
X54387881Y-147374595D01*
X54610643Y-147453480D01*
X54610647Y-147453481D01*
X54615518Y-147455206D01*
X54620611Y-147456113D01*
X54620614Y-147456114D01*
X54724156Y-147474557D01*
X54858354Y-147498461D01*
X54951217Y-147499596D01*
X55099823Y-147501412D01*
X55099825Y-147501412D01*
X55104993Y-147501475D01*
X55348813Y-147464165D01*
X55583266Y-147387534D01*
X55802054Y-147273640D01*
X55806187Y-147270537D01*
X55806190Y-147270535D01*
X55995168Y-147128647D01*
X55995171Y-147128645D01*
X55999303Y-147125542D01*
X56169714Y-146947216D01*
X56308712Y-146743452D01*
X56412564Y-146519722D01*
X56478481Y-146282035D01*
X56504692Y-146036774D01*
X56498141Y-145923152D01*
X56490791Y-145795694D01*
X56490493Y-145790525D01*
X56489356Y-145785479D01*
X56489355Y-145785473D01*
X56437402Y-145554943D01*
X56436266Y-145549901D01*
X56394045Y-145445921D01*
X56345412Y-145326153D01*
X56345411Y-145326151D01*
X56343468Y-145321366D01*
X56214589Y-145111055D01*
X56053092Y-144924618D01*
X55863313Y-144767061D01*
X55858861Y-144764459D01*
X55858856Y-144764456D01*
X55654808Y-144645220D01*
X55654807Y-144645220D01*
X55650350Y-144642615D01*
X55419921Y-144554623D01*
X55414853Y-144553592D01*
X55414850Y-144553591D01*
X55284608Y-144527093D01*
X55178215Y-144505447D01*
X55173040Y-144505257D01*
X55173038Y-144505257D01*
X54936886Y-144496597D01*
X54936882Y-144496597D01*
X54931722Y-144496408D01*
X54926602Y-144497064D01*
X54926600Y-144497064D01*
X54862646Y-144505257D01*
X54687064Y-144527750D01*
X54682113Y-144529235D01*
X54682110Y-144529236D01*
X54455752Y-144597147D01*
X54450809Y-144598630D01*
X54229303Y-144707144D01*
X54225098Y-144710143D01*
X54225097Y-144710144D01*
X54145302Y-144767061D01*
X54028495Y-144850379D01*
X53853777Y-145024488D01*
X53709842Y-145224795D01*
X53600555Y-145445921D01*
X53599050Y-145450875D01*
X53530355Y-145676974D01*
X53530354Y-145676980D01*
X53528851Y-145681926D01*
X53496656Y-145926474D01*
X53494859Y-146000000D01*
X41008500Y-146000000D01*
X41008500Y-112553349D01*
X41736801Y-112553349D01*
X41737394Y-112560641D01*
X41737394Y-112560644D01*
X41741085Y-112606018D01*
X41741500Y-112616233D01*
X41741500Y-112624293D01*
X41741925Y-112627937D01*
X41744789Y-112652507D01*
X41745222Y-112656882D01*
X41749164Y-112705341D01*
X41751140Y-112729637D01*
X41753396Y-112736601D01*
X41754587Y-112742560D01*
X41755971Y-112748415D01*
X41756818Y-112755681D01*
X41781735Y-112824327D01*
X41783152Y-112828455D01*
X41795352Y-112866113D01*
X41805649Y-112897899D01*
X41809445Y-112904154D01*
X41811951Y-112909628D01*
X41814670Y-112915058D01*
X41817167Y-112921937D01*
X41821180Y-112928057D01*
X41821180Y-112928058D01*
X41857186Y-112982976D01*
X41859523Y-112986680D01*
X41897405Y-113049107D01*
X41901121Y-113053315D01*
X41901122Y-113053316D01*
X41904803Y-113057484D01*
X41904776Y-113057508D01*
X41907429Y-113060500D01*
X41910132Y-113063733D01*
X41914144Y-113069852D01*
X41919456Y-113074884D01*
X41970383Y-113123128D01*
X41972825Y-113125506D01*
X43445250Y-114597931D01*
X43479276Y-114660243D01*
X43478674Y-114716440D01*
X43442221Y-114868276D01*
X43442220Y-114868282D01*
X43441066Y-114873089D01*
X43421634Y-115120000D01*
X43441066Y-115366911D01*
X43442220Y-115371718D01*
X43442221Y-115371724D01*
X43478499Y-115522830D01*
X43498885Y-115607742D01*
X43593666Y-115836563D01*
X43723075Y-116047740D01*
X43883927Y-116236073D01*
X44072260Y-116396925D01*
X44283437Y-116526334D01*
X44288007Y-116528227D01*
X44288011Y-116528229D01*
X44507685Y-116619221D01*
X44512258Y-116621115D01*
X44597170Y-116641501D01*
X44748276Y-116677779D01*
X44748282Y-116677780D01*
X44753089Y-116678934D01*
X45000000Y-116698366D01*
X45246911Y-116678934D01*
X45251718Y-116677780D01*
X45251724Y-116677779D01*
X45402830Y-116641501D01*
X45487742Y-116621115D01*
X45492315Y-116619221D01*
X45711989Y-116528229D01*
X45711993Y-116528227D01*
X45716563Y-116526334D01*
X45927740Y-116396925D01*
X46116073Y-116236073D01*
X46276925Y-116047740D01*
X46406334Y-115836563D01*
X46499091Y-115612628D01*
X46543639Y-115557347D01*
X46611003Y-115534926D01*
X46679794Y-115552484D01*
X46728172Y-115604446D01*
X46741500Y-115660846D01*
X46741500Y-119817694D01*
X46721498Y-119885815D01*
X46667842Y-119932308D01*
X46597568Y-119942412D01*
X46532988Y-119912918D01*
X46494604Y-119853192D01*
X46490778Y-119835473D01*
X46490493Y-119830525D01*
X46489356Y-119825479D01*
X46489355Y-119825473D01*
X46437402Y-119594943D01*
X46436266Y-119589901D01*
X46394045Y-119485921D01*
X46345412Y-119366153D01*
X46345411Y-119366151D01*
X46343468Y-119361366D01*
X46214589Y-119151055D01*
X46053092Y-118964618D01*
X45863313Y-118807061D01*
X45858861Y-118804459D01*
X45858856Y-118804456D01*
X45654808Y-118685220D01*
X45654807Y-118685220D01*
X45650350Y-118682615D01*
X45419921Y-118594623D01*
X45414853Y-118593592D01*
X45414850Y-118593591D01*
X45284608Y-118567093D01*
X45178215Y-118545447D01*
X45173040Y-118545257D01*
X45173038Y-118545257D01*
X44936886Y-118536597D01*
X44936882Y-118536597D01*
X44931722Y-118536408D01*
X44926602Y-118537064D01*
X44926600Y-118537064D01*
X44862646Y-118545257D01*
X44687064Y-118567750D01*
X44682113Y-118569235D01*
X44682110Y-118569236D01*
X44455752Y-118637147D01*
X44450809Y-118638630D01*
X44229303Y-118747144D01*
X44225098Y-118750143D01*
X44225097Y-118750144D01*
X44032698Y-118887381D01*
X44028495Y-118890379D01*
X43853777Y-119064488D01*
X43709842Y-119264795D01*
X43600555Y-119485921D01*
X43599050Y-119490875D01*
X43530355Y-119716974D01*
X43530354Y-119716980D01*
X43528851Y-119721926D01*
X43528176Y-119727055D01*
X43499824Y-119942412D01*
X43496656Y-119966474D01*
X43494859Y-120040000D01*
X43500083Y-120103540D01*
X43514646Y-120280678D01*
X43514647Y-120280684D01*
X43515070Y-120285829D01*
X43575159Y-120525055D01*
X43577217Y-120529788D01*
X43577218Y-120529791D01*
X43592270Y-120564407D01*
X43673514Y-120751256D01*
X43807492Y-120958355D01*
X43810971Y-120962178D01*
X43810973Y-120962181D01*
X43970018Y-121136968D01*
X43973496Y-121140790D01*
X43977547Y-121143989D01*
X43977551Y-121143993D01*
X44163013Y-121290462D01*
X44163017Y-121290464D01*
X44167068Y-121293664D01*
X44171589Y-121296160D01*
X44171591Y-121296161D01*
X44207582Y-121316029D01*
X44383008Y-121412869D01*
X44387877Y-121414593D01*
X44387881Y-121414595D01*
X44610643Y-121493480D01*
X44610647Y-121493481D01*
X44615518Y-121495206D01*
X44620611Y-121496113D01*
X44620614Y-121496114D01*
X44724156Y-121514557D01*
X44858354Y-121538461D01*
X44951217Y-121539596D01*
X45099823Y-121541412D01*
X45099825Y-121541412D01*
X45104993Y-121541475D01*
X45348813Y-121504165D01*
X45583266Y-121427534D01*
X45802054Y-121313640D01*
X45806187Y-121310537D01*
X45806190Y-121310535D01*
X45995168Y-121168647D01*
X45995171Y-121168645D01*
X45999303Y-121165542D01*
X46169714Y-120987216D01*
X46308712Y-120783452D01*
X46412564Y-120559722D01*
X46478481Y-120322035D01*
X46490213Y-120212257D01*
X46517341Y-120146647D01*
X46575634Y-120106119D01*
X46646583Y-120103540D01*
X46707664Y-120139729D01*
X46739484Y-120203196D01*
X46741500Y-120225646D01*
X46741500Y-122879154D01*
X46721498Y-122947275D01*
X46667842Y-122993768D01*
X46597568Y-123003872D01*
X46532988Y-122974378D01*
X46499091Y-122927372D01*
X46408229Y-122708011D01*
X46408227Y-122708007D01*
X46406334Y-122703437D01*
X46276925Y-122492260D01*
X46116073Y-122303927D01*
X45927740Y-122143075D01*
X45716563Y-122013666D01*
X45711993Y-122011773D01*
X45711989Y-122011771D01*
X45492315Y-121920779D01*
X45492313Y-121920778D01*
X45487742Y-121918885D01*
X45402830Y-121898499D01*
X45251724Y-121862221D01*
X45251718Y-121862220D01*
X45246911Y-121861066D01*
X45000000Y-121841634D01*
X44753089Y-121861066D01*
X44748282Y-121862220D01*
X44748276Y-121862221D01*
X44597170Y-121898499D01*
X44512258Y-121918885D01*
X44507687Y-121920778D01*
X44507685Y-121920779D01*
X44288011Y-122011771D01*
X44288007Y-122011773D01*
X44283437Y-122013666D01*
X44072260Y-122143075D01*
X43883927Y-122303927D01*
X43723075Y-122492260D01*
X43593666Y-122703437D01*
X43498885Y-122932258D01*
X43497730Y-122937070D01*
X43442221Y-123168276D01*
X43442220Y-123168282D01*
X43441066Y-123173089D01*
X43421634Y-123420000D01*
X43441066Y-123666911D01*
X43442220Y-123671718D01*
X43442221Y-123671724D01*
X43478499Y-123822830D01*
X43498885Y-123907742D01*
X43593666Y-124136563D01*
X43723075Y-124347740D01*
X43883927Y-124536073D01*
X44072260Y-124696925D01*
X44283437Y-124826334D01*
X44288007Y-124828227D01*
X44288011Y-124828229D01*
X44335094Y-124847731D01*
X44351656Y-124854591D01*
X44351658Y-124854592D01*
X44406939Y-124899140D01*
X44429360Y-124966504D01*
X44411802Y-125035295D01*
X44359840Y-125083673D01*
X44303440Y-125097001D01*
X43990331Y-125097001D01*
X43983510Y-125097371D01*
X43932648Y-125102895D01*
X43917396Y-125106521D01*
X43796946Y-125151676D01*
X43781351Y-125160214D01*
X43679276Y-125236715D01*
X43666715Y-125249276D01*
X43590214Y-125351351D01*
X43581676Y-125366946D01*
X43536522Y-125487394D01*
X43532895Y-125502649D01*
X43527369Y-125553514D01*
X43527000Y-125560328D01*
X43527000Y-126247885D01*
X43531475Y-126263124D01*
X43532865Y-126264329D01*
X43540548Y-126266000D01*
X44727885Y-126266000D01*
X44743124Y-126261525D01*
X44744329Y-126260135D01*
X44746000Y-126252452D01*
X44746000Y-125114682D01*
X44766002Y-125046561D01*
X44819658Y-125000068D01*
X44881885Y-124989070D01*
X45000000Y-124998366D01*
X45118115Y-124989070D01*
X45187594Y-125003666D01*
X45238153Y-125053508D01*
X45254000Y-125114682D01*
X45254000Y-126247885D01*
X45258475Y-126263124D01*
X45259865Y-126264329D01*
X45267548Y-126266000D01*
X46454884Y-126266000D01*
X46470123Y-126261525D01*
X46471328Y-126260135D01*
X46472999Y-126252452D01*
X46472999Y-125560331D01*
X46472629Y-125553510D01*
X46467105Y-125502648D01*
X46463479Y-125487396D01*
X46418324Y-125366946D01*
X46409786Y-125351351D01*
X46333285Y-125249276D01*
X46320724Y-125236715D01*
X46218649Y-125160214D01*
X46203054Y-125151676D01*
X46082606Y-125106522D01*
X46067351Y-125102895D01*
X46016486Y-125097369D01*
X46009672Y-125097000D01*
X45696563Y-125097000D01*
X45628442Y-125076998D01*
X45581949Y-125023342D01*
X45571845Y-124953068D01*
X45601339Y-124888488D01*
X45648345Y-124854591D01*
X45711989Y-124828229D01*
X45711993Y-124828227D01*
X45716563Y-124826334D01*
X45927740Y-124696925D01*
X46116073Y-124536073D01*
X46276925Y-124347740D01*
X46406334Y-124136563D01*
X46499091Y-123912628D01*
X46543639Y-123857347D01*
X46611003Y-123834926D01*
X46679794Y-123852484D01*
X46728172Y-123904446D01*
X46741500Y-123960846D01*
X46741500Y-129079154D01*
X46721498Y-129147275D01*
X46667842Y-129193768D01*
X46597568Y-129203872D01*
X46532988Y-129174378D01*
X46499091Y-129127372D01*
X46408229Y-128908011D01*
X46408227Y-128908007D01*
X46406334Y-128903437D01*
X46276925Y-128692260D01*
X46116073Y-128503927D01*
X45927740Y-128343075D01*
X45716563Y-128213666D01*
X45648342Y-128185408D01*
X45593062Y-128140859D01*
X45570641Y-128073496D01*
X45588199Y-128004705D01*
X45640162Y-127956326D01*
X45696561Y-127942999D01*
X46009669Y-127942999D01*
X46016490Y-127942629D01*
X46067352Y-127937105D01*
X46082604Y-127933479D01*
X46203054Y-127888324D01*
X46218649Y-127879786D01*
X46320724Y-127803285D01*
X46333285Y-127790724D01*
X46409786Y-127688649D01*
X46418324Y-127673054D01*
X46463478Y-127552606D01*
X46467105Y-127537351D01*
X46472631Y-127486486D01*
X46473000Y-127479672D01*
X46473000Y-126792115D01*
X46468525Y-126776876D01*
X46467135Y-126775671D01*
X46459452Y-126774000D01*
X43545116Y-126774000D01*
X43529877Y-126778475D01*
X43528672Y-126779865D01*
X43527001Y-126787548D01*
X43527001Y-127479669D01*
X43527371Y-127486490D01*
X43532895Y-127537352D01*
X43536521Y-127552604D01*
X43581676Y-127673054D01*
X43590214Y-127688649D01*
X43666715Y-127790724D01*
X43679276Y-127803285D01*
X43781351Y-127879786D01*
X43796946Y-127888324D01*
X43917394Y-127933478D01*
X43932649Y-127937105D01*
X43983514Y-127942631D01*
X43990328Y-127943000D01*
X44303438Y-127943000D01*
X44371559Y-127963002D01*
X44418052Y-128016658D01*
X44428156Y-128086932D01*
X44398662Y-128151512D01*
X44351657Y-128185408D01*
X44323360Y-128197129D01*
X44288011Y-128211771D01*
X44288007Y-128211773D01*
X44283437Y-128213666D01*
X44072260Y-128343075D01*
X43883927Y-128503927D01*
X43723075Y-128692260D01*
X43593666Y-128903437D01*
X43498885Y-129132258D01*
X43497730Y-129137070D01*
X43442221Y-129368276D01*
X43442220Y-129368282D01*
X43441066Y-129373089D01*
X43421634Y-129620000D01*
X43441066Y-129866911D01*
X43442220Y-129871718D01*
X43442221Y-129871724D01*
X43478499Y-130022830D01*
X43498885Y-130107742D01*
X43593666Y-130336563D01*
X43723075Y-130547740D01*
X43883927Y-130736073D01*
X44072260Y-130896925D01*
X44283437Y-131026334D01*
X44288007Y-131028227D01*
X44288011Y-131028229D01*
X44507685Y-131119221D01*
X44512258Y-131121115D01*
X44597170Y-131141501D01*
X44748276Y-131177779D01*
X44748282Y-131177780D01*
X44753089Y-131178934D01*
X45000000Y-131198366D01*
X45246911Y-131178934D01*
X45251718Y-131177780D01*
X45251724Y-131177779D01*
X45402830Y-131141501D01*
X45487742Y-131121115D01*
X45492315Y-131119221D01*
X45711989Y-131028229D01*
X45711993Y-131028227D01*
X45716563Y-131026334D01*
X45927740Y-130896925D01*
X46116073Y-130736073D01*
X46276925Y-130547740D01*
X46406334Y-130336563D01*
X46499091Y-130112628D01*
X46543639Y-130057347D01*
X46611003Y-130034926D01*
X46679794Y-130052484D01*
X46728172Y-130104446D01*
X46741500Y-130160846D01*
X46741500Y-132804590D01*
X46721498Y-132872711D01*
X46667842Y-132919204D01*
X46597568Y-132929308D01*
X46532988Y-132899814D01*
X46494604Y-132840088D01*
X46489924Y-132814914D01*
X46485354Y-132759322D01*
X46485353Y-132759316D01*
X46484930Y-132754171D01*
X46424841Y-132514945D01*
X46411934Y-132485261D01*
X46328546Y-132293481D01*
X46328544Y-132293478D01*
X46326486Y-132288744D01*
X46192508Y-132081645D01*
X46166247Y-132052784D01*
X46029982Y-131903032D01*
X46029980Y-131903031D01*
X46026504Y-131899210D01*
X46022453Y-131896011D01*
X46022449Y-131896007D01*
X45836987Y-131749538D01*
X45836983Y-131749536D01*
X45832932Y-131746336D01*
X45796746Y-131726360D01*
X45776113Y-131714970D01*
X45616992Y-131627131D01*
X45612123Y-131625407D01*
X45612119Y-131625405D01*
X45389357Y-131546520D01*
X45389353Y-131546519D01*
X45384482Y-131544794D01*
X45379389Y-131543887D01*
X45379386Y-131543886D01*
X45275844Y-131525443D01*
X45141646Y-131501539D01*
X45048783Y-131500404D01*
X44900177Y-131498588D01*
X44900175Y-131498588D01*
X44895007Y-131498525D01*
X44651187Y-131535835D01*
X44416734Y-131612466D01*
X44197946Y-131726360D01*
X44193813Y-131729463D01*
X44193810Y-131729465D01*
X44004832Y-131871353D01*
X44000697Y-131874458D01*
X43830286Y-132052784D01*
X43691288Y-132256548D01*
X43587436Y-132480278D01*
X43521519Y-132717965D01*
X43495308Y-132963226D01*
X43495605Y-132968378D01*
X43495605Y-132968382D01*
X43507088Y-133167525D01*
X43509507Y-133209475D01*
X43510644Y-133214521D01*
X43510645Y-133214527D01*
X43532825Y-133312945D01*
X43563734Y-133450099D01*
X43565676Y-133454881D01*
X43565677Y-133454885D01*
X43607840Y-133558720D01*
X43656532Y-133678634D01*
X43785411Y-133888945D01*
X43946908Y-134075382D01*
X44136687Y-134232939D01*
X44141139Y-134235541D01*
X44141144Y-134235544D01*
X44345192Y-134354780D01*
X44349650Y-134357385D01*
X44580079Y-134445377D01*
X44585147Y-134446408D01*
X44585150Y-134446409D01*
X44704535Y-134470698D01*
X44821785Y-134494553D01*
X44826960Y-134494743D01*
X44826962Y-134494743D01*
X45063114Y-134503403D01*
X45063118Y-134503403D01*
X45068278Y-134503592D01*
X45073398Y-134502936D01*
X45073400Y-134502936D01*
X45151986Y-134492869D01*
X45312936Y-134472250D01*
X45317887Y-134470765D01*
X45317890Y-134470764D01*
X45544248Y-134402853D01*
X45549191Y-134401370D01*
X45770697Y-134292856D01*
X45851046Y-134235544D01*
X45967302Y-134152619D01*
X45971505Y-134149621D01*
X46002020Y-134119213D01*
X46142562Y-133979160D01*
X46146223Y-133975512D01*
X46290158Y-133775205D01*
X46399445Y-133554079D01*
X46432569Y-133445057D01*
X46469645Y-133323026D01*
X46469646Y-133323020D01*
X46471149Y-133318074D01*
X46490578Y-133170494D01*
X46519300Y-133105567D01*
X46578565Y-133066475D01*
X46649557Y-133065630D01*
X46709736Y-133103300D01*
X46739995Y-133167525D01*
X46741500Y-133186940D01*
X46741500Y-135053629D01*
X46721498Y-135121750D01*
X46704595Y-135142724D01*
X45489813Y-136357506D01*
X45427501Y-136391532D01*
X45371304Y-136390930D01*
X45251724Y-136362221D01*
X45251718Y-136362220D01*
X45246911Y-136361066D01*
X45000000Y-136341634D01*
X44753089Y-136361066D01*
X44748282Y-136362220D01*
X44748276Y-136362221D01*
X44626190Y-136391532D01*
X44512258Y-136418885D01*
X44507687Y-136420778D01*
X44507685Y-136420779D01*
X44288011Y-136511771D01*
X44288007Y-136511773D01*
X44283437Y-136513666D01*
X44072260Y-136643075D01*
X43883927Y-136803927D01*
X43723075Y-136992260D01*
X43593666Y-137203437D01*
X43498885Y-137432258D01*
X43497730Y-137437070D01*
X43442221Y-137668276D01*
X43442220Y-137668282D01*
X43441066Y-137673089D01*
X43421634Y-137920000D01*
X43441066Y-138166911D01*
X43442220Y-138171718D01*
X43442221Y-138171724D01*
X43478499Y-138322830D01*
X43498885Y-138407742D01*
X43593666Y-138636563D01*
X43723075Y-138847740D01*
X43883927Y-139036073D01*
X44072260Y-139196925D01*
X44283437Y-139326334D01*
X44288007Y-139328227D01*
X44288011Y-139328229D01*
X44421667Y-139383591D01*
X44512258Y-139421115D01*
X44597170Y-139441501D01*
X44748276Y-139477779D01*
X44748282Y-139477780D01*
X44753089Y-139478934D01*
X45000000Y-139498366D01*
X45246911Y-139478934D01*
X45251718Y-139477780D01*
X45251724Y-139477779D01*
X45402830Y-139441501D01*
X45487742Y-139421115D01*
X45578333Y-139383591D01*
X45711989Y-139328229D01*
X45711993Y-139328227D01*
X45716563Y-139326334D01*
X45927740Y-139196925D01*
X46116073Y-139036073D01*
X46276925Y-138847740D01*
X46406334Y-138636563D01*
X46501115Y-138407742D01*
X46521501Y-138322830D01*
X46557779Y-138171724D01*
X46557780Y-138171718D01*
X46558934Y-138166911D01*
X46578366Y-137920000D01*
X46558934Y-137673089D01*
X46557780Y-137668282D01*
X46557779Y-137668276D01*
X46529070Y-137548696D01*
X46532617Y-137477788D01*
X46562494Y-137430187D01*
X47988911Y-136003770D01*
X48003323Y-135991384D01*
X48014918Y-135982851D01*
X48014923Y-135982846D01*
X48020818Y-135978508D01*
X48025557Y-135972930D01*
X48025560Y-135972927D01*
X48055035Y-135938232D01*
X48061965Y-135930716D01*
X48067660Y-135925021D01*
X48085281Y-135902749D01*
X48088072Y-135899345D01*
X48130591Y-135849297D01*
X48130592Y-135849295D01*
X48135333Y-135843715D01*
X48138661Y-135837199D01*
X48142028Y-135832150D01*
X48145195Y-135827021D01*
X48149734Y-135821284D01*
X48180655Y-135755125D01*
X48182561Y-135751225D01*
X48215769Y-135686192D01*
X48217508Y-135679084D01*
X48219607Y-135673441D01*
X48221524Y-135667678D01*
X48224622Y-135661050D01*
X48239487Y-135589583D01*
X48240457Y-135585299D01*
X48241653Y-135580412D01*
X48257808Y-135514390D01*
X48258500Y-135503236D01*
X48258536Y-135503238D01*
X48258775Y-135499245D01*
X48259149Y-135495053D01*
X48260640Y-135487885D01*
X48258546Y-135410479D01*
X48258500Y-135407072D01*
X48258500Y-114866371D01*
X48278502Y-114798250D01*
X48295405Y-114777276D01*
X52149040Y-110923641D01*
X52211352Y-110889615D01*
X52263256Y-110889266D01*
X52327585Y-110902354D01*
X52327593Y-110902355D01*
X52332656Y-110903385D01*
X52463324Y-110908176D01*
X52558949Y-110911683D01*
X52558953Y-110911683D01*
X52564113Y-110911872D01*
X52569233Y-110911216D01*
X52569235Y-110911216D01*
X52668668Y-110898478D01*
X52793847Y-110882442D01*
X52798795Y-110880957D01*
X52798802Y-110880956D01*
X53010747Y-110817369D01*
X53015690Y-110815886D01*
X53096236Y-110776427D01*
X53219049Y-110716262D01*
X53219052Y-110716260D01*
X53223684Y-110713991D01*
X53412243Y-110579494D01*
X53526560Y-110465575D01*
X53588932Y-110431659D01*
X53659738Y-110436847D01*
X53716500Y-110479493D01*
X53741194Y-110546056D01*
X53741500Y-110554826D01*
X53741500Y-111233629D01*
X53721498Y-111301750D01*
X53704595Y-111322724D01*
X52511089Y-112516230D01*
X52496677Y-112528616D01*
X52485082Y-112537149D01*
X52485077Y-112537154D01*
X52479182Y-112541492D01*
X52474443Y-112547070D01*
X52474440Y-112547073D01*
X52444965Y-112581768D01*
X52438035Y-112589284D01*
X52432340Y-112594979D01*
X52430060Y-112597861D01*
X52414719Y-112617251D01*
X52411928Y-112620655D01*
X52381151Y-112656882D01*
X52364667Y-112676285D01*
X52361339Y-112682801D01*
X52357972Y-112687850D01*
X52354805Y-112692979D01*
X52350266Y-112698716D01*
X52319345Y-112764875D01*
X52317442Y-112768769D01*
X52284231Y-112833808D01*
X52282492Y-112840916D01*
X52280393Y-112846559D01*
X52278476Y-112852322D01*
X52275378Y-112858950D01*
X52273888Y-112866112D01*
X52273888Y-112866113D01*
X52260514Y-112930412D01*
X52259544Y-112934696D01*
X52242192Y-113005610D01*
X52241500Y-113016764D01*
X52241464Y-113016762D01*
X52241225Y-113020755D01*
X52240851Y-113024947D01*
X52239360Y-113032115D01*
X52239558Y-113039432D01*
X52241454Y-113109521D01*
X52241500Y-113112928D01*
X52241500Y-135852930D01*
X52240067Y-135871880D01*
X52236801Y-135893349D01*
X52237394Y-135900641D01*
X52237394Y-135900644D01*
X52241085Y-135946018D01*
X52241500Y-135956233D01*
X52241500Y-135964293D01*
X52241925Y-135967937D01*
X52244789Y-135992507D01*
X52245222Y-135996882D01*
X52251140Y-136069637D01*
X52253396Y-136076601D01*
X52254587Y-136082560D01*
X52255971Y-136088415D01*
X52256818Y-136095681D01*
X52281735Y-136164327D01*
X52283152Y-136168455D01*
X52305649Y-136237899D01*
X52309445Y-136244154D01*
X52311951Y-136249628D01*
X52314670Y-136255058D01*
X52317167Y-136261937D01*
X52321180Y-136268057D01*
X52321180Y-136268058D01*
X52357186Y-136322976D01*
X52359523Y-136326680D01*
X52397405Y-136389107D01*
X52401121Y-136393315D01*
X52401122Y-136393316D01*
X52404803Y-136397484D01*
X52404776Y-136397508D01*
X52407429Y-136400500D01*
X52410132Y-136403733D01*
X52414144Y-136409852D01*
X52425679Y-136420779D01*
X52470383Y-136463128D01*
X52472825Y-136465506D01*
X53437506Y-137430187D01*
X53471532Y-137492499D01*
X53470930Y-137548696D01*
X53442221Y-137668276D01*
X53442220Y-137668282D01*
X53441066Y-137673089D01*
X53421634Y-137920000D01*
X53441066Y-138166911D01*
X53442220Y-138171718D01*
X53442221Y-138171724D01*
X53478499Y-138322830D01*
X53498885Y-138407742D01*
X53593666Y-138636563D01*
X53723075Y-138847740D01*
X53883927Y-139036073D01*
X54072260Y-139196925D01*
X54283437Y-139326334D01*
X54288007Y-139328227D01*
X54288011Y-139328229D01*
X54421667Y-139383591D01*
X54476948Y-139428140D01*
X54499369Y-139495503D01*
X54481811Y-139564294D01*
X54429849Y-139612672D01*
X54421667Y-139616409D01*
X54288011Y-139671771D01*
X54288007Y-139671773D01*
X54283437Y-139673666D01*
X54072260Y-139803075D01*
X53883927Y-139963927D01*
X53723075Y-140152260D01*
X53593666Y-140363437D01*
X53498885Y-140592258D01*
X53497730Y-140597070D01*
X53442221Y-140828276D01*
X53442220Y-140828282D01*
X53441066Y-140833089D01*
X53421634Y-141080000D01*
X53441066Y-141326911D01*
X53442220Y-141331718D01*
X53442221Y-141331724D01*
X53478499Y-141482830D01*
X53498885Y-141567742D01*
X53593666Y-141796563D01*
X53723075Y-142007740D01*
X53883927Y-142196073D01*
X54072260Y-142356925D01*
X54283437Y-142486334D01*
X54288007Y-142488227D01*
X54288011Y-142488229D01*
X54507685Y-142579221D01*
X54512258Y-142581115D01*
X54597170Y-142601501D01*
X54748276Y-142637779D01*
X54748282Y-142637780D01*
X54753089Y-142638934D01*
X55000000Y-142658366D01*
X55246911Y-142638934D01*
X55251718Y-142637780D01*
X55251724Y-142637779D01*
X55402830Y-142601501D01*
X55487742Y-142581115D01*
X55492315Y-142579221D01*
X55711989Y-142488229D01*
X55711993Y-142488227D01*
X55716563Y-142486334D01*
X55927740Y-142356925D01*
X56116073Y-142196073D01*
X56276925Y-142007740D01*
X56406334Y-141796563D01*
X56501115Y-141567742D01*
X56521501Y-141482830D01*
X56557779Y-141331724D01*
X56557780Y-141331718D01*
X56558934Y-141326911D01*
X56578366Y-141080000D01*
X56558934Y-140833089D01*
X56557780Y-140828282D01*
X56557779Y-140828276D01*
X56502270Y-140597070D01*
X56501115Y-140592258D01*
X56406334Y-140363437D01*
X56276925Y-140152260D01*
X56116073Y-139963927D01*
X55927740Y-139803075D01*
X55716563Y-139673666D01*
X55711993Y-139671773D01*
X55711989Y-139671771D01*
X55578333Y-139616409D01*
X55523052Y-139571860D01*
X55500631Y-139504497D01*
X55518189Y-139435706D01*
X55570151Y-139387328D01*
X55578333Y-139383591D01*
X55711989Y-139328229D01*
X55711993Y-139328227D01*
X55716563Y-139326334D01*
X55927740Y-139196925D01*
X56116073Y-139036073D01*
X56276925Y-138847740D01*
X56406334Y-138636563D01*
X56501115Y-138407742D01*
X56521501Y-138322830D01*
X56557779Y-138171724D01*
X56557780Y-138171718D01*
X56558934Y-138166911D01*
X56578366Y-137920000D01*
X56558934Y-137673089D01*
X56557780Y-137668282D01*
X56557779Y-137668276D01*
X56502270Y-137437070D01*
X56501115Y-137432258D01*
X56406334Y-137203437D01*
X56276925Y-136992260D01*
X56116073Y-136803927D01*
X55927740Y-136643075D01*
X55716563Y-136513666D01*
X55711993Y-136511773D01*
X55711989Y-136511771D01*
X55492315Y-136420779D01*
X55492313Y-136420778D01*
X55487742Y-136418885D01*
X55373810Y-136391532D01*
X55251724Y-136362221D01*
X55251718Y-136362220D01*
X55246911Y-136361066D01*
X55000000Y-136341634D01*
X54753089Y-136361066D01*
X54748282Y-136362220D01*
X54748276Y-136362221D01*
X54628696Y-136390930D01*
X54557788Y-136387383D01*
X54510187Y-136357506D01*
X53795405Y-135642724D01*
X53761379Y-135580412D01*
X53758500Y-135553629D01*
X53758500Y-134187334D01*
X53778502Y-134119213D01*
X53832158Y-134072720D01*
X53902432Y-134062616D01*
X53964984Y-134090389D01*
X54136687Y-134232939D01*
X54141139Y-134235541D01*
X54141144Y-134235544D01*
X54345192Y-134354780D01*
X54349650Y-134357385D01*
X54580079Y-134445377D01*
X54585147Y-134446408D01*
X54585150Y-134446409D01*
X54704535Y-134470698D01*
X54821785Y-134494553D01*
X54826960Y-134494743D01*
X54826962Y-134494743D01*
X55063114Y-134503403D01*
X55063118Y-134503403D01*
X55068278Y-134503592D01*
X55073398Y-134502936D01*
X55073400Y-134502936D01*
X55151986Y-134492869D01*
X55312936Y-134472250D01*
X55317887Y-134470765D01*
X55317890Y-134470764D01*
X55544248Y-134402853D01*
X55549191Y-134401370D01*
X55770697Y-134292856D01*
X55851046Y-134235544D01*
X55967302Y-134152619D01*
X55971505Y-134149621D01*
X56002020Y-134119213D01*
X56142562Y-133979160D01*
X56146223Y-133975512D01*
X56290158Y-133775205D01*
X56399445Y-133554079D01*
X56432569Y-133445057D01*
X56469645Y-133323026D01*
X56469646Y-133323020D01*
X56471149Y-133318074D01*
X56499126Y-133105567D01*
X56502907Y-133076848D01*
X56502907Y-133076842D01*
X56503344Y-133073526D01*
X56505141Y-133000000D01*
X56489924Y-132814914D01*
X56485354Y-132759322D01*
X56485353Y-132759316D01*
X56484930Y-132754171D01*
X56424841Y-132514945D01*
X56411934Y-132485261D01*
X56328546Y-132293481D01*
X56328544Y-132293478D01*
X56326486Y-132288744D01*
X56192508Y-132081645D01*
X56166247Y-132052784D01*
X56029982Y-131903032D01*
X56029980Y-131903031D01*
X56026504Y-131899210D01*
X56022453Y-131896011D01*
X56022449Y-131896007D01*
X55836987Y-131749538D01*
X55836983Y-131749536D01*
X55832932Y-131746336D01*
X55796746Y-131726360D01*
X55776113Y-131714970D01*
X55616992Y-131627131D01*
X55612123Y-131625407D01*
X55612119Y-131625405D01*
X55389357Y-131546520D01*
X55389353Y-131546519D01*
X55384482Y-131544794D01*
X55379389Y-131543887D01*
X55379386Y-131543886D01*
X55275844Y-131525443D01*
X55141646Y-131501539D01*
X55048783Y-131500404D01*
X54900177Y-131498588D01*
X54900175Y-131498588D01*
X54895007Y-131498525D01*
X54651187Y-131535835D01*
X54416734Y-131612466D01*
X54197946Y-131726360D01*
X54193813Y-131729463D01*
X54193810Y-131729465D01*
X54004832Y-131871353D01*
X54000697Y-131874458D01*
X53977044Y-131899210D01*
X53975594Y-131900727D01*
X53914070Y-131936157D01*
X53843158Y-131932700D01*
X53785371Y-131891454D01*
X53759057Y-131825514D01*
X53758500Y-131813676D01*
X53758500Y-130902264D01*
X53778502Y-130834143D01*
X53832158Y-130787650D01*
X53902432Y-130777546D01*
X53966330Y-130806453D01*
X54068494Y-130893710D01*
X54068500Y-130893714D01*
X54072260Y-130896925D01*
X54283437Y-131026334D01*
X54288007Y-131028227D01*
X54288011Y-131028229D01*
X54507685Y-131119221D01*
X54512258Y-131121115D01*
X54597170Y-131141501D01*
X54748276Y-131177779D01*
X54748282Y-131177780D01*
X54753089Y-131178934D01*
X55000000Y-131198366D01*
X55246911Y-131178934D01*
X55251718Y-131177780D01*
X55251724Y-131177779D01*
X55402830Y-131141501D01*
X55487742Y-131121115D01*
X55492315Y-131119221D01*
X55711989Y-131028229D01*
X55711993Y-131028227D01*
X55716563Y-131026334D01*
X55927740Y-130896925D01*
X56116073Y-130736073D01*
X56276925Y-130547740D01*
X56406334Y-130336563D01*
X56501115Y-130107742D01*
X56521501Y-130022830D01*
X56557779Y-129871724D01*
X56557780Y-129871718D01*
X56558934Y-129866911D01*
X56578366Y-129620000D01*
X56558934Y-129373089D01*
X56557780Y-129368282D01*
X56557779Y-129368276D01*
X56502270Y-129137070D01*
X56501115Y-129132258D01*
X56406334Y-128903437D01*
X56276925Y-128692260D01*
X56116073Y-128503927D01*
X55927740Y-128343075D01*
X55716563Y-128213666D01*
X55648342Y-128185408D01*
X55593062Y-128140859D01*
X55570641Y-128073496D01*
X55588199Y-128004705D01*
X55640162Y-127956326D01*
X55696561Y-127942999D01*
X56009669Y-127942999D01*
X56016490Y-127942629D01*
X56067352Y-127937105D01*
X56082604Y-127933479D01*
X56203054Y-127888324D01*
X56218649Y-127879786D01*
X56320724Y-127803285D01*
X56333285Y-127790724D01*
X56409786Y-127688649D01*
X56418324Y-127673054D01*
X56463478Y-127552606D01*
X56467105Y-127537351D01*
X56472631Y-127486486D01*
X56473000Y-127479672D01*
X56473000Y-126792115D01*
X56468525Y-126776876D01*
X56467135Y-126775671D01*
X56459452Y-126774000D01*
X53884500Y-126774000D01*
X53816379Y-126753998D01*
X53769886Y-126700342D01*
X53758500Y-126648000D01*
X53758500Y-126392000D01*
X53778502Y-126323879D01*
X53832158Y-126277386D01*
X53884500Y-126266000D01*
X54727885Y-126266000D01*
X54743124Y-126261525D01*
X54744329Y-126260135D01*
X54746000Y-126252452D01*
X54746000Y-125114682D01*
X54766002Y-125046561D01*
X54819658Y-125000068D01*
X54881885Y-124989070D01*
X55000000Y-124998366D01*
X55118115Y-124989070D01*
X55187594Y-125003666D01*
X55238153Y-125053508D01*
X55254000Y-125114682D01*
X55254000Y-126247885D01*
X55258475Y-126263124D01*
X55259865Y-126264329D01*
X55267548Y-126266000D01*
X56454884Y-126266000D01*
X56470123Y-126261525D01*
X56471328Y-126260135D01*
X56472999Y-126252452D01*
X56472999Y-125560331D01*
X56472629Y-125553510D01*
X56467105Y-125502648D01*
X56463479Y-125487396D01*
X56418324Y-125366946D01*
X56409786Y-125351351D01*
X56333285Y-125249276D01*
X56320724Y-125236715D01*
X56218649Y-125160214D01*
X56203054Y-125151676D01*
X56082606Y-125106522D01*
X56067351Y-125102895D01*
X56016486Y-125097369D01*
X56009672Y-125097000D01*
X55696563Y-125097000D01*
X55628442Y-125076998D01*
X55581949Y-125023342D01*
X55571845Y-124953068D01*
X55601339Y-124888488D01*
X55648345Y-124854591D01*
X55711989Y-124828229D01*
X55711993Y-124828227D01*
X55716563Y-124826334D01*
X55927740Y-124696925D01*
X56116073Y-124536073D01*
X56276925Y-124347740D01*
X56406334Y-124136563D01*
X56501115Y-123907742D01*
X56521501Y-123822830D01*
X56557779Y-123671724D01*
X56557780Y-123671718D01*
X56558934Y-123666911D01*
X56578366Y-123420000D01*
X56558934Y-123173089D01*
X56557780Y-123168282D01*
X56557779Y-123168276D01*
X56502270Y-122937070D01*
X56501115Y-122932258D01*
X56406334Y-122703437D01*
X56276925Y-122492260D01*
X56116073Y-122303927D01*
X55927740Y-122143075D01*
X55716563Y-122013666D01*
X55711993Y-122011773D01*
X55711989Y-122011771D01*
X55492315Y-121920779D01*
X55492313Y-121920778D01*
X55487742Y-121918885D01*
X55402830Y-121898499D01*
X55251724Y-121862221D01*
X55251718Y-121862220D01*
X55246911Y-121861066D01*
X55000000Y-121841634D01*
X54753089Y-121861066D01*
X54748282Y-121862220D01*
X54748276Y-121862221D01*
X54597170Y-121898499D01*
X54512258Y-121918885D01*
X54507687Y-121920778D01*
X54507685Y-121920779D01*
X54288011Y-122011771D01*
X54288007Y-122011773D01*
X54283437Y-122013666D01*
X54072260Y-122143075D01*
X54068506Y-122146282D01*
X54068494Y-122146290D01*
X53966330Y-122233547D01*
X53901541Y-122262578D01*
X53831341Y-122251973D01*
X53778018Y-122205098D01*
X53758500Y-122137736D01*
X53758500Y-121229504D01*
X53778502Y-121161383D01*
X53832158Y-121114890D01*
X53902432Y-121104786D01*
X53970320Y-121137300D01*
X53973496Y-121140790D01*
X53977547Y-121143989D01*
X53977551Y-121143993D01*
X54163013Y-121290462D01*
X54163017Y-121290464D01*
X54167068Y-121293664D01*
X54171589Y-121296160D01*
X54171591Y-121296161D01*
X54207582Y-121316029D01*
X54383008Y-121412869D01*
X54387877Y-121414593D01*
X54387881Y-121414595D01*
X54610643Y-121493480D01*
X54610647Y-121493481D01*
X54615518Y-121495206D01*
X54620611Y-121496113D01*
X54620614Y-121496114D01*
X54724156Y-121514557D01*
X54858354Y-121538461D01*
X54951217Y-121539596D01*
X55099823Y-121541412D01*
X55099825Y-121541412D01*
X55104993Y-121541475D01*
X55348813Y-121504165D01*
X55583266Y-121427534D01*
X55802054Y-121313640D01*
X55806187Y-121310537D01*
X55806190Y-121310535D01*
X55995168Y-121168647D01*
X55995171Y-121168645D01*
X55999303Y-121165542D01*
X56169714Y-120987216D01*
X56308712Y-120783452D01*
X56412564Y-120559722D01*
X56478481Y-120322035D01*
X56504692Y-120076774D01*
X56498141Y-119963152D01*
X56490791Y-119835694D01*
X56490493Y-119830525D01*
X56489356Y-119825479D01*
X56489355Y-119825473D01*
X56437402Y-119594943D01*
X56436266Y-119589901D01*
X56394045Y-119485921D01*
X56345412Y-119366153D01*
X56345411Y-119366151D01*
X56343468Y-119361366D01*
X56214589Y-119151055D01*
X56053092Y-118964618D01*
X55863313Y-118807061D01*
X55858861Y-118804459D01*
X55858856Y-118804456D01*
X55654808Y-118685220D01*
X55654807Y-118685220D01*
X55650350Y-118682615D01*
X55419921Y-118594623D01*
X55414853Y-118593592D01*
X55414850Y-118593591D01*
X55284608Y-118567093D01*
X55178215Y-118545447D01*
X55173040Y-118545257D01*
X55173038Y-118545257D01*
X54936886Y-118536597D01*
X54936882Y-118536597D01*
X54931722Y-118536408D01*
X54926602Y-118537064D01*
X54926600Y-118537064D01*
X54862646Y-118545257D01*
X54687064Y-118567750D01*
X54682113Y-118569235D01*
X54682110Y-118569236D01*
X54455752Y-118637147D01*
X54450809Y-118638630D01*
X54229303Y-118747144D01*
X54225098Y-118750143D01*
X54225097Y-118750144D01*
X54032698Y-118887381D01*
X54028495Y-118890379D01*
X54024838Y-118894024D01*
X54024836Y-118894025D01*
X53973440Y-118945242D01*
X53911068Y-118979158D01*
X53840261Y-118973970D01*
X53783500Y-118931324D01*
X53758806Y-118864760D01*
X53758500Y-118855991D01*
X53758500Y-116402264D01*
X53778502Y-116334143D01*
X53832158Y-116287650D01*
X53902432Y-116277546D01*
X53966330Y-116306453D01*
X54068494Y-116393710D01*
X54068500Y-116393714D01*
X54072260Y-116396925D01*
X54283437Y-116526334D01*
X54288007Y-116528227D01*
X54288011Y-116528229D01*
X54507685Y-116619221D01*
X54512258Y-116621115D01*
X54597170Y-116641501D01*
X54748276Y-116677779D01*
X54748282Y-116677780D01*
X54753089Y-116678934D01*
X55000000Y-116698366D01*
X55246911Y-116678934D01*
X55251718Y-116677780D01*
X55251724Y-116677779D01*
X55402830Y-116641501D01*
X55487742Y-116621115D01*
X55492315Y-116619221D01*
X55711989Y-116528229D01*
X55711993Y-116528227D01*
X55716563Y-116526334D01*
X55927740Y-116396925D01*
X56116073Y-116236073D01*
X56276925Y-116047740D01*
X56406334Y-115836563D01*
X56501115Y-115607742D01*
X56521501Y-115522830D01*
X56557779Y-115371724D01*
X56557780Y-115371718D01*
X56558934Y-115366911D01*
X56578366Y-115120000D01*
X56558934Y-114873089D01*
X56557780Y-114868282D01*
X56557779Y-114868276D01*
X56521326Y-114716440D01*
X56524873Y-114645532D01*
X56554750Y-114597931D01*
X57788911Y-113363770D01*
X57803323Y-113351384D01*
X57814918Y-113342851D01*
X57814923Y-113342846D01*
X57820818Y-113338508D01*
X57825557Y-113332930D01*
X57825560Y-113332927D01*
X57855035Y-113298232D01*
X57861965Y-113290716D01*
X57867660Y-113285021D01*
X57885281Y-113262749D01*
X57888072Y-113259345D01*
X57930591Y-113209297D01*
X57930592Y-113209295D01*
X57935333Y-113203715D01*
X57938661Y-113197199D01*
X57942028Y-113192150D01*
X57945195Y-113187021D01*
X57949734Y-113181284D01*
X57980655Y-113115125D01*
X57982561Y-113111225D01*
X57983431Y-113109521D01*
X58015769Y-113046192D01*
X58017508Y-113039084D01*
X58019607Y-113033441D01*
X58021524Y-113027678D01*
X58024622Y-113021050D01*
X58039487Y-112949583D01*
X58040457Y-112945299D01*
X58044676Y-112928058D01*
X58057808Y-112874390D01*
X58058500Y-112863236D01*
X58058536Y-112863238D01*
X58058775Y-112859245D01*
X58059149Y-112855053D01*
X58060640Y-112847885D01*
X58058546Y-112770479D01*
X58058500Y-112767072D01*
X58058500Y-92767070D01*
X58059933Y-92748120D01*
X58062099Y-92733885D01*
X58062099Y-92733881D01*
X58063199Y-92726651D01*
X58058915Y-92673982D01*
X58058500Y-92663767D01*
X58058500Y-92655707D01*
X58055211Y-92627493D01*
X58054778Y-92623118D01*
X58049454Y-92557661D01*
X58049453Y-92557658D01*
X58048860Y-92550363D01*
X58046604Y-92543399D01*
X58045413Y-92537440D01*
X58044029Y-92531585D01*
X58043182Y-92524319D01*
X58018265Y-92455673D01*
X58016848Y-92451545D01*
X57996607Y-92389064D01*
X57996606Y-92389062D01*
X57994351Y-92382101D01*
X57990555Y-92375846D01*
X57988049Y-92370372D01*
X57985330Y-92364942D01*
X57982833Y-92358063D01*
X57942814Y-92297024D01*
X57940467Y-92293305D01*
X57902595Y-92230893D01*
X57895197Y-92222516D01*
X57895224Y-92222492D01*
X57892571Y-92219500D01*
X57889868Y-92216267D01*
X57885856Y-92210148D01*
X57829617Y-92156872D01*
X57827175Y-92154494D01*
X53295405Y-87622724D01*
X53261379Y-87560412D01*
X53258500Y-87533629D01*
X53258500Y-86665564D01*
X53278502Y-86597443D01*
X53332158Y-86550950D01*
X53402432Y-86540846D01*
X53467012Y-86570340D01*
X53472579Y-86575464D01*
X53587468Y-86687776D01*
X53587473Y-86687780D01*
X53590736Y-86690970D01*
X53809972Y-86850547D01*
X54049947Y-86976804D01*
X54054248Y-86978323D01*
X54054253Y-86978325D01*
X54187087Y-87025233D01*
X54305634Y-87067096D01*
X54403653Y-87086415D01*
X54567206Y-87118652D01*
X54567212Y-87118653D01*
X54571678Y-87119533D01*
X54576232Y-87119760D01*
X54576234Y-87119760D01*
X54837936Y-87132789D01*
X54837942Y-87132789D01*
X54842505Y-87133016D01*
X55112441Y-87107262D01*
X55116870Y-87106178D01*
X55116877Y-87106177D01*
X55276584Y-87067096D01*
X55375832Y-87042810D01*
X55535039Y-86978325D01*
X55622931Y-86942725D01*
X55622932Y-86942725D01*
X55627160Y-86941012D01*
X55861161Y-86803999D01*
X56072932Y-86634641D01*
X56194399Y-86504612D01*
X56254921Y-86439824D01*
X56254923Y-86439821D01*
X56258037Y-86436488D01*
X56412598Y-86213688D01*
X56414627Y-86209610D01*
X56531346Y-85974997D01*
X56531347Y-85974994D01*
X56533379Y-85970910D01*
X56617847Y-85713240D01*
X56664235Y-85446075D01*
X56668500Y-85360400D01*
X56668500Y-84671116D01*
X56666214Y-84639600D01*
X56654205Y-84474100D01*
X56653875Y-84469549D01*
X56652891Y-84465091D01*
X56596400Y-84209223D01*
X56596399Y-84209219D01*
X56595415Y-84204763D01*
X56528859Y-84029090D01*
X56500963Y-83955460D01*
X56500962Y-83955457D01*
X56499345Y-83951190D01*
X56367676Y-83714141D01*
X56203167Y-83498583D01*
X56009264Y-83309030D01*
X55790028Y-83149453D01*
X55550053Y-83023196D01*
X55545752Y-83021677D01*
X55545747Y-83021675D01*
X55367998Y-82958906D01*
X55294366Y-82932904D01*
X55196347Y-82913585D01*
X55032794Y-82881348D01*
X55032788Y-82881347D01*
X55028322Y-82880467D01*
X55023768Y-82880240D01*
X55023766Y-82880240D01*
X54762064Y-82867211D01*
X54762058Y-82867211D01*
X54757495Y-82866984D01*
X54487559Y-82892738D01*
X54483130Y-82893822D01*
X54483123Y-82893823D01*
X54353069Y-82925648D01*
X54224168Y-82957190D01*
X54219933Y-82958905D01*
X54219931Y-82958906D01*
X53977069Y-83057275D01*
X53972840Y-83058988D01*
X53738839Y-83196001D01*
X53527068Y-83365359D01*
X53476573Y-83419413D01*
X53415457Y-83455537D01*
X53344510Y-83452884D01*
X53286259Y-83412296D01*
X53259200Y-83346659D01*
X53258500Y-83333399D01*
X53258500Y-76754052D01*
X53278502Y-76685931D01*
X53311332Y-76651473D01*
X53408039Y-76582493D01*
X53408042Y-76582491D01*
X53412243Y-76579494D01*
X53576303Y-76416005D01*
X53711458Y-76227917D01*
X53726121Y-76198250D01*
X53811784Y-76024922D01*
X53811785Y-76024920D01*
X53814078Y-76020280D01*
X53881408Y-75798671D01*
X53911640Y-75569041D01*
X53911743Y-75564823D01*
X53913245Y-75503365D01*
X53913245Y-75503361D01*
X53913327Y-75500000D01*
X53904479Y-75392383D01*
X53894773Y-75274318D01*
X53894772Y-75274312D01*
X53894349Y-75269167D01*
X53837925Y-75044533D01*
X53745570Y-74832131D01*
X53619764Y-74637665D01*
X53463887Y-74466358D01*
X53459836Y-74463159D01*
X53459832Y-74463155D01*
X53286177Y-74326011D01*
X53286172Y-74326008D01*
X53282123Y-74322810D01*
X53277607Y-74320317D01*
X53277604Y-74320315D01*
X53083879Y-74213373D01*
X53083875Y-74213371D01*
X53079355Y-74210876D01*
X53074486Y-74209152D01*
X53074482Y-74209150D01*
X52865903Y-74135288D01*
X52865899Y-74135287D01*
X52861028Y-74133562D01*
X52855935Y-74132655D01*
X52855932Y-74132654D01*
X52638095Y-74093851D01*
X52638089Y-74093850D01*
X52633006Y-74092945D01*
X52555644Y-74092000D01*
X52406581Y-74090179D01*
X52406579Y-74090179D01*
X52401411Y-74090116D01*
X52172464Y-74125150D01*
X51952314Y-74197106D01*
X51947726Y-74199494D01*
X51947722Y-74199496D01*
X51751461Y-74301663D01*
X51746872Y-74304052D01*
X51742739Y-74307155D01*
X51742736Y-74307157D01*
X51565790Y-74440012D01*
X51561655Y-74443117D01*
X51401639Y-74610564D01*
X51354836Y-74679174D01*
X51299927Y-74724175D01*
X51229402Y-74732346D01*
X51165655Y-74701092D01*
X51144959Y-74676609D01*
X51122577Y-74642013D01*
X51122574Y-74642009D01*
X51119764Y-74637665D01*
X50963887Y-74466358D01*
X50959836Y-74463159D01*
X50959832Y-74463155D01*
X50786177Y-74326011D01*
X50786172Y-74326008D01*
X50782123Y-74322810D01*
X50777607Y-74320317D01*
X50777604Y-74320315D01*
X50583879Y-74213373D01*
X50583875Y-74213371D01*
X50579355Y-74210876D01*
X50574486Y-74209152D01*
X50574482Y-74209150D01*
X50365903Y-74135288D01*
X50365899Y-74135287D01*
X50361028Y-74133562D01*
X50355935Y-74132655D01*
X50355932Y-74132654D01*
X50138095Y-74093851D01*
X50138089Y-74093850D01*
X50133006Y-74092945D01*
X50055644Y-74092000D01*
X49906581Y-74090179D01*
X49906579Y-74090179D01*
X49901411Y-74090116D01*
X49672464Y-74125150D01*
X49452314Y-74197106D01*
X49447726Y-74199494D01*
X49447722Y-74199496D01*
X49251461Y-74301663D01*
X49246872Y-74304052D01*
X49242739Y-74307155D01*
X49242736Y-74307157D01*
X49065790Y-74440012D01*
X49061655Y-74443117D01*
X49061066Y-74442333D01*
X49001346Y-74470484D01*
X48930955Y-74461231D01*
X48876741Y-74415391D01*
X48863925Y-74390224D01*
X48853323Y-74361944D01*
X48844786Y-74346351D01*
X48768285Y-74244276D01*
X48755724Y-74231715D01*
X48653649Y-74155214D01*
X48638054Y-74146676D01*
X48517606Y-74101522D01*
X48502351Y-74097895D01*
X48451486Y-74092369D01*
X48444672Y-74092000D01*
X47772115Y-74092000D01*
X47756876Y-74096475D01*
X47755671Y-74097865D01*
X47754000Y-74105548D01*
X47754000Y-76889884D01*
X47758475Y-76905123D01*
X47759865Y-76906328D01*
X47767548Y-76907999D01*
X48444669Y-76907999D01*
X48451490Y-76907629D01*
X48502352Y-76902105D01*
X48517604Y-76898479D01*
X48638054Y-76853324D01*
X48653649Y-76844786D01*
X48755724Y-76768285D01*
X48768285Y-76755724D01*
X48844786Y-76653649D01*
X48853325Y-76638052D01*
X48865278Y-76606167D01*
X48907919Y-76549402D01*
X48974480Y-76524702D01*
X49043829Y-76539909D01*
X49063741Y-76553448D01*
X49189349Y-76657730D01*
X49389322Y-76774584D01*
X49605694Y-76857209D01*
X49610760Y-76858240D01*
X49610761Y-76858240D01*
X49663846Y-76869040D01*
X49832656Y-76903385D01*
X49963324Y-76908176D01*
X50058949Y-76911683D01*
X50058953Y-76911683D01*
X50064113Y-76911872D01*
X50069233Y-76911216D01*
X50069235Y-76911216D01*
X50168668Y-76898478D01*
X50293847Y-76882442D01*
X50298795Y-76880957D01*
X50298802Y-76880956D01*
X50510747Y-76817369D01*
X50515690Y-76815886D01*
X50596236Y-76776427D01*
X50719049Y-76716262D01*
X50719052Y-76716260D01*
X50723684Y-76713991D01*
X50912243Y-76579494D01*
X51076303Y-76416005D01*
X51145370Y-76319888D01*
X51201365Y-76276240D01*
X51272068Y-76269794D01*
X51335033Y-76302597D01*
X51355128Y-76327584D01*
X51356799Y-76330311D01*
X51356804Y-76330317D01*
X51359501Y-76334719D01*
X51511147Y-76509784D01*
X51688517Y-76657039D01*
X51689349Y-76657730D01*
X51689206Y-76657902D01*
X51732101Y-76711570D01*
X51741500Y-76759321D01*
X51741500Y-87832930D01*
X51740067Y-87851880D01*
X51736801Y-87873349D01*
X51737394Y-87880641D01*
X51737394Y-87880644D01*
X51741085Y-87926018D01*
X51741500Y-87936233D01*
X51741500Y-87944293D01*
X51741925Y-87947937D01*
X51744789Y-87972507D01*
X51745222Y-87976882D01*
X51751140Y-88049637D01*
X51753396Y-88056601D01*
X51754587Y-88062560D01*
X51755971Y-88068415D01*
X51756818Y-88075681D01*
X51781735Y-88144327D01*
X51783152Y-88148455D01*
X51805649Y-88217899D01*
X51809445Y-88224154D01*
X51811951Y-88229628D01*
X51814670Y-88235058D01*
X51817167Y-88241937D01*
X51821180Y-88248057D01*
X51821180Y-88248058D01*
X51857186Y-88302976D01*
X51859523Y-88306680D01*
X51897405Y-88369107D01*
X51901121Y-88373315D01*
X51901122Y-88373316D01*
X51904803Y-88377484D01*
X51904776Y-88377508D01*
X51907429Y-88380500D01*
X51910132Y-88383733D01*
X51914144Y-88389852D01*
X51919456Y-88394884D01*
X51970383Y-88443128D01*
X51972825Y-88445506D01*
X56504595Y-92977276D01*
X56538621Y-93039588D01*
X56541500Y-93066371D01*
X56541500Y-100569119D01*
X56521498Y-100637240D01*
X56467842Y-100683733D01*
X56397568Y-100693837D01*
X56332988Y-100664343D01*
X56315337Y-100645561D01*
X56205939Y-100502215D01*
X56205938Y-100502214D01*
X56203167Y-100498583D01*
X56009264Y-100309030D01*
X55790028Y-100149453D01*
X55550053Y-100023196D01*
X55545752Y-100021677D01*
X55545747Y-100021675D01*
X55367998Y-99958906D01*
X55294366Y-99932904D01*
X55196347Y-99913585D01*
X55032794Y-99881348D01*
X55032788Y-99881347D01*
X55028322Y-99880467D01*
X55023768Y-99880240D01*
X55023766Y-99880240D01*
X54762064Y-99867211D01*
X54762058Y-99867211D01*
X54757495Y-99866984D01*
X54487559Y-99892738D01*
X54483130Y-99893822D01*
X54483123Y-99893823D01*
X54353069Y-99925648D01*
X54224168Y-99957190D01*
X54219933Y-99958905D01*
X54219931Y-99958906D01*
X53977069Y-100057275D01*
X53972840Y-100058988D01*
X53738839Y-100196001D01*
X53527068Y-100365359D01*
X53476573Y-100419413D01*
X53415457Y-100455537D01*
X53344510Y-100452884D01*
X53286259Y-100412296D01*
X53259200Y-100346659D01*
X53258500Y-100333399D01*
X53258500Y-93754052D01*
X53278502Y-93685931D01*
X53311332Y-93651473D01*
X53408039Y-93582493D01*
X53408042Y-93582491D01*
X53412243Y-93579494D01*
X53576303Y-93416005D01*
X53711458Y-93227917D01*
X53804536Y-93039588D01*
X53811784Y-93024922D01*
X53811785Y-93024920D01*
X53814078Y-93020280D01*
X53881408Y-92798671D01*
X53911640Y-92569041D01*
X53911918Y-92557661D01*
X53913245Y-92503365D01*
X53913245Y-92503361D01*
X53913327Y-92500000D01*
X53901658Y-92358063D01*
X53894773Y-92274318D01*
X53894772Y-92274312D01*
X53894349Y-92269167D01*
X53837925Y-92044533D01*
X53745570Y-91832131D01*
X53619764Y-91637665D01*
X53463887Y-91466358D01*
X53459836Y-91463159D01*
X53459832Y-91463155D01*
X53286177Y-91326011D01*
X53286172Y-91326008D01*
X53282123Y-91322810D01*
X53277607Y-91320317D01*
X53277604Y-91320315D01*
X53083879Y-91213373D01*
X53083875Y-91213371D01*
X53079355Y-91210876D01*
X53074486Y-91209152D01*
X53074482Y-91209150D01*
X52865903Y-91135288D01*
X52865899Y-91135287D01*
X52861028Y-91133562D01*
X52855935Y-91132655D01*
X52855932Y-91132654D01*
X52638095Y-91093851D01*
X52638089Y-91093850D01*
X52633006Y-91092945D01*
X52555644Y-91092000D01*
X52406581Y-91090179D01*
X52406579Y-91090179D01*
X52401411Y-91090116D01*
X52172464Y-91125150D01*
X51952314Y-91197106D01*
X51947726Y-91199494D01*
X51947722Y-91199496D01*
X51751461Y-91301663D01*
X51746872Y-91304052D01*
X51742739Y-91307155D01*
X51742736Y-91307157D01*
X51565790Y-91440012D01*
X51561655Y-91443117D01*
X51401639Y-91610564D01*
X51354836Y-91679174D01*
X51299927Y-91724175D01*
X51229402Y-91732346D01*
X51165655Y-91701092D01*
X51144959Y-91676609D01*
X51122577Y-91642013D01*
X51122574Y-91642009D01*
X51119764Y-91637665D01*
X50963887Y-91466358D01*
X50959836Y-91463159D01*
X50959832Y-91463155D01*
X50786177Y-91326011D01*
X50786172Y-91326008D01*
X50782123Y-91322810D01*
X50777607Y-91320317D01*
X50777604Y-91320315D01*
X50583879Y-91213373D01*
X50583875Y-91213371D01*
X50579355Y-91210876D01*
X50574486Y-91209152D01*
X50574482Y-91209150D01*
X50365903Y-91135288D01*
X50365899Y-91135287D01*
X50361028Y-91133562D01*
X50355935Y-91132655D01*
X50355932Y-91132654D01*
X50138095Y-91093851D01*
X50138089Y-91093850D01*
X50133006Y-91092945D01*
X50055644Y-91092000D01*
X49906581Y-91090179D01*
X49906579Y-91090179D01*
X49901411Y-91090116D01*
X49672464Y-91125150D01*
X49452314Y-91197106D01*
X49447726Y-91199494D01*
X49447722Y-91199496D01*
X49251461Y-91301663D01*
X49246872Y-91304052D01*
X49242739Y-91307155D01*
X49242736Y-91307157D01*
X49065790Y-91440012D01*
X49061655Y-91443117D01*
X49061066Y-91442333D01*
X49001346Y-91470484D01*
X48930955Y-91461231D01*
X48876741Y-91415391D01*
X48863925Y-91390224D01*
X48853323Y-91361944D01*
X48844786Y-91346351D01*
X48768285Y-91244276D01*
X48755724Y-91231715D01*
X48653649Y-91155214D01*
X48638054Y-91146676D01*
X48517606Y-91101522D01*
X48502351Y-91097895D01*
X48451486Y-91092369D01*
X48444672Y-91092000D01*
X47772115Y-91092000D01*
X47756876Y-91096475D01*
X47755671Y-91097865D01*
X47754000Y-91105548D01*
X47754000Y-93889884D01*
X47758475Y-93905123D01*
X47759865Y-93906328D01*
X47767548Y-93907999D01*
X48444669Y-93907999D01*
X48451490Y-93907629D01*
X48502352Y-93902105D01*
X48517604Y-93898479D01*
X48638054Y-93853324D01*
X48653649Y-93844786D01*
X48755724Y-93768285D01*
X48768285Y-93755724D01*
X48844786Y-93653649D01*
X48853325Y-93638052D01*
X48865278Y-93606167D01*
X48907919Y-93549402D01*
X48974480Y-93524702D01*
X49043829Y-93539909D01*
X49063741Y-93553448D01*
X49189349Y-93657730D01*
X49389322Y-93774584D01*
X49605694Y-93857209D01*
X49610760Y-93858240D01*
X49610761Y-93858240D01*
X49663846Y-93869040D01*
X49832656Y-93903385D01*
X49963324Y-93908176D01*
X50058949Y-93911683D01*
X50058953Y-93911683D01*
X50064113Y-93911872D01*
X50069233Y-93911216D01*
X50069235Y-93911216D01*
X50168668Y-93898478D01*
X50293847Y-93882442D01*
X50298795Y-93880957D01*
X50298802Y-93880956D01*
X50510747Y-93817369D01*
X50515690Y-93815886D01*
X50596236Y-93776427D01*
X50719049Y-93716262D01*
X50719052Y-93716260D01*
X50723684Y-93713991D01*
X50912243Y-93579494D01*
X51076303Y-93416005D01*
X51145370Y-93319888D01*
X51201365Y-93276240D01*
X51272068Y-93269794D01*
X51335033Y-93302597D01*
X51355128Y-93327584D01*
X51356799Y-93330311D01*
X51356804Y-93330317D01*
X51359501Y-93334719D01*
X51511147Y-93509784D01*
X51688517Y-93657039D01*
X51689349Y-93657730D01*
X51689206Y-93657902D01*
X51732101Y-93711570D01*
X51741500Y-93759321D01*
X51741500Y-104932930D01*
X51740067Y-104951880D01*
X51736801Y-104973349D01*
X51737394Y-104980641D01*
X51737394Y-104980644D01*
X51741085Y-105026018D01*
X51741500Y-105036233D01*
X51741500Y-105044293D01*
X51741925Y-105047937D01*
X51744789Y-105072507D01*
X51745222Y-105076882D01*
X51751140Y-105149637D01*
X51753396Y-105156601D01*
X51754587Y-105162560D01*
X51755971Y-105168415D01*
X51756818Y-105175681D01*
X51781735Y-105244327D01*
X51783152Y-105248455D01*
X51805649Y-105317899D01*
X51809445Y-105324154D01*
X51811951Y-105329628D01*
X51814670Y-105335058D01*
X51817167Y-105341937D01*
X51821180Y-105348057D01*
X51821180Y-105348058D01*
X51857186Y-105402976D01*
X51859523Y-105406680D01*
X51897405Y-105469107D01*
X51901121Y-105473315D01*
X51901122Y-105473316D01*
X51904803Y-105477484D01*
X51904776Y-105477508D01*
X51907429Y-105480500D01*
X51910132Y-105483733D01*
X51914144Y-105489852D01*
X51919456Y-105494884D01*
X51970383Y-105543128D01*
X51972825Y-105545506D01*
X53704595Y-107277276D01*
X53738621Y-107339588D01*
X53741500Y-107366371D01*
X53741500Y-108445761D01*
X53721498Y-108513882D01*
X53667842Y-108560375D01*
X53597568Y-108570479D01*
X53532988Y-108540985D01*
X53522306Y-108530560D01*
X53467365Y-108470180D01*
X53467363Y-108470178D01*
X53463887Y-108466358D01*
X53459836Y-108463159D01*
X53459832Y-108463155D01*
X53286177Y-108326011D01*
X53286172Y-108326008D01*
X53282123Y-108322810D01*
X53277607Y-108320317D01*
X53277604Y-108320315D01*
X53083879Y-108213373D01*
X53083875Y-108213371D01*
X53079355Y-108210876D01*
X53074486Y-108209152D01*
X53074482Y-108209150D01*
X52865903Y-108135288D01*
X52865899Y-108135287D01*
X52861028Y-108133562D01*
X52855935Y-108132655D01*
X52855932Y-108132654D01*
X52638095Y-108093851D01*
X52638089Y-108093850D01*
X52633006Y-108092945D01*
X52555644Y-108092000D01*
X52406581Y-108090179D01*
X52406579Y-108090179D01*
X52401411Y-108090116D01*
X52172464Y-108125150D01*
X51952314Y-108197106D01*
X51947726Y-108199494D01*
X51947722Y-108199496D01*
X51751461Y-108301663D01*
X51746872Y-108304052D01*
X51742739Y-108307155D01*
X51742736Y-108307157D01*
X51565790Y-108440012D01*
X51561655Y-108443117D01*
X51401639Y-108610564D01*
X51354836Y-108679174D01*
X51299927Y-108724175D01*
X51229402Y-108732346D01*
X51165655Y-108701092D01*
X51144959Y-108676609D01*
X51122577Y-108642013D01*
X51122576Y-108642012D01*
X51119764Y-108637665D01*
X50963887Y-108466358D01*
X50959836Y-108463159D01*
X50959832Y-108463155D01*
X50786177Y-108326011D01*
X50786172Y-108326008D01*
X50782123Y-108322810D01*
X50777607Y-108320317D01*
X50777604Y-108320315D01*
X50583879Y-108213373D01*
X50583875Y-108213371D01*
X50579355Y-108210876D01*
X50574486Y-108209152D01*
X50574482Y-108209150D01*
X50365903Y-108135288D01*
X50365899Y-108135287D01*
X50361028Y-108133562D01*
X50355935Y-108132655D01*
X50355932Y-108132654D01*
X50138095Y-108093851D01*
X50138089Y-108093850D01*
X50133006Y-108092945D01*
X50055644Y-108092000D01*
X49906581Y-108090179D01*
X49906579Y-108090179D01*
X49901411Y-108090116D01*
X49672464Y-108125150D01*
X49452314Y-108197106D01*
X49447726Y-108199494D01*
X49447722Y-108199496D01*
X49251461Y-108301663D01*
X49246872Y-108304052D01*
X49242739Y-108307155D01*
X49242736Y-108307157D01*
X49065790Y-108440012D01*
X49061655Y-108443117D01*
X49061066Y-108442333D01*
X49001346Y-108470484D01*
X48930955Y-108461231D01*
X48876741Y-108415391D01*
X48863925Y-108390224D01*
X48853323Y-108361944D01*
X48844786Y-108346351D01*
X48768285Y-108244276D01*
X48755724Y-108231715D01*
X48653649Y-108155214D01*
X48638054Y-108146676D01*
X48517606Y-108101522D01*
X48502351Y-108097895D01*
X48451486Y-108092369D01*
X48444672Y-108092000D01*
X47772115Y-108092000D01*
X47756876Y-108096475D01*
X47755671Y-108097865D01*
X47754000Y-108105548D01*
X47754000Y-110889884D01*
X47758475Y-110905123D01*
X47759865Y-110906328D01*
X47767548Y-110907999D01*
X48444669Y-110907999D01*
X48451490Y-110907629D01*
X48502352Y-110902105D01*
X48517604Y-110898479D01*
X48638054Y-110853324D01*
X48653649Y-110844786D01*
X48755724Y-110768285D01*
X48768285Y-110755724D01*
X48844786Y-110653649D01*
X48853325Y-110638052D01*
X48865278Y-110606167D01*
X48907919Y-110549402D01*
X48974480Y-110524702D01*
X49043829Y-110539909D01*
X49063741Y-110553448D01*
X49189349Y-110657730D01*
X49389322Y-110774584D01*
X49605694Y-110857209D01*
X49610755Y-110858239D01*
X49610770Y-110858243D01*
X49761808Y-110888972D01*
X49824573Y-110922153D01*
X49859435Y-110984001D01*
X49855326Y-111054879D01*
X49825782Y-111101537D01*
X47011089Y-113916230D01*
X46996677Y-113928616D01*
X46985082Y-113937149D01*
X46985077Y-113937154D01*
X46979182Y-113941492D01*
X46974443Y-113947070D01*
X46974440Y-113947073D01*
X46944965Y-113981768D01*
X46938035Y-113989284D01*
X46932340Y-113994979D01*
X46930060Y-113997861D01*
X46914719Y-114017251D01*
X46911928Y-114020655D01*
X46869409Y-114070703D01*
X46864667Y-114076285D01*
X46861339Y-114082801D01*
X46857972Y-114087850D01*
X46854805Y-114092979D01*
X46850266Y-114098716D01*
X46819345Y-114164875D01*
X46817442Y-114168769D01*
X46784231Y-114233808D01*
X46782492Y-114240916D01*
X46780393Y-114246559D01*
X46778476Y-114252322D01*
X46775378Y-114258950D01*
X46773888Y-114266112D01*
X46773888Y-114266113D01*
X46760514Y-114330412D01*
X46759544Y-114334696D01*
X46742192Y-114405610D01*
X46741500Y-114416764D01*
X46741464Y-114416762D01*
X46741225Y-114420755D01*
X46740851Y-114424947D01*
X46739360Y-114432115D01*
X46739558Y-114439432D01*
X46741454Y-114509521D01*
X46741500Y-114512928D01*
X46741500Y-114579154D01*
X46721498Y-114647275D01*
X46667842Y-114693768D01*
X46597568Y-114703872D01*
X46532988Y-114674378D01*
X46499091Y-114627372D01*
X46408229Y-114408011D01*
X46408227Y-114408007D01*
X46406334Y-114403437D01*
X46276925Y-114192260D01*
X46116073Y-114003927D01*
X45927740Y-113843075D01*
X45716563Y-113713666D01*
X45711993Y-113711773D01*
X45711989Y-113711771D01*
X45492315Y-113620779D01*
X45492313Y-113620778D01*
X45487742Y-113618885D01*
X45402830Y-113598499D01*
X45251724Y-113562221D01*
X45251718Y-113562220D01*
X45246911Y-113561066D01*
X45000000Y-113541634D01*
X44753089Y-113561066D01*
X44748280Y-113562220D01*
X44748277Y-113562221D01*
X44660952Y-113583186D01*
X44590044Y-113579639D01*
X44542443Y-113549762D01*
X43295405Y-112302724D01*
X43261379Y-112240412D01*
X43258500Y-112213629D01*
X43258500Y-110444669D01*
X46092001Y-110444669D01*
X46092371Y-110451490D01*
X46097895Y-110502352D01*
X46101521Y-110517604D01*
X46146676Y-110638054D01*
X46155214Y-110653649D01*
X46231715Y-110755724D01*
X46244276Y-110768285D01*
X46346351Y-110844786D01*
X46361946Y-110853324D01*
X46482394Y-110898478D01*
X46497649Y-110902105D01*
X46548514Y-110907631D01*
X46555328Y-110908000D01*
X47227885Y-110908000D01*
X47243124Y-110903525D01*
X47244329Y-110902135D01*
X47246000Y-110894452D01*
X47246000Y-109772115D01*
X47241525Y-109756876D01*
X47240135Y-109755671D01*
X47232452Y-109754000D01*
X46110116Y-109754000D01*
X46094877Y-109758475D01*
X46093672Y-109759865D01*
X46092001Y-109767548D01*
X46092001Y-110444669D01*
X43258500Y-110444669D01*
X43258500Y-109227885D01*
X46092000Y-109227885D01*
X46096475Y-109243124D01*
X46097865Y-109244329D01*
X46105548Y-109246000D01*
X47227885Y-109246000D01*
X47243124Y-109241525D01*
X47244329Y-109240135D01*
X47246000Y-109232452D01*
X47246000Y-108110116D01*
X47241525Y-108094877D01*
X47240135Y-108093672D01*
X47232452Y-108092001D01*
X46555331Y-108092001D01*
X46548510Y-108092371D01*
X46497648Y-108097895D01*
X46482396Y-108101521D01*
X46361946Y-108146676D01*
X46346351Y-108155214D01*
X46244276Y-108231715D01*
X46231715Y-108244276D01*
X46155214Y-108346351D01*
X46146676Y-108361946D01*
X46101522Y-108482394D01*
X46097895Y-108497649D01*
X46092369Y-108548514D01*
X46092000Y-108555328D01*
X46092000Y-109227885D01*
X43258500Y-109227885D01*
X43258500Y-103097053D01*
X43278502Y-103028932D01*
X43332158Y-102982439D01*
X43402432Y-102972335D01*
X43467012Y-103001829D01*
X43498788Y-103044003D01*
X43499037Y-103044540D01*
X43500655Y-103048810D01*
X43632324Y-103285859D01*
X43635096Y-103289491D01*
X43742757Y-103430560D01*
X43796833Y-103501417D01*
X43990736Y-103690970D01*
X44209972Y-103850547D01*
X44449947Y-103976804D01*
X44454248Y-103978323D01*
X44454253Y-103978325D01*
X44587087Y-104025233D01*
X44705634Y-104067096D01*
X44803653Y-104086415D01*
X44967206Y-104118652D01*
X44967212Y-104118653D01*
X44971678Y-104119533D01*
X44976232Y-104119760D01*
X44976234Y-104119760D01*
X45237936Y-104132789D01*
X45237942Y-104132789D01*
X45242505Y-104133016D01*
X45512441Y-104107262D01*
X45516870Y-104106178D01*
X45516877Y-104106177D01*
X45676584Y-104067096D01*
X45775832Y-104042810D01*
X45935039Y-103978325D01*
X46022931Y-103942725D01*
X46022932Y-103942725D01*
X46027160Y-103941012D01*
X46261161Y-103803999D01*
X46472932Y-103634641D01*
X46594399Y-103504612D01*
X46654921Y-103439824D01*
X46654923Y-103439821D01*
X46658037Y-103436488D01*
X46812598Y-103213688D01*
X46814627Y-103209610D01*
X46931346Y-102974997D01*
X46931347Y-102974994D01*
X46933379Y-102970910D01*
X47017847Y-102713240D01*
X47064235Y-102446075D01*
X47068500Y-102360400D01*
X47068500Y-101671116D01*
X47066214Y-101639600D01*
X47054205Y-101474100D01*
X47053875Y-101469549D01*
X47052891Y-101465091D01*
X46996400Y-101209223D01*
X46996399Y-101209219D01*
X46995415Y-101204763D01*
X46928859Y-101029090D01*
X46900963Y-100955460D01*
X46900962Y-100955457D01*
X46899345Y-100951190D01*
X46767676Y-100714141D01*
X46685422Y-100606362D01*
X46605939Y-100502215D01*
X46605938Y-100502214D01*
X46603167Y-100498583D01*
X46409264Y-100309030D01*
X46190028Y-100149453D01*
X45950053Y-100023196D01*
X45945752Y-100021677D01*
X45945747Y-100021675D01*
X45767998Y-99958906D01*
X45694366Y-99932904D01*
X45596347Y-99913585D01*
X45432794Y-99881348D01*
X45432788Y-99881347D01*
X45428322Y-99880467D01*
X45423768Y-99880240D01*
X45423766Y-99880240D01*
X45162064Y-99867211D01*
X45162058Y-99867211D01*
X45157495Y-99866984D01*
X44887559Y-99892738D01*
X44883130Y-99893822D01*
X44883123Y-99893823D01*
X44753069Y-99925648D01*
X44624168Y-99957190D01*
X44619933Y-99958905D01*
X44619931Y-99958906D01*
X44377069Y-100057275D01*
X44372840Y-100058988D01*
X44138839Y-100196001D01*
X43927068Y-100365359D01*
X43923947Y-100368700D01*
X43799224Y-100502215D01*
X43741963Y-100563512D01*
X43587402Y-100786312D01*
X43585374Y-100790388D01*
X43585373Y-100790390D01*
X43497311Y-100967401D01*
X43449060Y-101019482D01*
X43380312Y-101037208D01*
X43312894Y-101014953D01*
X43268210Y-100959782D01*
X43258500Y-100911278D01*
X43258500Y-93444669D01*
X46092001Y-93444669D01*
X46092371Y-93451490D01*
X46097895Y-93502352D01*
X46101521Y-93517604D01*
X46146676Y-93638054D01*
X46155214Y-93653649D01*
X46231715Y-93755724D01*
X46244276Y-93768285D01*
X46346351Y-93844786D01*
X46361946Y-93853324D01*
X46482394Y-93898478D01*
X46497649Y-93902105D01*
X46548514Y-93907631D01*
X46555328Y-93908000D01*
X47227885Y-93908000D01*
X47243124Y-93903525D01*
X47244329Y-93902135D01*
X47246000Y-93894452D01*
X47246000Y-92772115D01*
X47241525Y-92756876D01*
X47240135Y-92755671D01*
X47232452Y-92754000D01*
X46110116Y-92754000D01*
X46094877Y-92758475D01*
X46093672Y-92759865D01*
X46092001Y-92767548D01*
X46092001Y-93444669D01*
X43258500Y-93444669D01*
X43258500Y-92227885D01*
X46092000Y-92227885D01*
X46096475Y-92243124D01*
X46097865Y-92244329D01*
X46105548Y-92246000D01*
X47227885Y-92246000D01*
X47243124Y-92241525D01*
X47244329Y-92240135D01*
X47246000Y-92232452D01*
X47246000Y-91110116D01*
X47241525Y-91094877D01*
X47240135Y-91093672D01*
X47232452Y-91092001D01*
X46555331Y-91092001D01*
X46548510Y-91092371D01*
X46497648Y-91097895D01*
X46482396Y-91101521D01*
X46361946Y-91146676D01*
X46346351Y-91155214D01*
X46244276Y-91231715D01*
X46231715Y-91244276D01*
X46155214Y-91346351D01*
X46146676Y-91361946D01*
X46101522Y-91482394D01*
X46097895Y-91497649D01*
X46092369Y-91548514D01*
X46092000Y-91555328D01*
X46092000Y-92227885D01*
X43258500Y-92227885D01*
X43258500Y-86097053D01*
X43278502Y-86028932D01*
X43332158Y-85982439D01*
X43402432Y-85972335D01*
X43467012Y-86001829D01*
X43498788Y-86044003D01*
X43499037Y-86044540D01*
X43500655Y-86048810D01*
X43632324Y-86285859D01*
X43796833Y-86501417D01*
X43990736Y-86690970D01*
X44209972Y-86850547D01*
X44449947Y-86976804D01*
X44454248Y-86978323D01*
X44454253Y-86978325D01*
X44587087Y-87025233D01*
X44705634Y-87067096D01*
X44803653Y-87086415D01*
X44967206Y-87118652D01*
X44967212Y-87118653D01*
X44971678Y-87119533D01*
X44976232Y-87119760D01*
X44976234Y-87119760D01*
X45237936Y-87132789D01*
X45237942Y-87132789D01*
X45242505Y-87133016D01*
X45512441Y-87107262D01*
X45516870Y-87106178D01*
X45516877Y-87106177D01*
X45676584Y-87067096D01*
X45775832Y-87042810D01*
X45935039Y-86978325D01*
X46022931Y-86942725D01*
X46022932Y-86942725D01*
X46027160Y-86941012D01*
X46261161Y-86803999D01*
X46472932Y-86634641D01*
X46594399Y-86504612D01*
X46654921Y-86439824D01*
X46654923Y-86439821D01*
X46658037Y-86436488D01*
X46812598Y-86213688D01*
X46814627Y-86209610D01*
X46931346Y-85974997D01*
X46931347Y-85974994D01*
X46933379Y-85970910D01*
X47017847Y-85713240D01*
X47064235Y-85446075D01*
X47068500Y-85360400D01*
X47068500Y-84671116D01*
X47066214Y-84639600D01*
X47054205Y-84474100D01*
X47053875Y-84469549D01*
X47052891Y-84465091D01*
X46996400Y-84209223D01*
X46996399Y-84209219D01*
X46995415Y-84204763D01*
X46928859Y-84029090D01*
X46900963Y-83955460D01*
X46900962Y-83955457D01*
X46899345Y-83951190D01*
X46767676Y-83714141D01*
X46603167Y-83498583D01*
X46409264Y-83309030D01*
X46190028Y-83149453D01*
X45950053Y-83023196D01*
X45945752Y-83021677D01*
X45945747Y-83021675D01*
X45767998Y-82958906D01*
X45694366Y-82932904D01*
X45596347Y-82913585D01*
X45432794Y-82881348D01*
X45432788Y-82881347D01*
X45428322Y-82880467D01*
X45423768Y-82880240D01*
X45423766Y-82880240D01*
X45162064Y-82867211D01*
X45162058Y-82867211D01*
X45157495Y-82866984D01*
X44887559Y-82892738D01*
X44883130Y-82893822D01*
X44883123Y-82893823D01*
X44753069Y-82925648D01*
X44624168Y-82957190D01*
X44619933Y-82958905D01*
X44619931Y-82958906D01*
X44377069Y-83057275D01*
X44372840Y-83058988D01*
X44138839Y-83196001D01*
X43927068Y-83365359D01*
X43923947Y-83368700D01*
X43799224Y-83502215D01*
X43741963Y-83563512D01*
X43587402Y-83786312D01*
X43585374Y-83790388D01*
X43585373Y-83790390D01*
X43497311Y-83967401D01*
X43449060Y-84019482D01*
X43380312Y-84037208D01*
X43312894Y-84014953D01*
X43268210Y-83959782D01*
X43258500Y-83911278D01*
X43258500Y-76444669D01*
X46092001Y-76444669D01*
X46092371Y-76451490D01*
X46097895Y-76502352D01*
X46101521Y-76517604D01*
X46146676Y-76638054D01*
X46155214Y-76653649D01*
X46231715Y-76755724D01*
X46244276Y-76768285D01*
X46346351Y-76844786D01*
X46361946Y-76853324D01*
X46482394Y-76898478D01*
X46497649Y-76902105D01*
X46548514Y-76907631D01*
X46555328Y-76908000D01*
X47227885Y-76908000D01*
X47243124Y-76903525D01*
X47244329Y-76902135D01*
X47246000Y-76894452D01*
X47246000Y-75772115D01*
X47241525Y-75756876D01*
X47240135Y-75755671D01*
X47232452Y-75754000D01*
X46110116Y-75754000D01*
X46094877Y-75758475D01*
X46093672Y-75759865D01*
X46092001Y-75767548D01*
X46092001Y-76444669D01*
X43258500Y-76444669D01*
X43258500Y-76266371D01*
X43278502Y-76198250D01*
X43295405Y-76177276D01*
X44244796Y-75227885D01*
X46092000Y-75227885D01*
X46096475Y-75243124D01*
X46097865Y-75244329D01*
X46105548Y-75246000D01*
X47227885Y-75246000D01*
X47243124Y-75241525D01*
X47244329Y-75240135D01*
X47246000Y-75232452D01*
X47246000Y-74110116D01*
X47241525Y-74094877D01*
X47240135Y-74093672D01*
X47232452Y-74092001D01*
X46555331Y-74092001D01*
X46548510Y-74092371D01*
X46497648Y-74097895D01*
X46482396Y-74101521D01*
X46361946Y-74146676D01*
X46346351Y-74155214D01*
X46244276Y-74231715D01*
X46231715Y-74244276D01*
X46155214Y-74346351D01*
X46146676Y-74361946D01*
X46101522Y-74482394D01*
X46097895Y-74497649D01*
X46092369Y-74548514D01*
X46092000Y-74555328D01*
X46092000Y-75227885D01*
X44244796Y-75227885D01*
X51143797Y-68328884D01*
X52931500Y-68328884D01*
X52931665Y-68331152D01*
X52931665Y-68331164D01*
X52939725Y-68442238D01*
X52946125Y-68530451D01*
X52947109Y-68534906D01*
X52947109Y-68534909D01*
X52986482Y-68713240D01*
X53004585Y-68795237D01*
X53100655Y-69048810D01*
X53232324Y-69285859D01*
X53396833Y-69501417D01*
X53590736Y-69690970D01*
X53809972Y-69850547D01*
X54049947Y-69976804D01*
X54054248Y-69978323D01*
X54054253Y-69978325D01*
X54187087Y-70025233D01*
X54305634Y-70067096D01*
X54403653Y-70086415D01*
X54567206Y-70118652D01*
X54567212Y-70118653D01*
X54571678Y-70119533D01*
X54576232Y-70119760D01*
X54576234Y-70119760D01*
X54837936Y-70132789D01*
X54837942Y-70132789D01*
X54842505Y-70133016D01*
X55112441Y-70107262D01*
X55116870Y-70106178D01*
X55116877Y-70106177D01*
X55276584Y-70067096D01*
X55375832Y-70042810D01*
X55535039Y-69978325D01*
X55622931Y-69942725D01*
X55622932Y-69942725D01*
X55627160Y-69941012D01*
X55861161Y-69803999D01*
X56072932Y-69634641D01*
X56194399Y-69504612D01*
X56254921Y-69439824D01*
X56254923Y-69439821D01*
X56258037Y-69436488D01*
X56412598Y-69213688D01*
X56494624Y-69048810D01*
X56531346Y-68974997D01*
X56531347Y-68974994D01*
X56533379Y-68970910D01*
X56617847Y-68713240D01*
X56664235Y-68446075D01*
X56668500Y-68360400D01*
X56668500Y-67671116D01*
X56666328Y-67641170D01*
X56654205Y-67474100D01*
X56653875Y-67469549D01*
X56652891Y-67465091D01*
X56596400Y-67209223D01*
X56596399Y-67209219D01*
X56595415Y-67204763D01*
X56499345Y-66951190D01*
X56367676Y-66714141D01*
X56203167Y-66498583D01*
X56181116Y-66477026D01*
X56082897Y-66381011D01*
X56009264Y-66309030D01*
X55905019Y-66233152D01*
X55793721Y-66152141D01*
X55790028Y-66149453D01*
X55550053Y-66023196D01*
X55545752Y-66021677D01*
X55545747Y-66021675D01*
X55393424Y-65967885D01*
X55294366Y-65932904D01*
X55196347Y-65913585D01*
X55032794Y-65881348D01*
X55032788Y-65881347D01*
X55028322Y-65880467D01*
X55023768Y-65880240D01*
X55023766Y-65880240D01*
X54762064Y-65867211D01*
X54762058Y-65867211D01*
X54757495Y-65866984D01*
X54487559Y-65892738D01*
X54483130Y-65893822D01*
X54483123Y-65893823D01*
X54353069Y-65925648D01*
X54224168Y-65957190D01*
X54219933Y-65958905D01*
X54219931Y-65958906D01*
X53977069Y-66057275D01*
X53972840Y-66058988D01*
X53738839Y-66196001D01*
X53527068Y-66365359D01*
X53523947Y-66368700D01*
X53399224Y-66502215D01*
X53341963Y-66563512D01*
X53187402Y-66786312D01*
X53185374Y-66790388D01*
X53185373Y-66790390D01*
X53103252Y-66955460D01*
X53066621Y-67029090D01*
X52982153Y-67286760D01*
X52935765Y-67553925D01*
X52931500Y-67639600D01*
X52931500Y-68328884D01*
X51143797Y-68328884D01*
X52988911Y-66483770D01*
X53003323Y-66471384D01*
X53014918Y-66462851D01*
X53014923Y-66462846D01*
X53020818Y-66458508D01*
X53025557Y-66452930D01*
X53025560Y-66452927D01*
X53055035Y-66418232D01*
X53061965Y-66410716D01*
X53067661Y-66405020D01*
X53069924Y-66402159D01*
X53069929Y-66402154D01*
X53085285Y-66382744D01*
X53088074Y-66379342D01*
X53130596Y-66329291D01*
X53130597Y-66329290D01*
X53135333Y-66323715D01*
X53138661Y-66317198D01*
X53142027Y-66312150D01*
X53145190Y-66307028D01*
X53149735Y-66301284D01*
X53180664Y-66235105D01*
X53182563Y-66231221D01*
X53215769Y-66166192D01*
X53217510Y-66159077D01*
X53219613Y-66153422D01*
X53221522Y-66147683D01*
X53224622Y-66141050D01*
X53239491Y-66069565D01*
X53240461Y-66065282D01*
X53242001Y-66058988D01*
X53257808Y-65994390D01*
X53258500Y-65983236D01*
X53258535Y-65983238D01*
X53258775Y-65979266D01*
X53259152Y-65975045D01*
X53260641Y-65967885D01*
X53258546Y-65890458D01*
X53258500Y-65887050D01*
X53258500Y-59754052D01*
X53278502Y-59685931D01*
X53311332Y-59651473D01*
X53408039Y-59582493D01*
X53408042Y-59582491D01*
X53412243Y-59579494D01*
X53576303Y-59416005D01*
X53711458Y-59227917D01*
X53814078Y-59020280D01*
X53881408Y-58798671D01*
X53911640Y-58569041D01*
X53913327Y-58500000D01*
X53907032Y-58423434D01*
X53894773Y-58274318D01*
X53894772Y-58274312D01*
X53894349Y-58269167D01*
X53837925Y-58044533D01*
X53745570Y-57832131D01*
X53619764Y-57637665D01*
X53463887Y-57466358D01*
X53459836Y-57463159D01*
X53459832Y-57463155D01*
X53286177Y-57326011D01*
X53286172Y-57326008D01*
X53282123Y-57322810D01*
X53277607Y-57320317D01*
X53277604Y-57320315D01*
X53083879Y-57213373D01*
X53083875Y-57213371D01*
X53079355Y-57210876D01*
X53074486Y-57209152D01*
X53074482Y-57209150D01*
X52865903Y-57135288D01*
X52865899Y-57135287D01*
X52861028Y-57133562D01*
X52855935Y-57132655D01*
X52855932Y-57132654D01*
X52638095Y-57093851D01*
X52638089Y-57093850D01*
X52633006Y-57092945D01*
X52555644Y-57092000D01*
X52406581Y-57090179D01*
X52406579Y-57090179D01*
X52401411Y-57090116D01*
X52172464Y-57125150D01*
X51952314Y-57197106D01*
X51947726Y-57199494D01*
X51947722Y-57199496D01*
X51751461Y-57301663D01*
X51746872Y-57304052D01*
X51742739Y-57307155D01*
X51742736Y-57307157D01*
X51565790Y-57440012D01*
X51561655Y-57443117D01*
X51401639Y-57610564D01*
X51354836Y-57679174D01*
X51299927Y-57724175D01*
X51229402Y-57732346D01*
X51165655Y-57701092D01*
X51144959Y-57676609D01*
X51122577Y-57642013D01*
X51122574Y-57642009D01*
X51119764Y-57637665D01*
X50963887Y-57466358D01*
X50959836Y-57463159D01*
X50959832Y-57463155D01*
X50786177Y-57326011D01*
X50786172Y-57326008D01*
X50782123Y-57322810D01*
X50777607Y-57320317D01*
X50777604Y-57320315D01*
X50583879Y-57213373D01*
X50583875Y-57213371D01*
X50579355Y-57210876D01*
X50574486Y-57209152D01*
X50574482Y-57209150D01*
X50365903Y-57135288D01*
X50365899Y-57135287D01*
X50361028Y-57133562D01*
X50355935Y-57132655D01*
X50355932Y-57132654D01*
X50138095Y-57093851D01*
X50138089Y-57093850D01*
X50133006Y-57092945D01*
X50055644Y-57092000D01*
X49906581Y-57090179D01*
X49906579Y-57090179D01*
X49901411Y-57090116D01*
X49672464Y-57125150D01*
X49452314Y-57197106D01*
X49447726Y-57199494D01*
X49447722Y-57199496D01*
X49251461Y-57301663D01*
X49246872Y-57304052D01*
X49242739Y-57307155D01*
X49242736Y-57307157D01*
X49065790Y-57440012D01*
X49061655Y-57443117D01*
X49061066Y-57442333D01*
X49001346Y-57470484D01*
X48930955Y-57461231D01*
X48876741Y-57415391D01*
X48863925Y-57390224D01*
X48853323Y-57361944D01*
X48844786Y-57346351D01*
X48768285Y-57244276D01*
X48755724Y-57231715D01*
X48653649Y-57155214D01*
X48638054Y-57146676D01*
X48517606Y-57101522D01*
X48502351Y-57097895D01*
X48451486Y-57092369D01*
X48444672Y-57092000D01*
X47772115Y-57092000D01*
X47756876Y-57096475D01*
X47755671Y-57097865D01*
X47754000Y-57105548D01*
X47754000Y-59889884D01*
X47758475Y-59905123D01*
X47759865Y-59906328D01*
X47767548Y-59907999D01*
X48444669Y-59907999D01*
X48451490Y-59907629D01*
X48502352Y-59902105D01*
X48517604Y-59898479D01*
X48638054Y-59853324D01*
X48653649Y-59844786D01*
X48755724Y-59768285D01*
X48768285Y-59755724D01*
X48844786Y-59653649D01*
X48853325Y-59638052D01*
X48865278Y-59606167D01*
X48907919Y-59549402D01*
X48974480Y-59524702D01*
X49043829Y-59539909D01*
X49063741Y-59553448D01*
X49189349Y-59657730D01*
X49389322Y-59774584D01*
X49605694Y-59857209D01*
X49610760Y-59858240D01*
X49610761Y-59858240D01*
X49663846Y-59869040D01*
X49832656Y-59903385D01*
X49963324Y-59908176D01*
X50058949Y-59911683D01*
X50058953Y-59911683D01*
X50064113Y-59911872D01*
X50069233Y-59911216D01*
X50069235Y-59911216D01*
X50168668Y-59898478D01*
X50293847Y-59882442D01*
X50298795Y-59880957D01*
X50298802Y-59880956D01*
X50510747Y-59817369D01*
X50515690Y-59815886D01*
X50596236Y-59776427D01*
X50719049Y-59716262D01*
X50719052Y-59716260D01*
X50723684Y-59713991D01*
X50912243Y-59579494D01*
X51076303Y-59416005D01*
X51145370Y-59319888D01*
X51201365Y-59276240D01*
X51272068Y-59269794D01*
X51335033Y-59302597D01*
X51355128Y-59327584D01*
X51356799Y-59330311D01*
X51356804Y-59330317D01*
X51359501Y-59334719D01*
X51511147Y-59509784D01*
X51688517Y-59657039D01*
X51689349Y-59657730D01*
X51689206Y-59657902D01*
X51732101Y-59711570D01*
X51741500Y-59759321D01*
X51741500Y-65533630D01*
X51721498Y-65601751D01*
X51704595Y-65622725D01*
X42011089Y-75316230D01*
X41996677Y-75328616D01*
X41985082Y-75337149D01*
X41985077Y-75337154D01*
X41979182Y-75341492D01*
X41974443Y-75347070D01*
X41974440Y-75347073D01*
X41944965Y-75381768D01*
X41938035Y-75389284D01*
X41932340Y-75394979D01*
X41930060Y-75397861D01*
X41914719Y-75417251D01*
X41911928Y-75420655D01*
X41873856Y-75465469D01*
X41864667Y-75476285D01*
X41861339Y-75482801D01*
X41857972Y-75487850D01*
X41854805Y-75492979D01*
X41850266Y-75498716D01*
X41819345Y-75564875D01*
X41817442Y-75568769D01*
X41784231Y-75633808D01*
X41782492Y-75640916D01*
X41780393Y-75646559D01*
X41778476Y-75652322D01*
X41775378Y-75658950D01*
X41773888Y-75666112D01*
X41773888Y-75666113D01*
X41760514Y-75730412D01*
X41759544Y-75734696D01*
X41742192Y-75805610D01*
X41741500Y-75816764D01*
X41741464Y-75816762D01*
X41741225Y-75820755D01*
X41740851Y-75824947D01*
X41739360Y-75832115D01*
X41739558Y-75839432D01*
X41741454Y-75909521D01*
X41741500Y-75912928D01*
X41741500Y-112512930D01*
X41740067Y-112531880D01*
X41738605Y-112541492D01*
X41736801Y-112553349D01*
X41008500Y-112553349D01*
X41008500Y-68328884D01*
X43331500Y-68328884D01*
X43331665Y-68331152D01*
X43331665Y-68331164D01*
X43339725Y-68442238D01*
X43346125Y-68530451D01*
X43347109Y-68534906D01*
X43347109Y-68534909D01*
X43386482Y-68713240D01*
X43404585Y-68795237D01*
X43500655Y-69048810D01*
X43632324Y-69285859D01*
X43796833Y-69501417D01*
X43990736Y-69690970D01*
X44209972Y-69850547D01*
X44449947Y-69976804D01*
X44454248Y-69978323D01*
X44454253Y-69978325D01*
X44587087Y-70025233D01*
X44705634Y-70067096D01*
X44803653Y-70086415D01*
X44967206Y-70118652D01*
X44967212Y-70118653D01*
X44971678Y-70119533D01*
X44976232Y-70119760D01*
X44976234Y-70119760D01*
X45237936Y-70132789D01*
X45237942Y-70132789D01*
X45242505Y-70133016D01*
X45512441Y-70107262D01*
X45516870Y-70106178D01*
X45516877Y-70106177D01*
X45676584Y-70067096D01*
X45775832Y-70042810D01*
X45935039Y-69978325D01*
X46022931Y-69942725D01*
X46022932Y-69942725D01*
X46027160Y-69941012D01*
X46261161Y-69803999D01*
X46472932Y-69634641D01*
X46594399Y-69504612D01*
X46654921Y-69439824D01*
X46654923Y-69439821D01*
X46658037Y-69436488D01*
X46812598Y-69213688D01*
X46894624Y-69048810D01*
X46931346Y-68974997D01*
X46931347Y-68974994D01*
X46933379Y-68970910D01*
X47017847Y-68713240D01*
X47064235Y-68446075D01*
X47068500Y-68360400D01*
X47068500Y-67671116D01*
X47066328Y-67641170D01*
X47054205Y-67474100D01*
X47053875Y-67469549D01*
X47052891Y-67465091D01*
X46996400Y-67209223D01*
X46996399Y-67209219D01*
X46995415Y-67204763D01*
X46899345Y-66951190D01*
X46767676Y-66714141D01*
X46603167Y-66498583D01*
X46581116Y-66477026D01*
X46482897Y-66381011D01*
X46409264Y-66309030D01*
X46305019Y-66233152D01*
X46193721Y-66152141D01*
X46190028Y-66149453D01*
X45950053Y-66023196D01*
X45945752Y-66021677D01*
X45945747Y-66021675D01*
X45793424Y-65967885D01*
X45694366Y-65932904D01*
X45596347Y-65913585D01*
X45432794Y-65881348D01*
X45432788Y-65881347D01*
X45428322Y-65880467D01*
X45423768Y-65880240D01*
X45423766Y-65880240D01*
X45162064Y-65867211D01*
X45162058Y-65867211D01*
X45157495Y-65866984D01*
X44887559Y-65892738D01*
X44883130Y-65893822D01*
X44883123Y-65893823D01*
X44753069Y-65925648D01*
X44624168Y-65957190D01*
X44619933Y-65958905D01*
X44619931Y-65958906D01*
X44377069Y-66057275D01*
X44372840Y-66058988D01*
X44138839Y-66196001D01*
X43927068Y-66365359D01*
X43923947Y-66368700D01*
X43799224Y-66502215D01*
X43741963Y-66563512D01*
X43587402Y-66786312D01*
X43585374Y-66790388D01*
X43585373Y-66790390D01*
X43503252Y-66955460D01*
X43466621Y-67029090D01*
X43382153Y-67286760D01*
X43335765Y-67553925D01*
X43331500Y-67639600D01*
X43331500Y-68328884D01*
X41008500Y-68328884D01*
X41008500Y-59444669D01*
X46092001Y-59444669D01*
X46092371Y-59451490D01*
X46097895Y-59502352D01*
X46101521Y-59517604D01*
X46146676Y-59638054D01*
X46155214Y-59653649D01*
X46231715Y-59755724D01*
X46244276Y-59768285D01*
X46346351Y-59844786D01*
X46361946Y-59853324D01*
X46482394Y-59898478D01*
X46497649Y-59902105D01*
X46548514Y-59907631D01*
X46555328Y-59908000D01*
X47227885Y-59908000D01*
X47243124Y-59903525D01*
X47244329Y-59902135D01*
X47246000Y-59894452D01*
X47246000Y-58772115D01*
X47241525Y-58756876D01*
X47240135Y-58755671D01*
X47232452Y-58754000D01*
X46110116Y-58754000D01*
X46094877Y-58758475D01*
X46093672Y-58759865D01*
X46092001Y-58767548D01*
X46092001Y-59444669D01*
X41008500Y-59444669D01*
X41008500Y-58227885D01*
X46092000Y-58227885D01*
X46096475Y-58243124D01*
X46097865Y-58244329D01*
X46105548Y-58246000D01*
X47227885Y-58246000D01*
X47243124Y-58241525D01*
X47244329Y-58240135D01*
X47246000Y-58232452D01*
X47246000Y-57110116D01*
X47241525Y-57094877D01*
X47240135Y-57093672D01*
X47232452Y-57092001D01*
X46555331Y-57092001D01*
X46548510Y-57092371D01*
X46497648Y-57097895D01*
X46482396Y-57101521D01*
X46361946Y-57146676D01*
X46346351Y-57155214D01*
X46244276Y-57231715D01*
X46231715Y-57244276D01*
X46155214Y-57346351D01*
X46146676Y-57361946D01*
X46101522Y-57482394D01*
X46097895Y-57497649D01*
X46092369Y-57548514D01*
X46092000Y-57555328D01*
X46092000Y-58227885D01*
X41008500Y-58227885D01*
X41008500Y-51328884D01*
X43331500Y-51328884D01*
X43331665Y-51331152D01*
X43331665Y-51331164D01*
X43339725Y-51442238D01*
X43346125Y-51530451D01*
X43347109Y-51534906D01*
X43347109Y-51534909D01*
X43386482Y-51713240D01*
X43404585Y-51795237D01*
X43500655Y-52048810D01*
X43632324Y-52285859D01*
X43796833Y-52501417D01*
X43990736Y-52690970D01*
X44209972Y-52850547D01*
X44449947Y-52976804D01*
X44454248Y-52978323D01*
X44454253Y-52978325D01*
X44587087Y-53025233D01*
X44705634Y-53067096D01*
X44803653Y-53086415D01*
X44967206Y-53118652D01*
X44967212Y-53118653D01*
X44971678Y-53119533D01*
X44976232Y-53119760D01*
X44976234Y-53119760D01*
X45237936Y-53132789D01*
X45237942Y-53132789D01*
X45242505Y-53133016D01*
X45512441Y-53107262D01*
X45516870Y-53106178D01*
X45516877Y-53106177D01*
X45676584Y-53067096D01*
X45775832Y-53042810D01*
X45935039Y-52978325D01*
X46022931Y-52942725D01*
X46022932Y-52942725D01*
X46027160Y-52941012D01*
X46261161Y-52803999D01*
X46472932Y-52634641D01*
X46594399Y-52504612D01*
X46654921Y-52439824D01*
X46654923Y-52439821D01*
X46658037Y-52436488D01*
X46812598Y-52213688D01*
X46894624Y-52048810D01*
X46931346Y-51974997D01*
X46931347Y-51974994D01*
X46933379Y-51970910D01*
X47017847Y-51713240D01*
X47064235Y-51446075D01*
X47068500Y-51360400D01*
X47068500Y-51328884D01*
X52931500Y-51328884D01*
X52931665Y-51331152D01*
X52931665Y-51331164D01*
X52939725Y-51442238D01*
X52946125Y-51530451D01*
X52947109Y-51534906D01*
X52947109Y-51534909D01*
X52986482Y-51713240D01*
X53004585Y-51795237D01*
X53100655Y-52048810D01*
X53232324Y-52285859D01*
X53396833Y-52501417D01*
X53590736Y-52690970D01*
X53809972Y-52850547D01*
X54049947Y-52976804D01*
X54054248Y-52978323D01*
X54054253Y-52978325D01*
X54187087Y-53025233D01*
X54305634Y-53067096D01*
X54403653Y-53086415D01*
X54567206Y-53118652D01*
X54567212Y-53118653D01*
X54571678Y-53119533D01*
X54576232Y-53119760D01*
X54576234Y-53119760D01*
X54837936Y-53132789D01*
X54837942Y-53132789D01*
X54842505Y-53133016D01*
X55112441Y-53107262D01*
X55116870Y-53106178D01*
X55116877Y-53106177D01*
X55276584Y-53067096D01*
X55375832Y-53042810D01*
X55535039Y-52978325D01*
X55622931Y-52942725D01*
X55622932Y-52942725D01*
X55627160Y-52941012D01*
X55861161Y-52803999D01*
X56072932Y-52634641D01*
X56194399Y-52504612D01*
X56254921Y-52439824D01*
X56254923Y-52439821D01*
X56258037Y-52436488D01*
X56412598Y-52213688D01*
X56494624Y-52048810D01*
X56531346Y-51974997D01*
X56531347Y-51974994D01*
X56533379Y-51970910D01*
X56617847Y-51713240D01*
X56664235Y-51446075D01*
X56668500Y-51360400D01*
X56668500Y-50671116D01*
X56666328Y-50641170D01*
X56654205Y-50474100D01*
X56653875Y-50469549D01*
X56652891Y-50465091D01*
X56596400Y-50209223D01*
X56596399Y-50209219D01*
X56595415Y-50204763D01*
X56499345Y-49951190D01*
X56367676Y-49714141D01*
X56203167Y-49498583D01*
X56009264Y-49309030D01*
X55790028Y-49149453D01*
X55550053Y-49023196D01*
X55545752Y-49021677D01*
X55545747Y-49021675D01*
X55367998Y-48958906D01*
X55294366Y-48932904D01*
X55196347Y-48913585D01*
X55032794Y-48881348D01*
X55032788Y-48881347D01*
X55028322Y-48880467D01*
X55023768Y-48880240D01*
X55023766Y-48880240D01*
X54762064Y-48867211D01*
X54762058Y-48867211D01*
X54757495Y-48866984D01*
X54487559Y-48892738D01*
X54483130Y-48893822D01*
X54483123Y-48893823D01*
X54353069Y-48925648D01*
X54224168Y-48957190D01*
X54219933Y-48958905D01*
X54219931Y-48958906D01*
X53977069Y-49057275D01*
X53972840Y-49058988D01*
X53738839Y-49196001D01*
X53527068Y-49365359D01*
X53523947Y-49368700D01*
X53399224Y-49502215D01*
X53341963Y-49563512D01*
X53187402Y-49786312D01*
X53185374Y-49790388D01*
X53185373Y-49790390D01*
X53103252Y-49955460D01*
X53066621Y-50029090D01*
X52982153Y-50286760D01*
X52935765Y-50553925D01*
X52931500Y-50639600D01*
X52931500Y-51328884D01*
X47068500Y-51328884D01*
X47068500Y-50671116D01*
X47066328Y-50641170D01*
X47054205Y-50474100D01*
X47053875Y-50469549D01*
X47052891Y-50465091D01*
X46996400Y-50209223D01*
X46996399Y-50209219D01*
X46995415Y-50204763D01*
X46899345Y-49951190D01*
X46767676Y-49714141D01*
X46603167Y-49498583D01*
X46409264Y-49309030D01*
X46190028Y-49149453D01*
X45950053Y-49023196D01*
X45945752Y-49021677D01*
X45945747Y-49021675D01*
X45767998Y-48958906D01*
X45694366Y-48932904D01*
X45596347Y-48913585D01*
X45432794Y-48881348D01*
X45432788Y-48881347D01*
X45428322Y-48880467D01*
X45423768Y-48880240D01*
X45423766Y-48880240D01*
X45162064Y-48867211D01*
X45162058Y-48867211D01*
X45157495Y-48866984D01*
X44887559Y-48892738D01*
X44883130Y-48893822D01*
X44883123Y-48893823D01*
X44753069Y-48925648D01*
X44624168Y-48957190D01*
X44619933Y-48958905D01*
X44619931Y-48958906D01*
X44377069Y-49057275D01*
X44372840Y-49058988D01*
X44138839Y-49196001D01*
X43927068Y-49365359D01*
X43923947Y-49368700D01*
X43799224Y-49502215D01*
X43741963Y-49563512D01*
X43587402Y-49786312D01*
X43585374Y-49790388D01*
X43585373Y-49790390D01*
X43503252Y-49955460D01*
X43466621Y-50029090D01*
X43382153Y-50286760D01*
X43335765Y-50553925D01*
X43331500Y-50639600D01*
X43331500Y-51328884D01*
X41008500Y-51328884D01*
X41008500Y-45634500D01*
X41028502Y-45566379D01*
X41082158Y-45519886D01*
X41134500Y-45508500D01*
X58865500Y-45508500D01*
X58933621Y-45528502D01*
G37*
%TD.AperFunction*%
%TD*%
M02*
