M48
; DRILL file {KiCad (6.0.9)} date Sun 29 Jan 2023 17:11:55 CET
; FORMAT={-:-/ absolute / inch / decimal}
; #@! TF.CreationDate,2023-01-29T17:11:55+01:00
; #@! TF.GenerationSoftware,Kicad,Pcbnew,(6.0.9)
; #@! TF.FileFunction,Plated,1,2,PTH
FMAT,2
INCH
; #@! TA.AperFunction,Plated,PTH,ViaDrill
T1C0.0157
; #@! TA.AperFunction,Plated,PTH,ComponentDrill
T2C0.0394
; #@! TA.AperFunction,Plated,PTH,ComponentDrill
T3C0.0433
; #@! TA.AperFunction,Plated,PTH,ComponentDrill
T4C0.0559
; #@! TA.AperFunction,Plated,PTH,ComponentDrill
T5C0.0563
%
G90
G05
T1
X1.6181Y-5.2441
X1.6299Y-4.9685
X1.811Y-5.689
X1.811Y-5.7874
X1.811Y-5.8858
X1.9213Y-4.563
X1.9291Y-4.7598
X2.0079Y-4.7087
X2.0079Y-5.8071
X2.0236Y-5.7087
T2
X1.8701Y-2.3031
X1.8701Y-2.9724
X1.8701Y-3.6417
X1.8701Y-4.311
X1.9685Y-2.3031
X1.9685Y-2.9724
X1.9685Y-3.6417
X1.9685Y-4.311
X2.0669Y-2.3031
X2.0669Y-2.9724
X2.0669Y-3.6417
X2.0669Y-4.311
T4
X1.7717Y-4.8591
X1.7717Y-4.9811
X1.7717Y-4.9811
X1.7717Y-5.1031
X2.1654Y-4.8591
X2.1654Y-4.9811
X2.1654Y-4.9811
X2.1654Y-5.1031
X2.1654Y-5.8811
X2.1654Y-6.0031
T5
X1.7717Y-4.5323
X1.7717Y-5.4299
X2.1654Y-4.5323
X2.1654Y-5.4299
X2.1654Y-5.5543
T3
G00X1.7795Y-2.0217
M15
G01X1.7795Y-1.9941
M16
G05
G00X1.7795Y-2.6909
M15
G01X1.7795Y-2.6634
M16
G05
G00X1.7795Y-3.3602
M15
G01X1.7795Y-3.3327
M16
G05
G00X1.7795Y-4.0295
M15
G01X1.7795Y-4.002
M16
G05
G00X2.1575Y-2.0217
M15
G01X2.1575Y-1.9941
M16
G05
G00X2.1575Y-2.6909
M15
G01X2.1575Y-2.6634
M16
G05
G00X2.1575Y-3.3602
M15
G01X2.1575Y-3.3327
M16
G05
G00X2.1575Y-4.0295
M15
G01X2.1575Y-4.002
M16
G05
T0
M30
