%TF.GenerationSoftware,KiCad,Pcbnew,(6.0.9)*%
%TF.CreationDate,2023-01-29T17:11:57+01:00*%
%TF.ProjectId,witns_mxr,7769746e-735f-46d7-9872-2e6b69636164,rev?*%
%TF.SameCoordinates,Original*%
%TF.FileFunction,Copper,L2,Bot*%
%TF.FilePolarity,Positive*%
%FSLAX46Y46*%
G04 Gerber Fmt 4.6, Leading zero omitted, Abs format (unit mm)*
G04 Created by KiCad (PCBNEW (6.0.9)) date 2023-01-29 17:11:57*
%MOMM*%
%LPD*%
G01*
G04 APERTURE LIST*
G04 Aperture macros list*
%AMRoundRect*
0 Rectangle with rounded corners*
0 $1 Rounding radius*
0 $2 $3 $4 $5 $6 $7 $8 $9 X,Y pos of 4 corners*
0 Add a 4 corners polygon primitive as box body*
4,1,4,$2,$3,$4,$5,$6,$7,$8,$9,$2,$3,0*
0 Add four circle primitives for the rounded corners*
1,1,$1+$1,$2,$3*
1,1,$1+$1,$4,$5*
1,1,$1+$1,$6,$7*
1,1,$1+$1,$8,$9*
0 Add four rect primitives between the rounded corners*
20,1,$1+$1,$2,$3,$4,$5,0*
20,1,$1+$1,$4,$5,$6,$7,0*
20,1,$1+$1,$6,$7,$8,$9,0*
20,1,$1+$1,$8,$9,$2,$3,0*%
G04 Aperture macros list end*
%TA.AperFunction,ComponentPad*%
%ADD10O,2.720000X3.240000*%
%TD*%
%TA.AperFunction,ComponentPad*%
%ADD11R,1.800000X1.800000*%
%TD*%
%TA.AperFunction,ComponentPad*%
%ADD12C,1.800000*%
%TD*%
%TA.AperFunction,ComponentPad*%
%ADD13R,1.930000X1.830000*%
%TD*%
%TA.AperFunction,ComponentPad*%
%ADD14C,2.130000*%
%TD*%
%TA.AperFunction,SMDPad,CuDef*%
%ADD15R,3.150000X1.000000*%
%TD*%
%TA.AperFunction,SMDPad,CuDef*%
%ADD16RoundRect,0.250000X-1.050000X-0.550000X1.050000X-0.550000X1.050000X0.550000X-1.050000X0.550000X0*%
%TD*%
%TA.AperFunction,SMDPad,CuDef*%
%ADD17RoundRect,0.200000X-0.275000X0.200000X-0.275000X-0.200000X0.275000X-0.200000X0.275000X0.200000X0*%
%TD*%
%TA.AperFunction,SMDPad,CuDef*%
%ADD18RoundRect,0.225000X0.225000X0.250000X-0.225000X0.250000X-0.225000X-0.250000X0.225000X-0.250000X0*%
%TD*%
%TA.AperFunction,SMDPad,CuDef*%
%ADD19RoundRect,0.200000X0.200000X0.275000X-0.200000X0.275000X-0.200000X-0.275000X0.200000X-0.275000X0*%
%TD*%
%TA.AperFunction,SMDPad,CuDef*%
%ADD20R,0.450000X0.600000*%
%TD*%
%TA.AperFunction,SMDPad,CuDef*%
%ADD21RoundRect,0.225000X0.250000X-0.225000X0.250000X0.225000X-0.250000X0.225000X-0.250000X-0.225000X0*%
%TD*%
%TA.AperFunction,SMDPad,CuDef*%
%ADD22RoundRect,0.200000X0.275000X-0.200000X0.275000X0.200000X-0.275000X0.200000X-0.275000X-0.200000X0*%
%TD*%
%TA.AperFunction,SMDPad,CuDef*%
%ADD23RoundRect,0.225000X-0.250000X0.225000X-0.250000X-0.225000X0.250000X-0.225000X0.250000X0.225000X0*%
%TD*%
%TA.AperFunction,SMDPad,CuDef*%
%ADD24RoundRect,0.150000X0.825000X0.150000X-0.825000X0.150000X-0.825000X-0.150000X0.825000X-0.150000X0*%
%TD*%
%TA.AperFunction,ViaPad*%
%ADD25C,0.800000*%
%TD*%
%TA.AperFunction,Conductor*%
%ADD26C,0.700000*%
%TD*%
%TA.AperFunction,Conductor*%
%ADD27C,0.400000*%
%TD*%
%TA.AperFunction,Conductor*%
%ADD28C,0.500000*%
%TD*%
G04 APERTURE END LIST*
D10*
%TO.P,RV4,*%
%TO.N,*%
X45200000Y-102000000D03*
X54800000Y-102000000D03*
D11*
%TO.P,RV4,1,1*%
%TO.N,GND*%
X47500000Y-109500000D03*
D12*
%TO.P,RV4,2,2*%
%TO.N,Net-(RV4-Pad2)*%
X50000000Y-109500000D03*
%TO.P,RV4,3,3*%
%TO.N,Net-(J104-PadT)*%
X52500000Y-109500000D03*
%TD*%
D10*
%TO.P,RV1,*%
%TO.N,*%
X45200000Y-51000000D03*
X54800000Y-51000000D03*
D11*
%TO.P,RV1,1,1*%
%TO.N,GND*%
X47500000Y-58500000D03*
D12*
%TO.P,RV1,2,2*%
%TO.N,Net-(RV1-Pad2)*%
X50000000Y-58500000D03*
%TO.P,RV1,3,3*%
%TO.N,Net-(J101-PadT)*%
X52500000Y-58500000D03*
%TD*%
D13*
%TO.P,J103,S*%
%TO.N,GND*%
X55000000Y-126520000D03*
D14*
%TO.P,J103,T*%
%TO.N,Net-(J103-PadT)*%
X55000000Y-137920000D03*
%TO.P,J103,TN*%
%TO.N,unconnected-(J103-PadTN)*%
X55000000Y-129620000D03*
%TD*%
D13*
%TO.P,J102,S*%
%TO.N,GND*%
X55000000Y-126520000D03*
D14*
%TO.P,J102,T*%
%TO.N,Net-(J102-PadT)*%
X55000000Y-115120000D03*
%TO.P,J102,TN*%
%TO.N,unconnected-(J102-PadTN)*%
X55000000Y-123420000D03*
%TD*%
D10*
%TO.P,RV2,*%
%TO.N,*%
X54800000Y-68000000D03*
X45200000Y-68000000D03*
D11*
%TO.P,RV2,1,1*%
%TO.N,GND*%
X47500000Y-75500000D03*
D12*
%TO.P,RV2,2,2*%
%TO.N,Net-(RV2-Pad2)*%
X50000000Y-75500000D03*
%TO.P,RV2,3,3*%
%TO.N,Net-(J102-PadT)*%
X52500000Y-75500000D03*
%TD*%
D13*
%TO.P,J104,S*%
%TO.N,GND*%
X45000000Y-126520000D03*
D14*
%TO.P,J104,T*%
%TO.N,Net-(J104-PadT)*%
X45000000Y-137920000D03*
%TO.P,J104,TN*%
%TO.N,unconnected-(J104-PadTN)*%
X45000000Y-129620000D03*
%TD*%
D13*
%TO.P,J101,S*%
%TO.N,GND*%
X45000000Y-126520000D03*
D14*
%TO.P,J101,T*%
%TO.N,Net-(J101-PadT)*%
X45000000Y-115120000D03*
%TO.P,J101,TN*%
%TO.N,unconnected-(J101-PadTN)*%
X45000000Y-123420000D03*
%TD*%
D13*
%TO.P,J105,S*%
%TO.N,GND*%
X55000000Y-152480000D03*
D14*
%TO.P,J105,T*%
%TO.N,Net-(J105-PadT)*%
X55000000Y-141080000D03*
%TO.P,J105,TN*%
%TO.N,unconnected-(J105-PadTN)*%
X55000000Y-149380000D03*
%TD*%
D10*
%TO.P,RV3,*%
%TO.N,*%
X45200000Y-85000000D03*
X54800000Y-85000000D03*
D11*
%TO.P,RV3,1,1*%
%TO.N,GND*%
X47500000Y-92500000D03*
D12*
%TO.P,RV3,2,2*%
%TO.N,Net-(RV3-Pad2)*%
X50000000Y-92500000D03*
%TO.P,RV3,3,3*%
%TO.N,Net-(J103-PadT)*%
X52500000Y-92500000D03*
%TD*%
D15*
%TO.P,J106,1,Pin_1*%
%TO.N,Net-(J106-Pad2)*%
X43475000Y-152080000D03*
%TO.P,J106,2,Pin_2*%
X48525000Y-152080000D03*
%TO.P,J106,3,Pin_3*%
%TO.N,GND*%
X43475000Y-149540000D03*
%TO.P,J106,4,Pin_4*%
X48525000Y-149540000D03*
%TO.P,J106,5,Pin_5*%
X43475000Y-147000000D03*
%TO.P,J106,6,Pin_6*%
X48525000Y-147000000D03*
%TO.P,J106,7,Pin_7*%
X43475000Y-144460000D03*
%TO.P,J106,8,Pin_8*%
X48525000Y-144460000D03*
%TO.P,J106,9,Pin_9*%
%TO.N,Net-(J106-Pad10)*%
X43475000Y-141920000D03*
%TO.P,J106,10,Pin_10*%
X48525000Y-141920000D03*
%TD*%
D16*
%TO.P,C2,1*%
%TO.N,GND*%
X53200000Y-145000000D03*
%TO.P,C2,2*%
%TO.N,-12V*%
X56800000Y-145000000D03*
%TD*%
%TO.P,C1,1*%
%TO.N,+12V*%
X46200000Y-134000000D03*
%TO.P,C1,2*%
%TO.N,GND*%
X49800000Y-134000000D03*
%TD*%
D17*
%TO.P,R2,1*%
%TO.N,Net-(RV2-Pad2)*%
X50000000Y-78175000D03*
%TO.P,R2,2*%
%TO.N,Net-(U1-Pad2)*%
X50000000Y-79825000D03*
%TD*%
%TO.P,R1,1*%
%TO.N,Net-(RV1-Pad2)*%
X50000000Y-61175000D03*
%TO.P,R1,2*%
%TO.N,Net-(U1-Pad2)*%
X50000000Y-62825000D03*
%TD*%
D18*
%TO.P,C6,1*%
%TO.N,-12V*%
X50775000Y-123000000D03*
%TO.P,C6,2*%
%TO.N,GND*%
X49225000Y-123000000D03*
%TD*%
D19*
%TO.P,R6,1*%
%TO.N,Net-(U1-Pad1)*%
X52825000Y-115000000D03*
%TO.P,R6,2*%
%TO.N,Net-(U1-Pad6)*%
X51175000Y-115000000D03*
%TD*%
D20*
%TO.P,D1,1,K*%
%TO.N,+12V*%
X42000000Y-136950000D03*
%TO.P,D1,2,A*%
%TO.N,Net-(J106-Pad10)*%
X42000000Y-139050000D03*
%TD*%
D17*
%TO.P,R3,1*%
%TO.N,Net-(RV3-Pad2)*%
X50000000Y-95175000D03*
%TO.P,R3,2*%
%TO.N,Net-(U1-Pad2)*%
X50000000Y-96825000D03*
%TD*%
D21*
%TO.P,C4,1*%
%TO.N,-12V*%
X52000000Y-148975000D03*
%TO.P,C4,2*%
%TO.N,GND*%
X52000000Y-147425000D03*
%TD*%
D22*
%TO.P,R7,1*%
%TO.N,Net-(U1-Pad6)*%
X45000000Y-119825000D03*
%TO.P,R7,2*%
%TO.N,Net-(U1-Pad7)*%
X45000000Y-118175000D03*
%TD*%
D17*
%TO.P,R4,1*%
%TO.N,Net-(RV4-Pad2)*%
X50000000Y-111675000D03*
%TO.P,R4,2*%
%TO.N,Net-(U1-Pad2)*%
X50000000Y-113325000D03*
%TD*%
D20*
%TO.P,D2,1,K*%
%TO.N,Net-(J106-Pad2)*%
X52000000Y-153050000D03*
%TO.P,D2,2,A*%
%TO.N,-12V*%
X52000000Y-150950000D03*
%TD*%
D21*
%TO.P,C7,1*%
%TO.N,Net-(U1-Pad2)*%
X57000000Y-118775000D03*
%TO.P,C7,2*%
%TO.N,Net-(U1-Pad1)*%
X57000000Y-117225000D03*
%TD*%
D23*
%TO.P,C3,1*%
%TO.N,GND*%
X42000000Y-133225000D03*
%TO.P,C3,2*%
%TO.N,+12V*%
X42000000Y-134775000D03*
%TD*%
D24*
%TO.P,U1,1*%
%TO.N,Net-(U1-Pad1)*%
X52475000Y-117095000D03*
%TO.P,U1,2,-*%
%TO.N,Net-(U1-Pad2)*%
X52475000Y-118365000D03*
%TO.P,U1,3,+*%
%TO.N,GND*%
X52475000Y-119635000D03*
%TO.P,U1,4,V-*%
%TO.N,-12V*%
X52475000Y-120905000D03*
%TO.P,U1,5,+*%
%TO.N,GND*%
X47525000Y-120905000D03*
%TO.P,U1,6,-*%
%TO.N,Net-(U1-Pad6)*%
X47525000Y-119635000D03*
%TO.P,U1,7*%
%TO.N,Net-(U1-Pad7)*%
X47525000Y-118365000D03*
%TO.P,U1,8,V+*%
%TO.N,+12V*%
X47525000Y-117095000D03*
%TD*%
D21*
%TO.P,C8,1*%
%TO.N,Net-(U1-Pad6)*%
X43000000Y-119775000D03*
%TO.P,C8,2*%
%TO.N,Net-(U1-Pad7)*%
X43000000Y-118225000D03*
%TD*%
D18*
%TO.P,C5,1*%
%TO.N,GND*%
X48775000Y-115000000D03*
%TO.P,C5,2*%
%TO.N,+12V*%
X47225000Y-115000000D03*
%TD*%
D17*
%TO.P,R8,1*%
%TO.N,Net-(U1-Pad7)*%
X52000000Y-139475000D03*
%TO.P,R8,2*%
%TO.N,Net-(J105-PadT)*%
X52000000Y-141125000D03*
%TD*%
D22*
%TO.P,R5,1*%
%TO.N,Net-(U1-Pad2)*%
X55000000Y-118825000D03*
%TO.P,R5,2*%
%TO.N,Net-(U1-Pad1)*%
X55000000Y-117175000D03*
%TD*%
D25*
%TO.N,GND*%
X46000000Y-147000000D03*
X51000000Y-147500000D03*
X51400000Y-145000000D03*
X41100000Y-133200000D03*
X49000000Y-120900000D03*
X46000000Y-149500000D03*
X46000000Y-144500000D03*
X41400000Y-126200000D03*
X51000000Y-119600000D03*
X48800000Y-115900000D03*
%TD*%
D26*
%TO.N,+12V*%
X42000000Y-134775000D02*
X43225000Y-134775000D01*
X44000000Y-134000000D02*
X46200000Y-134000000D01*
D27*
X42800000Y-130900000D02*
X44000000Y-132100000D01*
D26*
X43225000Y-134775000D02*
X44000000Y-134000000D01*
D27*
X42800000Y-125000000D02*
X42800000Y-130900000D01*
X47525000Y-117095000D02*
X47525000Y-116525000D01*
X47225000Y-115000000D02*
X47225000Y-116225000D01*
X42205000Y-117095000D02*
X41400000Y-117900000D01*
X47225000Y-116225000D02*
X47525000Y-116525000D01*
X41400000Y-117900000D02*
X41400000Y-123600000D01*
X41400000Y-123600000D02*
X42800000Y-125000000D01*
X47525000Y-117095000D02*
X42205000Y-117095000D01*
X44000000Y-132100000D02*
X44000000Y-134000000D01*
D26*
X42000000Y-136950000D02*
X42000000Y-134775000D01*
%TO.N,GND*%
X48800000Y-115900000D02*
X48800000Y-115025000D01*
D27*
X52475000Y-119635000D02*
X51035000Y-119635000D01*
X47525000Y-120905000D02*
X48995000Y-120905000D01*
X43475000Y-144460000D02*
X48525000Y-144460000D01*
X51035000Y-119635000D02*
X51000000Y-119600000D01*
D28*
X41100000Y-133200000D02*
X41975000Y-133200000D01*
D27*
X52000000Y-147425000D02*
X51075000Y-147425000D01*
X48525000Y-147000000D02*
X43475000Y-147000000D01*
X48995000Y-120905000D02*
X49000000Y-120900000D01*
X48525000Y-149540000D02*
X43475000Y-149540000D01*
X53200000Y-145000000D02*
X51400000Y-145000000D01*
D28*
X41975000Y-133200000D02*
X42000000Y-133225000D01*
D26*
X48800000Y-115025000D02*
X48775000Y-115000000D01*
D27*
X51075000Y-147425000D02*
X51000000Y-147500000D01*
%TO.N,-12V*%
X50775000Y-121225000D02*
X50775000Y-123000000D01*
D26*
X52021016Y-148975000D02*
X53796016Y-147200000D01*
X53796016Y-147200000D02*
X54600000Y-147200000D01*
D27*
X58000000Y-121810000D02*
X57095000Y-120905000D01*
X52475000Y-120905000D02*
X51095000Y-120905000D01*
X57095000Y-120905000D02*
X52475000Y-120905000D01*
D26*
X52000000Y-150950000D02*
X52000000Y-148975000D01*
X54600000Y-147200000D02*
X56800000Y-145000000D01*
D27*
X58000000Y-143800000D02*
X58000000Y-121810000D01*
X56800000Y-145000000D02*
X58000000Y-143800000D01*
X51095000Y-120905000D02*
X50775000Y-121225000D01*
D26*
X52000000Y-148975000D02*
X52021016Y-148975000D01*
D28*
%TO.N,Net-(U1-Pad2)*%
X45500000Y-95000000D02*
X47325000Y-96825000D01*
D27*
X52475000Y-118365000D02*
X54540000Y-118365000D01*
X54540000Y-118365000D02*
X55000000Y-118825000D01*
X52000000Y-114300000D02*
X51025000Y-113325000D01*
X51265000Y-118365000D02*
X50800000Y-117900000D01*
D28*
X50000000Y-79825000D02*
X50000000Y-85000000D01*
X45500000Y-111500000D02*
X46500000Y-112500000D01*
D27*
X55050000Y-118775000D02*
X55000000Y-118825000D01*
X57000000Y-118775000D02*
X55050000Y-118775000D01*
D28*
X45500000Y-77700000D02*
X47625000Y-79825000D01*
D27*
X50800000Y-117900000D02*
X50800000Y-116800000D01*
X51025000Y-113325000D02*
X50000000Y-113325000D01*
X50800000Y-116800000D02*
X52000000Y-115600000D01*
D28*
X47625000Y-79825000D02*
X50000000Y-79825000D01*
X47325000Y-96825000D02*
X50000000Y-96825000D01*
X45500000Y-89500000D02*
X45500000Y-95000000D01*
X50000000Y-68300000D02*
X45500000Y-72800000D01*
X50000000Y-85000000D02*
X45500000Y-89500000D01*
X50000000Y-96825000D02*
X50000000Y-102700000D01*
X45500000Y-107200000D02*
X45500000Y-111500000D01*
X47325000Y-113325000D02*
X50000000Y-113325000D01*
D27*
X52475000Y-118365000D02*
X51265000Y-118365000D01*
D28*
X46500000Y-112500000D02*
X47325000Y-113325000D01*
X45500000Y-72800000D02*
X45500000Y-77700000D01*
D27*
X52000000Y-115600000D02*
X52000000Y-114300000D01*
D28*
X50000000Y-62825000D02*
X50000000Y-68300000D01*
X50000000Y-102700000D02*
X45500000Y-107200000D01*
D27*
%TO.N,Net-(U1-Pad1)*%
X52475000Y-117095000D02*
X52475000Y-116525000D01*
X54920000Y-117095000D02*
X55000000Y-117175000D01*
X55000000Y-117175000D02*
X56950000Y-117175000D01*
X56950000Y-117175000D02*
X57000000Y-117225000D01*
X52475000Y-116525000D02*
X52825000Y-116175000D01*
X52475000Y-117095000D02*
X54920000Y-117095000D01*
X52825000Y-115000000D02*
X52825000Y-116175000D01*
%TO.N,Net-(U1-Pad6)*%
X47525000Y-119635000D02*
X45190000Y-119635000D01*
X43050000Y-119825000D02*
X43000000Y-119775000D01*
X51175000Y-115000000D02*
X50000000Y-116175000D01*
X48765000Y-119635000D02*
X47525000Y-119635000D01*
X50000000Y-116175000D02*
X50000000Y-118400000D01*
X45000000Y-119825000D02*
X43050000Y-119825000D01*
X50000000Y-118400000D02*
X48765000Y-119635000D01*
X45190000Y-119635000D02*
X45000000Y-119825000D01*
%TO.N,Net-(U1-Pad7)*%
X45190000Y-118365000D02*
X45000000Y-118175000D01*
X45500000Y-121300000D02*
X42800000Y-121300000D01*
X42125000Y-119100000D02*
X43000000Y-118225000D01*
X43050000Y-118175000D02*
X43000000Y-118225000D01*
X42125000Y-120625000D02*
X42125000Y-119100000D01*
X52000000Y-127800000D02*
X45500000Y-121300000D01*
X52000000Y-139475000D02*
X52000000Y-127800000D01*
X45000000Y-118175000D02*
X43050000Y-118175000D01*
X47525000Y-118365000D02*
X45190000Y-118365000D01*
X42800000Y-121300000D02*
X42125000Y-120625000D01*
D26*
%TO.N,Net-(J106-Pad10)*%
X43475000Y-140525000D02*
X42000000Y-139050000D01*
X43475000Y-141920000D02*
X43475000Y-140525000D01*
X43475000Y-141920000D02*
X48525000Y-141920000D01*
%TO.N,Net-(J106-Pad2)*%
X50980000Y-152080000D02*
X51950000Y-153050000D01*
X43475000Y-152080000D02*
X48525000Y-152080000D01*
X48525000Y-152080000D02*
X50980000Y-152080000D01*
X52000000Y-153050000D02*
X51950000Y-153050000D01*
D28*
%TO.N,Net-(J105-PadT)*%
X52045000Y-141080000D02*
X52000000Y-141125000D01*
X55000000Y-141080000D02*
X52045000Y-141080000D01*
D26*
%TO.N,Net-(RV1-Pad2)*%
X50000000Y-58500000D02*
X50000000Y-61175000D01*
%TO.N,Net-(RV2-Pad2)*%
X50000000Y-75500000D02*
X50000000Y-78175000D01*
%TO.N,Net-(RV3-Pad2)*%
X50000000Y-92500000D02*
X50000000Y-95175000D01*
%TO.N,Net-(RV4-Pad2)*%
X50000000Y-111675000D02*
X50000000Y-109500000D01*
%TD*%
%TA.AperFunction,Conductor*%
%TO.N,GND*%
G36*
X58933621Y-45528502D02*
G01*
X58980114Y-45582158D01*
X58991500Y-45634500D01*
X58991500Y-154365500D01*
X58971498Y-154433621D01*
X58917842Y-154480114D01*
X58865500Y-154491500D01*
X41134500Y-154491500D01*
X41066379Y-154471498D01*
X41019886Y-154417842D01*
X41008500Y-154365500D01*
X41008500Y-150084669D01*
X41392001Y-150084669D01*
X41392371Y-150091490D01*
X41397895Y-150142352D01*
X41401521Y-150157604D01*
X41446676Y-150278054D01*
X41455214Y-150293649D01*
X41531715Y-150395724D01*
X41544276Y-150408285D01*
X41646351Y-150484786D01*
X41661946Y-150493324D01*
X41782394Y-150538478D01*
X41797649Y-150542105D01*
X41848514Y-150547631D01*
X41855328Y-150548000D01*
X43202885Y-150548000D01*
X43218124Y-150543525D01*
X43219329Y-150542135D01*
X43221000Y-150534452D01*
X43221000Y-150529884D01*
X43729000Y-150529884D01*
X43733475Y-150545123D01*
X43734865Y-150546328D01*
X43742548Y-150547999D01*
X45094669Y-150547999D01*
X45101490Y-150547629D01*
X45152352Y-150542105D01*
X45167604Y-150538479D01*
X45288054Y-150493324D01*
X45303649Y-150484786D01*
X45405724Y-150408285D01*
X45418285Y-150395724D01*
X45494786Y-150293649D01*
X45503324Y-150278054D01*
X45548478Y-150157606D01*
X45552105Y-150142351D01*
X45557631Y-150091486D01*
X45558000Y-150084672D01*
X45558000Y-150084669D01*
X46442001Y-150084669D01*
X46442371Y-150091490D01*
X46447895Y-150142352D01*
X46451521Y-150157604D01*
X46496676Y-150278054D01*
X46505214Y-150293649D01*
X46581715Y-150395724D01*
X46594276Y-150408285D01*
X46696351Y-150484786D01*
X46711946Y-150493324D01*
X46832394Y-150538478D01*
X46847649Y-150542105D01*
X46898514Y-150547631D01*
X46905328Y-150548000D01*
X48252885Y-150548000D01*
X48268124Y-150543525D01*
X48269329Y-150542135D01*
X48271000Y-150534452D01*
X48271000Y-150529884D01*
X48779000Y-150529884D01*
X48783475Y-150545123D01*
X48784865Y-150546328D01*
X48792548Y-150547999D01*
X50144669Y-150547999D01*
X50151490Y-150547629D01*
X50202352Y-150542105D01*
X50217604Y-150538479D01*
X50338054Y-150493324D01*
X50353649Y-150484786D01*
X50455724Y-150408285D01*
X50468285Y-150395724D01*
X50544786Y-150293649D01*
X50553324Y-150278054D01*
X50598478Y-150157606D01*
X50602105Y-150142351D01*
X50607631Y-150091486D01*
X50608000Y-150084672D01*
X50608000Y-149812115D01*
X50603525Y-149796876D01*
X50602135Y-149795671D01*
X50594452Y-149794000D01*
X48797115Y-149794000D01*
X48781876Y-149798475D01*
X48780671Y-149799865D01*
X48779000Y-149807548D01*
X48779000Y-150529884D01*
X48271000Y-150529884D01*
X48271000Y-149812115D01*
X48266525Y-149796876D01*
X48265135Y-149795671D01*
X48257452Y-149794000D01*
X46460116Y-149794000D01*
X46444877Y-149798475D01*
X46443672Y-149799865D01*
X46442001Y-149807548D01*
X46442001Y-150084669D01*
X45558000Y-150084669D01*
X45558000Y-149812115D01*
X45553525Y-149796876D01*
X45552135Y-149795671D01*
X45544452Y-149794000D01*
X43747115Y-149794000D01*
X43731876Y-149798475D01*
X43730671Y-149799865D01*
X43729000Y-149807548D01*
X43729000Y-150529884D01*
X43221000Y-150529884D01*
X43221000Y-149812115D01*
X43216525Y-149796876D01*
X43215135Y-149795671D01*
X43207452Y-149794000D01*
X41410116Y-149794000D01*
X41394877Y-149798475D01*
X41393672Y-149799865D01*
X41392001Y-149807548D01*
X41392001Y-150084669D01*
X41008500Y-150084669D01*
X41008500Y-149267885D01*
X41392000Y-149267885D01*
X41396475Y-149283124D01*
X41397865Y-149284329D01*
X41405548Y-149286000D01*
X43202885Y-149286000D01*
X43218124Y-149281525D01*
X43219329Y-149280135D01*
X43221000Y-149272452D01*
X43221000Y-149267885D01*
X43729000Y-149267885D01*
X43733475Y-149283124D01*
X43734865Y-149284329D01*
X43742548Y-149286000D01*
X45539884Y-149286000D01*
X45555123Y-149281525D01*
X45556328Y-149280135D01*
X45557999Y-149272452D01*
X45557999Y-149267885D01*
X46442000Y-149267885D01*
X46446475Y-149283124D01*
X46447865Y-149284329D01*
X46455548Y-149286000D01*
X48252885Y-149286000D01*
X48268124Y-149281525D01*
X48269329Y-149280135D01*
X48271000Y-149272452D01*
X48271000Y-149267885D01*
X48779000Y-149267885D01*
X48783475Y-149283124D01*
X48784865Y-149284329D01*
X48792548Y-149286000D01*
X50589884Y-149286000D01*
X50605123Y-149281525D01*
X50606328Y-149280135D01*
X50607999Y-149272452D01*
X50607999Y-148995331D01*
X50607629Y-148988510D01*
X50602105Y-148937648D01*
X50598479Y-148922396D01*
X50553324Y-148801946D01*
X50544786Y-148786351D01*
X50468285Y-148684276D01*
X50455724Y-148671715D01*
X50353649Y-148595214D01*
X50338054Y-148586676D01*
X50217606Y-148541522D01*
X50202351Y-148537895D01*
X50151486Y-148532369D01*
X50144672Y-148532000D01*
X48797115Y-148532000D01*
X48781876Y-148536475D01*
X48780671Y-148537865D01*
X48779000Y-148545548D01*
X48779000Y-149267885D01*
X48271000Y-149267885D01*
X48271000Y-148550116D01*
X48266525Y-148534877D01*
X48265135Y-148533672D01*
X48257452Y-148532001D01*
X46905331Y-148532001D01*
X46898510Y-148532371D01*
X46847648Y-148537895D01*
X46832396Y-148541521D01*
X46711946Y-148586676D01*
X46696351Y-148595214D01*
X46594276Y-148671715D01*
X46581715Y-148684276D01*
X46505214Y-148786351D01*
X46496676Y-148801946D01*
X46451522Y-148922394D01*
X46447895Y-148937649D01*
X46442369Y-148988514D01*
X46442000Y-148995328D01*
X46442000Y-149267885D01*
X45557999Y-149267885D01*
X45557999Y-148995331D01*
X45557629Y-148988510D01*
X45552105Y-148937648D01*
X45548479Y-148922396D01*
X45503324Y-148801946D01*
X45494786Y-148786351D01*
X45418285Y-148684276D01*
X45405724Y-148671715D01*
X45303649Y-148595214D01*
X45288054Y-148586676D01*
X45167606Y-148541522D01*
X45152351Y-148537895D01*
X45101486Y-148532369D01*
X45094672Y-148532000D01*
X43747115Y-148532000D01*
X43731876Y-148536475D01*
X43730671Y-148537865D01*
X43729000Y-148545548D01*
X43729000Y-149267885D01*
X43221000Y-149267885D01*
X43221000Y-148550116D01*
X43216525Y-148534877D01*
X43215135Y-148533672D01*
X43207452Y-148532001D01*
X41855331Y-148532001D01*
X41848510Y-148532371D01*
X41797648Y-148537895D01*
X41782396Y-148541521D01*
X41661946Y-148586676D01*
X41646351Y-148595214D01*
X41544276Y-148671715D01*
X41531715Y-148684276D01*
X41455214Y-148786351D01*
X41446676Y-148801946D01*
X41401522Y-148922394D01*
X41397895Y-148937649D01*
X41392369Y-148988514D01*
X41392000Y-148995328D01*
X41392000Y-149267885D01*
X41008500Y-149267885D01*
X41008500Y-147544669D01*
X41392001Y-147544669D01*
X41392371Y-147551490D01*
X41397895Y-147602352D01*
X41401521Y-147617604D01*
X41446676Y-147738054D01*
X41455214Y-147753649D01*
X41531715Y-147855724D01*
X41544276Y-147868285D01*
X41646351Y-147944786D01*
X41661946Y-147953324D01*
X41782394Y-147998478D01*
X41797649Y-148002105D01*
X41848514Y-148007631D01*
X41855328Y-148008000D01*
X43202885Y-148008000D01*
X43218124Y-148003525D01*
X43219329Y-148002135D01*
X43221000Y-147994452D01*
X43221000Y-147989884D01*
X43729000Y-147989884D01*
X43733475Y-148005123D01*
X43734865Y-148006328D01*
X43742548Y-148007999D01*
X45094669Y-148007999D01*
X45101490Y-148007629D01*
X45152352Y-148002105D01*
X45167604Y-147998479D01*
X45288054Y-147953324D01*
X45303649Y-147944786D01*
X45405724Y-147868285D01*
X45418285Y-147855724D01*
X45494786Y-147753649D01*
X45503324Y-147738054D01*
X45548478Y-147617606D01*
X45552105Y-147602351D01*
X45557631Y-147551486D01*
X45558000Y-147544672D01*
X45558000Y-147544669D01*
X46442001Y-147544669D01*
X46442371Y-147551490D01*
X46447895Y-147602352D01*
X46451521Y-147617604D01*
X46496676Y-147738054D01*
X46505214Y-147753649D01*
X46581715Y-147855724D01*
X46594276Y-147868285D01*
X46696351Y-147944786D01*
X46711946Y-147953324D01*
X46832394Y-147998478D01*
X46847649Y-148002105D01*
X46898514Y-148007631D01*
X46905328Y-148008000D01*
X48252885Y-148008000D01*
X48268124Y-148003525D01*
X48269329Y-148002135D01*
X48271000Y-147994452D01*
X48271000Y-147989884D01*
X48779000Y-147989884D01*
X48783475Y-148005123D01*
X48784865Y-148006328D01*
X48792548Y-148007999D01*
X50144669Y-148007999D01*
X50151490Y-148007629D01*
X50202352Y-148002105D01*
X50217604Y-147998479D01*
X50338054Y-147953324D01*
X50353649Y-147944786D01*
X50455724Y-147868285D01*
X50468285Y-147855724D01*
X50544786Y-147753649D01*
X50553324Y-147738054D01*
X50598478Y-147617606D01*
X50602105Y-147602351D01*
X50607631Y-147551486D01*
X50608000Y-147544672D01*
X50608000Y-147272115D01*
X50603525Y-147256876D01*
X50602135Y-147255671D01*
X50594452Y-147254000D01*
X48797115Y-147254000D01*
X48781876Y-147258475D01*
X48780671Y-147259865D01*
X48779000Y-147267548D01*
X48779000Y-147989884D01*
X48271000Y-147989884D01*
X48271000Y-147272115D01*
X48266525Y-147256876D01*
X48265135Y-147255671D01*
X48257452Y-147254000D01*
X46460116Y-147254000D01*
X46444877Y-147258475D01*
X46443672Y-147259865D01*
X46442001Y-147267548D01*
X46442001Y-147544669D01*
X45558000Y-147544669D01*
X45558000Y-147272115D01*
X45553525Y-147256876D01*
X45552135Y-147255671D01*
X45544452Y-147254000D01*
X43747115Y-147254000D01*
X43731876Y-147258475D01*
X43730671Y-147259865D01*
X43729000Y-147267548D01*
X43729000Y-147989884D01*
X43221000Y-147989884D01*
X43221000Y-147272115D01*
X43216525Y-147256876D01*
X43215135Y-147255671D01*
X43207452Y-147254000D01*
X41410116Y-147254000D01*
X41394877Y-147258475D01*
X41393672Y-147259865D01*
X41392001Y-147267548D01*
X41392001Y-147544669D01*
X41008500Y-147544669D01*
X41008500Y-146727885D01*
X41392000Y-146727885D01*
X41396475Y-146743124D01*
X41397865Y-146744329D01*
X41405548Y-146746000D01*
X43202885Y-146746000D01*
X43218124Y-146741525D01*
X43219329Y-146740135D01*
X43221000Y-146732452D01*
X43221000Y-146727885D01*
X43729000Y-146727885D01*
X43733475Y-146743124D01*
X43734865Y-146744329D01*
X43742548Y-146746000D01*
X45539884Y-146746000D01*
X45555123Y-146741525D01*
X45556328Y-146740135D01*
X45557999Y-146732452D01*
X45557999Y-146727885D01*
X46442000Y-146727885D01*
X46446475Y-146743124D01*
X46447865Y-146744329D01*
X46455548Y-146746000D01*
X48252885Y-146746000D01*
X48268124Y-146741525D01*
X48269329Y-146740135D01*
X48271000Y-146732452D01*
X48271000Y-146727885D01*
X48779000Y-146727885D01*
X48783475Y-146743124D01*
X48784865Y-146744329D01*
X48792548Y-146746000D01*
X50589884Y-146746000D01*
X50605123Y-146741525D01*
X50606328Y-146740135D01*
X50607999Y-146732452D01*
X50607999Y-146455331D01*
X50607629Y-146448510D01*
X50602105Y-146397648D01*
X50598479Y-146382396D01*
X50553324Y-146261946D01*
X50544786Y-146246351D01*
X50468285Y-146144276D01*
X50455724Y-146131715D01*
X50353649Y-146055214D01*
X50338054Y-146046676D01*
X50217606Y-146001522D01*
X50202351Y-145997895D01*
X50151486Y-145992369D01*
X50144672Y-145992000D01*
X48797115Y-145992000D01*
X48781876Y-145996475D01*
X48780671Y-145997865D01*
X48779000Y-146005548D01*
X48779000Y-146727885D01*
X48271000Y-146727885D01*
X48271000Y-146010116D01*
X48266525Y-145994877D01*
X48265135Y-145993672D01*
X48257452Y-145992001D01*
X46905331Y-145992001D01*
X46898510Y-145992371D01*
X46847648Y-145997895D01*
X46832396Y-146001521D01*
X46711946Y-146046676D01*
X46696351Y-146055214D01*
X46594276Y-146131715D01*
X46581715Y-146144276D01*
X46505214Y-146246351D01*
X46496676Y-146261946D01*
X46451522Y-146382394D01*
X46447895Y-146397649D01*
X46442369Y-146448514D01*
X46442000Y-146455328D01*
X46442000Y-146727885D01*
X45557999Y-146727885D01*
X45557999Y-146455331D01*
X45557629Y-146448510D01*
X45552105Y-146397648D01*
X45548479Y-146382396D01*
X45503324Y-146261946D01*
X45494786Y-146246351D01*
X45418285Y-146144276D01*
X45405724Y-146131715D01*
X45303649Y-146055214D01*
X45288054Y-146046676D01*
X45167606Y-146001522D01*
X45152351Y-145997895D01*
X45101486Y-145992369D01*
X45094672Y-145992000D01*
X43747115Y-145992000D01*
X43731876Y-145996475D01*
X43730671Y-145997865D01*
X43729000Y-146005548D01*
X43729000Y-146727885D01*
X43221000Y-146727885D01*
X43221000Y-146010116D01*
X43216525Y-145994877D01*
X43215135Y-145993672D01*
X43207452Y-145992001D01*
X41855331Y-145992001D01*
X41848510Y-145992371D01*
X41797648Y-145997895D01*
X41782396Y-146001521D01*
X41661946Y-146046676D01*
X41646351Y-146055214D01*
X41544276Y-146131715D01*
X41531715Y-146144276D01*
X41455214Y-146246351D01*
X41446676Y-146261946D01*
X41401522Y-146382394D01*
X41397895Y-146397649D01*
X41392369Y-146448514D01*
X41392000Y-146455328D01*
X41392000Y-146727885D01*
X41008500Y-146727885D01*
X41008500Y-145004669D01*
X41392001Y-145004669D01*
X41392371Y-145011490D01*
X41397895Y-145062352D01*
X41401521Y-145077604D01*
X41446676Y-145198054D01*
X41455214Y-145213649D01*
X41531715Y-145315724D01*
X41544276Y-145328285D01*
X41646351Y-145404786D01*
X41661946Y-145413324D01*
X41782394Y-145458478D01*
X41797649Y-145462105D01*
X41848514Y-145467631D01*
X41855328Y-145468000D01*
X43202885Y-145468000D01*
X43218124Y-145463525D01*
X43219329Y-145462135D01*
X43221000Y-145454452D01*
X43221000Y-145449884D01*
X43729000Y-145449884D01*
X43733475Y-145465123D01*
X43734865Y-145466328D01*
X43742548Y-145467999D01*
X45094669Y-145467999D01*
X45101490Y-145467629D01*
X45152352Y-145462105D01*
X45167604Y-145458479D01*
X45288054Y-145413324D01*
X45303649Y-145404786D01*
X45405724Y-145328285D01*
X45418285Y-145315724D01*
X45494786Y-145213649D01*
X45503324Y-145198054D01*
X45548478Y-145077606D01*
X45552105Y-145062351D01*
X45557631Y-145011486D01*
X45558000Y-145004672D01*
X45558000Y-145004669D01*
X46442001Y-145004669D01*
X46442371Y-145011490D01*
X46447895Y-145062352D01*
X46451521Y-145077604D01*
X46496676Y-145198054D01*
X46505214Y-145213649D01*
X46581715Y-145315724D01*
X46594276Y-145328285D01*
X46696351Y-145404786D01*
X46711946Y-145413324D01*
X46832394Y-145458478D01*
X46847649Y-145462105D01*
X46898514Y-145467631D01*
X46905328Y-145468000D01*
X48252885Y-145468000D01*
X48268124Y-145463525D01*
X48269329Y-145462135D01*
X48271000Y-145454452D01*
X48271000Y-145449884D01*
X48779000Y-145449884D01*
X48783475Y-145465123D01*
X48784865Y-145466328D01*
X48792548Y-145467999D01*
X50144669Y-145467999D01*
X50151490Y-145467629D01*
X50202352Y-145462105D01*
X50217604Y-145458479D01*
X50338054Y-145413324D01*
X50353649Y-145404786D01*
X50455724Y-145328285D01*
X50468285Y-145315724D01*
X50544786Y-145213649D01*
X50553324Y-145198054D01*
X50598478Y-145077606D01*
X50602105Y-145062351D01*
X50607631Y-145011486D01*
X50608000Y-145004672D01*
X50608000Y-144732115D01*
X50606758Y-144727885D01*
X51392000Y-144727885D01*
X51396475Y-144743124D01*
X51397865Y-144744329D01*
X51405548Y-144746000D01*
X52927885Y-144746000D01*
X52943124Y-144741525D01*
X52944329Y-144740135D01*
X52946000Y-144732452D01*
X52946000Y-143710116D01*
X52941525Y-143694877D01*
X52940135Y-143693672D01*
X52932452Y-143692001D01*
X52102905Y-143692001D01*
X52096386Y-143692338D01*
X52000794Y-143702257D01*
X51987400Y-143705149D01*
X51833216Y-143756588D01*
X51820038Y-143762761D01*
X51682193Y-143848063D01*
X51670792Y-143857099D01*
X51556261Y-143971829D01*
X51547249Y-143983240D01*
X51462184Y-144121243D01*
X51456037Y-144134424D01*
X51404862Y-144288710D01*
X51401995Y-144302086D01*
X51392328Y-144396438D01*
X51392000Y-144402854D01*
X51392000Y-144727885D01*
X50606758Y-144727885D01*
X50603525Y-144716876D01*
X50602135Y-144715671D01*
X50594452Y-144714000D01*
X48797115Y-144714000D01*
X48781876Y-144718475D01*
X48780671Y-144719865D01*
X48779000Y-144727548D01*
X48779000Y-145449884D01*
X48271000Y-145449884D01*
X48271000Y-144732115D01*
X48266525Y-144716876D01*
X48265135Y-144715671D01*
X48257452Y-144714000D01*
X46460116Y-144714000D01*
X46444877Y-144718475D01*
X46443672Y-144719865D01*
X46442001Y-144727548D01*
X46442001Y-145004669D01*
X45558000Y-145004669D01*
X45558000Y-144732115D01*
X45553525Y-144716876D01*
X45552135Y-144715671D01*
X45544452Y-144714000D01*
X43747115Y-144714000D01*
X43731876Y-144718475D01*
X43730671Y-144719865D01*
X43729000Y-144727548D01*
X43729000Y-145449884D01*
X43221000Y-145449884D01*
X43221000Y-144732115D01*
X43216525Y-144716876D01*
X43215135Y-144715671D01*
X43207452Y-144714000D01*
X41410116Y-144714000D01*
X41394877Y-144718475D01*
X41393672Y-144719865D01*
X41392001Y-144727548D01*
X41392001Y-145004669D01*
X41008500Y-145004669D01*
X41008500Y-144187885D01*
X41392000Y-144187885D01*
X41396475Y-144203124D01*
X41397865Y-144204329D01*
X41405548Y-144206000D01*
X43202885Y-144206000D01*
X43218124Y-144201525D01*
X43219329Y-144200135D01*
X43221000Y-144192452D01*
X43221000Y-144187885D01*
X43729000Y-144187885D01*
X43733475Y-144203124D01*
X43734865Y-144204329D01*
X43742548Y-144206000D01*
X45539884Y-144206000D01*
X45555123Y-144201525D01*
X45556328Y-144200135D01*
X45557999Y-144192452D01*
X45557999Y-144187885D01*
X46442000Y-144187885D01*
X46446475Y-144203124D01*
X46447865Y-144204329D01*
X46455548Y-144206000D01*
X48252885Y-144206000D01*
X48268124Y-144201525D01*
X48269329Y-144200135D01*
X48271000Y-144192452D01*
X48271000Y-144187885D01*
X48779000Y-144187885D01*
X48783475Y-144203124D01*
X48784865Y-144204329D01*
X48792548Y-144206000D01*
X50589884Y-144206000D01*
X50605123Y-144201525D01*
X50606328Y-144200135D01*
X50607999Y-144192452D01*
X50607999Y-143915331D01*
X50607629Y-143908510D01*
X50602105Y-143857648D01*
X50598479Y-143842396D01*
X50553324Y-143721946D01*
X50544786Y-143706351D01*
X50468285Y-143604276D01*
X50455724Y-143591715D01*
X50353649Y-143515214D01*
X50338054Y-143506676D01*
X50217606Y-143461522D01*
X50202351Y-143457895D01*
X50151486Y-143452369D01*
X50144672Y-143452000D01*
X48797115Y-143452000D01*
X48781876Y-143456475D01*
X48780671Y-143457865D01*
X48779000Y-143465548D01*
X48779000Y-144187885D01*
X48271000Y-144187885D01*
X48271000Y-143470116D01*
X48266525Y-143454877D01*
X48265135Y-143453672D01*
X48257452Y-143452001D01*
X46905331Y-143452001D01*
X46898510Y-143452371D01*
X46847648Y-143457895D01*
X46832396Y-143461521D01*
X46711946Y-143506676D01*
X46696351Y-143515214D01*
X46594276Y-143591715D01*
X46581715Y-143604276D01*
X46505214Y-143706351D01*
X46496676Y-143721946D01*
X46451522Y-143842394D01*
X46447895Y-143857649D01*
X46442369Y-143908514D01*
X46442000Y-143915328D01*
X46442000Y-144187885D01*
X45557999Y-144187885D01*
X45557999Y-143915331D01*
X45557629Y-143908510D01*
X45552105Y-143857648D01*
X45548479Y-143842396D01*
X45503324Y-143721946D01*
X45494786Y-143706351D01*
X45418285Y-143604276D01*
X45405724Y-143591715D01*
X45303649Y-143515214D01*
X45288054Y-143506676D01*
X45167606Y-143461522D01*
X45152351Y-143457895D01*
X45101486Y-143452369D01*
X45094672Y-143452000D01*
X43747115Y-143452000D01*
X43731876Y-143456475D01*
X43730671Y-143457865D01*
X43729000Y-143465548D01*
X43729000Y-144187885D01*
X43221000Y-144187885D01*
X43221000Y-143470116D01*
X43216525Y-143454877D01*
X43215135Y-143453672D01*
X43207452Y-143452001D01*
X41855331Y-143452001D01*
X41848510Y-143452371D01*
X41797648Y-143457895D01*
X41782396Y-143461521D01*
X41661946Y-143506676D01*
X41646351Y-143515214D01*
X41544276Y-143591715D01*
X41531715Y-143604276D01*
X41455214Y-143706351D01*
X41446676Y-143721946D01*
X41401522Y-143842394D01*
X41397895Y-143857649D01*
X41392369Y-143908514D01*
X41392000Y-143915328D01*
X41392000Y-144187885D01*
X41008500Y-144187885D01*
X41008500Y-139523557D01*
X41028502Y-139455436D01*
X41082158Y-139408943D01*
X41152432Y-139398839D01*
X41217012Y-139428333D01*
X41240882Y-139456038D01*
X41309059Y-139563468D01*
X41320650Y-139586743D01*
X41324385Y-139596705D01*
X41329765Y-139603884D01*
X41329767Y-139603887D01*
X41339152Y-139616409D01*
X41411739Y-139713261D01*
X41528295Y-139800615D01*
X41531700Y-139801891D01*
X41556008Y-139820110D01*
X42432304Y-140696407D01*
X42466328Y-140758717D01*
X42461263Y-140829533D01*
X42418716Y-140886368D01*
X42352196Y-140911179D01*
X42343207Y-140911500D01*
X41851866Y-140911500D01*
X41789684Y-140918255D01*
X41653295Y-140969385D01*
X41536739Y-141056739D01*
X41449385Y-141173295D01*
X41398255Y-141309684D01*
X41391500Y-141371866D01*
X41391500Y-142468134D01*
X41398255Y-142530316D01*
X41449385Y-142666705D01*
X41536739Y-142783261D01*
X41653295Y-142870615D01*
X41789684Y-142921745D01*
X41851866Y-142928500D01*
X45098134Y-142928500D01*
X45160316Y-142921745D01*
X45296705Y-142870615D01*
X45386024Y-142803674D01*
X45452530Y-142778826D01*
X45461589Y-142778500D01*
X46538411Y-142778500D01*
X46606532Y-142798502D01*
X46613975Y-142803674D01*
X46703295Y-142870615D01*
X46839684Y-142921745D01*
X46901866Y-142928500D01*
X50148134Y-142928500D01*
X50210316Y-142921745D01*
X50346705Y-142870615D01*
X50463261Y-142783261D01*
X50550615Y-142666705D01*
X50601745Y-142530316D01*
X50608500Y-142468134D01*
X50608500Y-141371866D01*
X50601745Y-141309684D01*
X50550615Y-141173295D01*
X50463261Y-141056739D01*
X50346705Y-140969385D01*
X50210316Y-140918255D01*
X50148134Y-140911500D01*
X46901866Y-140911500D01*
X46839684Y-140918255D01*
X46703295Y-140969385D01*
X46613976Y-141036326D01*
X46547470Y-141061174D01*
X46538411Y-141061500D01*
X45461589Y-141061500D01*
X45393468Y-141041498D01*
X45386024Y-141036326D01*
X45296705Y-140969385D01*
X45160316Y-140918255D01*
X45098134Y-140911500D01*
X44459500Y-140911500D01*
X44391379Y-140891498D01*
X44344886Y-140837842D01*
X44333500Y-140785500D01*
X44333500Y-140566390D01*
X44333942Y-140555847D01*
X44337733Y-140510699D01*
X44338304Y-140503901D01*
X44336599Y-140491120D01*
X44327563Y-140423398D01*
X44327193Y-140420343D01*
X44321507Y-140368011D01*
X44318417Y-140339563D01*
X44316242Y-140333099D01*
X44315522Y-140329824D01*
X44315452Y-140329428D01*
X44315329Y-140329004D01*
X44314538Y-140325784D01*
X44313634Y-140319011D01*
X44285851Y-140242677D01*
X44284844Y-140239802D01*
X44275119Y-140210905D01*
X44258922Y-140162777D01*
X44255404Y-140156923D01*
X44254015Y-140153916D01*
X44253848Y-140153511D01*
X44253643Y-140153135D01*
X44252173Y-140150148D01*
X44249838Y-140143732D01*
X44206270Y-140075080D01*
X44204745Y-140072611D01*
X44162853Y-140002891D01*
X44158166Y-139997934D01*
X44156149Y-139995277D01*
X44155631Y-139994531D01*
X44152656Y-139990598D01*
X44149891Y-139986241D01*
X44146070Y-139981968D01*
X44092092Y-139927990D01*
X44089638Y-139925468D01*
X44039381Y-139872323D01*
X44034692Y-139867364D01*
X44029044Y-139863526D01*
X44023852Y-139859107D01*
X44024192Y-139858707D01*
X44016200Y-139852098D01*
X42695112Y-138531009D01*
X42676891Y-138506698D01*
X42675615Y-138503295D01*
X42588261Y-138386739D01*
X42471705Y-138299385D01*
X42458492Y-138294432D01*
X42342709Y-138251026D01*
X42342705Y-138251025D01*
X42335316Y-138248255D01*
X42327468Y-138247402D01*
X42319778Y-138245574D01*
X42319803Y-138245469D01*
X42301417Y-138241157D01*
X42298186Y-138239553D01*
X42117199Y-138194428D01*
X42110381Y-138194238D01*
X42110377Y-138194237D01*
X42029425Y-138191976D01*
X41930743Y-138189219D01*
X41904438Y-138194237D01*
X41754226Y-138222891D01*
X41754221Y-138222893D01*
X41747519Y-138224171D01*
X41741242Y-138226861D01*
X41741240Y-138226862D01*
X41717682Y-138236959D01*
X41681650Y-138246412D01*
X41680719Y-138246513D01*
X41672540Y-138247401D01*
X41672536Y-138247402D01*
X41664684Y-138248255D01*
X41528295Y-138299385D01*
X41411739Y-138386739D01*
X41324385Y-138503295D01*
X41321233Y-138511702D01*
X41316922Y-138519577D01*
X41316173Y-138519167D01*
X41307923Y-138534569D01*
X41304164Y-138539781D01*
X41299597Y-138544853D01*
X41255530Y-138622425D01*
X41244056Y-138642622D01*
X41193017Y-138691973D01*
X41123398Y-138705895D01*
X41057305Y-138679969D01*
X41015720Y-138622425D01*
X41008500Y-138580385D01*
X41008500Y-137920000D01*
X43421634Y-137920000D01*
X43441066Y-138166911D01*
X43442220Y-138171718D01*
X43442221Y-138171724D01*
X43474164Y-138304771D01*
X43498885Y-138407742D01*
X43500778Y-138412313D01*
X43500779Y-138412315D01*
X43587810Y-138622425D01*
X43593666Y-138636563D01*
X43723075Y-138847740D01*
X43883927Y-139036073D01*
X44072260Y-139196925D01*
X44283437Y-139326334D01*
X44288007Y-139328227D01*
X44288011Y-139328229D01*
X44421667Y-139383591D01*
X44512258Y-139421115D01*
X44597170Y-139441501D01*
X44748276Y-139477779D01*
X44748282Y-139477780D01*
X44753089Y-139478934D01*
X45000000Y-139498366D01*
X45246911Y-139478934D01*
X45251718Y-139477780D01*
X45251724Y-139477779D01*
X45402830Y-139441501D01*
X45487742Y-139421115D01*
X45578333Y-139383591D01*
X45711989Y-139328229D01*
X45711993Y-139328227D01*
X45716563Y-139326334D01*
X45927740Y-139196925D01*
X46116073Y-139036073D01*
X46276925Y-138847740D01*
X46406334Y-138636563D01*
X46412191Y-138622425D01*
X46499221Y-138412315D01*
X46499222Y-138412313D01*
X46501115Y-138407742D01*
X46525836Y-138304771D01*
X46557779Y-138171724D01*
X46557780Y-138171718D01*
X46558934Y-138166911D01*
X46578366Y-137920000D01*
X46558934Y-137673089D01*
X46557780Y-137668282D01*
X46557779Y-137668276D01*
X46518313Y-137503891D01*
X46501115Y-137432258D01*
X46484094Y-137391166D01*
X46408229Y-137208011D01*
X46408227Y-137208007D01*
X46406334Y-137203437D01*
X46276925Y-136992260D01*
X46116073Y-136803927D01*
X45927740Y-136643075D01*
X45716563Y-136513666D01*
X45711993Y-136511773D01*
X45711989Y-136511771D01*
X45492315Y-136420779D01*
X45492313Y-136420778D01*
X45487742Y-136418885D01*
X45402830Y-136398499D01*
X45251724Y-136362221D01*
X45251718Y-136362220D01*
X45246911Y-136361066D01*
X45000000Y-136341634D01*
X44753089Y-136361066D01*
X44748282Y-136362220D01*
X44748276Y-136362221D01*
X44597170Y-136398499D01*
X44512258Y-136418885D01*
X44507687Y-136420778D01*
X44507685Y-136420779D01*
X44288011Y-136511771D01*
X44288007Y-136511773D01*
X44283437Y-136513666D01*
X44072260Y-136643075D01*
X43883927Y-136803927D01*
X43723075Y-136992260D01*
X43593666Y-137203437D01*
X43591773Y-137208007D01*
X43591771Y-137208011D01*
X43515906Y-137391166D01*
X43498885Y-137432258D01*
X43481687Y-137503891D01*
X43442221Y-137668276D01*
X43442220Y-137668282D01*
X43441066Y-137673089D01*
X43421634Y-137920000D01*
X41008500Y-137920000D01*
X41008500Y-137421097D01*
X41028502Y-137352976D01*
X41082158Y-137306483D01*
X41152432Y-137296379D01*
X41217012Y-137325873D01*
X41242503Y-137356202D01*
X41312147Y-137472109D01*
X41311402Y-137472557D01*
X41316016Y-137480923D01*
X41316923Y-137480427D01*
X41321235Y-137488302D01*
X41324385Y-137496705D01*
X41411739Y-137613261D01*
X41528295Y-137700615D01*
X41664684Y-137751745D01*
X41686058Y-137754067D01*
X41719243Y-137762341D01*
X41767771Y-137781751D01*
X41774498Y-137782865D01*
X41774503Y-137782866D01*
X41945058Y-137811101D01*
X41945061Y-137811101D01*
X41951795Y-137812216D01*
X41958611Y-137811859D01*
X41958615Y-137811859D01*
X42103475Y-137804266D01*
X42138067Y-137802453D01*
X42303827Y-137756796D01*
X42323680Y-137753009D01*
X42327459Y-137752599D01*
X42327463Y-137752598D01*
X42335316Y-137751745D01*
X42471705Y-137700615D01*
X42588261Y-137613261D01*
X42675615Y-137496705D01*
X42681494Y-137481023D01*
X42699380Y-137448724D01*
X42734516Y-137402769D01*
X42734519Y-137402765D01*
X42738660Y-137397348D01*
X42817490Y-137228296D01*
X42858180Y-137046260D01*
X42858500Y-137040537D01*
X42858500Y-135759500D01*
X42878502Y-135691379D01*
X42932158Y-135644886D01*
X42984500Y-135633500D01*
X43183610Y-135633500D01*
X43194152Y-135633942D01*
X43246099Y-135638304D01*
X43252859Y-135637402D01*
X43252861Y-135637402D01*
X43326602Y-135627563D01*
X43329657Y-135627193D01*
X43361889Y-135623691D01*
X43410437Y-135618417D01*
X43416901Y-135616242D01*
X43420176Y-135615522D01*
X43420572Y-135615452D01*
X43420996Y-135615329D01*
X43424216Y-135614538D01*
X43430989Y-135613634D01*
X43507323Y-135585851D01*
X43510198Y-135584844D01*
X43528773Y-135578593D01*
X43587223Y-135558922D01*
X43593077Y-135555404D01*
X43596084Y-135554015D01*
X43596489Y-135553848D01*
X43596865Y-135553643D01*
X43599852Y-135552173D01*
X43606268Y-135549838D01*
X43674920Y-135506270D01*
X43677389Y-135504745D01*
X43747109Y-135462853D01*
X43752066Y-135458166D01*
X43754723Y-135456149D01*
X43755469Y-135455631D01*
X43759402Y-135452656D01*
X43763759Y-135449891D01*
X43768032Y-135446070D01*
X43822010Y-135392092D01*
X43824532Y-135389638D01*
X43877680Y-135339379D01*
X43877682Y-135339377D01*
X43882636Y-135334692D01*
X43886471Y-135329050D01*
X43890894Y-135323852D01*
X43891290Y-135324189D01*
X43897904Y-135316198D01*
X44300719Y-134913383D01*
X44363031Y-134879357D01*
X44433846Y-134884422D01*
X44490682Y-134926969D01*
X44496958Y-134936174D01*
X44551522Y-135024348D01*
X44676697Y-135149305D01*
X44682927Y-135153145D01*
X44682928Y-135153146D01*
X44820288Y-135237816D01*
X44827262Y-135242115D01*
X44907005Y-135268564D01*
X44988611Y-135295632D01*
X44988613Y-135295632D01*
X44995139Y-135297797D01*
X45001975Y-135298497D01*
X45001978Y-135298498D01*
X45045031Y-135302909D01*
X45099600Y-135308500D01*
X47300400Y-135308500D01*
X47303646Y-135308163D01*
X47303650Y-135308163D01*
X47399308Y-135298238D01*
X47399312Y-135298237D01*
X47406166Y-135297526D01*
X47412702Y-135295345D01*
X47412704Y-135295345D01*
X47544806Y-135251272D01*
X47573946Y-135241550D01*
X47724348Y-135148478D01*
X47849305Y-135023303D01*
X47893040Y-134952352D01*
X47945811Y-134904860D01*
X48015883Y-134893436D01*
X48081006Y-134921710D01*
X48107443Y-134952166D01*
X48148063Y-135017807D01*
X48157099Y-135029208D01*
X48271829Y-135143739D01*
X48283240Y-135152751D01*
X48421243Y-135237816D01*
X48434424Y-135243963D01*
X48588710Y-135295138D01*
X48602086Y-135298005D01*
X48696438Y-135307672D01*
X48702854Y-135308000D01*
X49527885Y-135308000D01*
X49543124Y-135303525D01*
X49544329Y-135302135D01*
X49546000Y-135294452D01*
X49546000Y-132710116D01*
X49541525Y-132694877D01*
X49540135Y-132693672D01*
X49532452Y-132692001D01*
X48702905Y-132692001D01*
X48696386Y-132692338D01*
X48600794Y-132702257D01*
X48587400Y-132705149D01*
X48433216Y-132756588D01*
X48420038Y-132762761D01*
X48282193Y-132848063D01*
X48270792Y-132857099D01*
X48156261Y-132971829D01*
X48147249Y-132983240D01*
X48107549Y-133047646D01*
X48054777Y-133095139D01*
X47984706Y-133106563D01*
X47919582Y-133078289D01*
X47893145Y-133047833D01*
X47852332Y-132981880D01*
X47848478Y-132975652D01*
X47723303Y-132850695D01*
X47710080Y-132842544D01*
X47578968Y-132761725D01*
X47578966Y-132761724D01*
X47572738Y-132757885D01*
X47492995Y-132731436D01*
X47411389Y-132704368D01*
X47411387Y-132704368D01*
X47404861Y-132702203D01*
X47398025Y-132701503D01*
X47398022Y-132701502D01*
X47354969Y-132697091D01*
X47300400Y-132691500D01*
X45099600Y-132691500D01*
X45096354Y-132691837D01*
X45096350Y-132691837D01*
X45000692Y-132701762D01*
X45000688Y-132701763D01*
X44993834Y-132702474D01*
X44987298Y-132704655D01*
X44987296Y-132704655D01*
X44874376Y-132742328D01*
X44803426Y-132744912D01*
X44742342Y-132708728D01*
X44710518Y-132645264D01*
X44708500Y-132622804D01*
X44708500Y-132128912D01*
X44708792Y-132120342D01*
X44712209Y-132070224D01*
X44712209Y-132070220D01*
X44712725Y-132062648D01*
X44701739Y-131999703D01*
X44700777Y-131993182D01*
X44694015Y-131937304D01*
X44693102Y-131929758D01*
X44690416Y-131922650D01*
X44689779Y-131920056D01*
X44685318Y-131903750D01*
X44684548Y-131901199D01*
X44683242Y-131893716D01*
X44657561Y-131835212D01*
X44655069Y-131829105D01*
X44635173Y-131776452D01*
X44635173Y-131776451D01*
X44632487Y-131769344D01*
X44628184Y-131763083D01*
X44626947Y-131760717D01*
X44618720Y-131745937D01*
X44617369Y-131743652D01*
X44614315Y-131736695D01*
X44609695Y-131730675D01*
X44609692Y-131730669D01*
X44575421Y-131686009D01*
X44571541Y-131680668D01*
X44539661Y-131634280D01*
X44539656Y-131634275D01*
X44535357Y-131628019D01*
X44488829Y-131586564D01*
X44483554Y-131581584D01*
X44119016Y-131217046D01*
X44084990Y-131154734D01*
X44090055Y-131083919D01*
X44132602Y-131027083D01*
X44199122Y-131002272D01*
X44273945Y-131020518D01*
X44279211Y-131023745D01*
X44279218Y-131023748D01*
X44283437Y-131026334D01*
X44288007Y-131028227D01*
X44288011Y-131028229D01*
X44507685Y-131119221D01*
X44512258Y-131121115D01*
X44597170Y-131141501D01*
X44748276Y-131177779D01*
X44748282Y-131177780D01*
X44753089Y-131178934D01*
X45000000Y-131198366D01*
X45246911Y-131178934D01*
X45251718Y-131177780D01*
X45251724Y-131177779D01*
X45402830Y-131141501D01*
X45487742Y-131121115D01*
X45492315Y-131119221D01*
X45711989Y-131028229D01*
X45711993Y-131028227D01*
X45716563Y-131026334D01*
X45927740Y-130896925D01*
X46116073Y-130736073D01*
X46276925Y-130547740D01*
X46406334Y-130336563D01*
X46501115Y-130107742D01*
X46521501Y-130022830D01*
X46557779Y-129871724D01*
X46557780Y-129871718D01*
X46558934Y-129866911D01*
X46578366Y-129620000D01*
X46558934Y-129373089D01*
X46557780Y-129368282D01*
X46557779Y-129368276D01*
X46502270Y-129137070D01*
X46501115Y-129132258D01*
X46406334Y-128903437D01*
X46276925Y-128692260D01*
X46116073Y-128503927D01*
X45927740Y-128343075D01*
X45716563Y-128213666D01*
X45648342Y-128185408D01*
X45593062Y-128140859D01*
X45570641Y-128073496D01*
X45588199Y-128004705D01*
X45640162Y-127956326D01*
X45696561Y-127942999D01*
X46009669Y-127942999D01*
X46016490Y-127942629D01*
X46067352Y-127937105D01*
X46082604Y-127933479D01*
X46203054Y-127888324D01*
X46218649Y-127879786D01*
X46320724Y-127803285D01*
X46333285Y-127790724D01*
X46409786Y-127688649D01*
X46418324Y-127673054D01*
X46463478Y-127552606D01*
X46467105Y-127537351D01*
X46472631Y-127486486D01*
X46473000Y-127479672D01*
X46473000Y-126792115D01*
X46468525Y-126776876D01*
X46467135Y-126775671D01*
X46459452Y-126774000D01*
X43634500Y-126774000D01*
X43566379Y-126753998D01*
X43519886Y-126700342D01*
X43508500Y-126648000D01*
X43508500Y-126392000D01*
X43528502Y-126323879D01*
X43582158Y-126277386D01*
X43634500Y-126266000D01*
X44727885Y-126266000D01*
X44743124Y-126261525D01*
X44744329Y-126260135D01*
X44746000Y-126252452D01*
X44746000Y-125114682D01*
X44766002Y-125046561D01*
X44819658Y-125000068D01*
X44881885Y-124989070D01*
X45000000Y-124998366D01*
X45118115Y-124989070D01*
X45187594Y-125003666D01*
X45238153Y-125053508D01*
X45254000Y-125114682D01*
X45254000Y-126247885D01*
X45258475Y-126263124D01*
X45259865Y-126264329D01*
X45267548Y-126266000D01*
X46454884Y-126266000D01*
X46470123Y-126261525D01*
X46471328Y-126260135D01*
X46472999Y-126252452D01*
X46472999Y-125560331D01*
X46472629Y-125553510D01*
X46467105Y-125502648D01*
X46463479Y-125487396D01*
X46418324Y-125366946D01*
X46409786Y-125351351D01*
X46333285Y-125249276D01*
X46320724Y-125236715D01*
X46218649Y-125160214D01*
X46203054Y-125151676D01*
X46082606Y-125106522D01*
X46067351Y-125102895D01*
X46016486Y-125097369D01*
X46009672Y-125097000D01*
X45696563Y-125097000D01*
X45628442Y-125076998D01*
X45581949Y-125023342D01*
X45571845Y-124953068D01*
X45601339Y-124888488D01*
X45648345Y-124854591D01*
X45711989Y-124828229D01*
X45711993Y-124828227D01*
X45716563Y-124826334D01*
X45927740Y-124696925D01*
X46116073Y-124536073D01*
X46127268Y-124522966D01*
X46210456Y-124425565D01*
X46276925Y-124347740D01*
X46406334Y-124136563D01*
X46473837Y-123973598D01*
X46499221Y-123912315D01*
X46499222Y-123912313D01*
X46501115Y-123907742D01*
X46528879Y-123792097D01*
X46557779Y-123671724D01*
X46557780Y-123671718D01*
X46558934Y-123666911D01*
X46559816Y-123655704D01*
X46585100Y-123589362D01*
X46642238Y-123547222D01*
X46713088Y-123542661D01*
X46774523Y-123576493D01*
X51254595Y-128056566D01*
X51288621Y-128118878D01*
X51291500Y-128145661D01*
X51291500Y-132623261D01*
X51271498Y-132691382D01*
X51217842Y-132737875D01*
X51147568Y-132747979D01*
X51125833Y-132742854D01*
X51011293Y-132704863D01*
X50997914Y-132701995D01*
X50903562Y-132692328D01*
X50897145Y-132692000D01*
X50072115Y-132692000D01*
X50056876Y-132696475D01*
X50055671Y-132697865D01*
X50054000Y-132705548D01*
X50054000Y-135289884D01*
X50058475Y-135305123D01*
X50059865Y-135306328D01*
X50067548Y-135307999D01*
X50897095Y-135307999D01*
X50903614Y-135307662D01*
X50999206Y-135297743D01*
X51012600Y-135294851D01*
X51125624Y-135257144D01*
X51196574Y-135254560D01*
X51257658Y-135290744D01*
X51289482Y-135354208D01*
X51291500Y-135376668D01*
X51291500Y-138654290D01*
X51271498Y-138722411D01*
X51254595Y-138743385D01*
X51163361Y-138834619D01*
X51074528Y-138981301D01*
X51023247Y-139144938D01*
X51016500Y-139218365D01*
X51016501Y-139731634D01*
X51016764Y-139734492D01*
X51016764Y-139734501D01*
X51020026Y-139770004D01*
X51023247Y-139805062D01*
X51025246Y-139811440D01*
X51025246Y-139811441D01*
X51061771Y-139927990D01*
X51074528Y-139968699D01*
X51163361Y-140115381D01*
X51258885Y-140210905D01*
X51292911Y-140273217D01*
X51287846Y-140344032D01*
X51258885Y-140389095D01*
X51163361Y-140484619D01*
X51074528Y-140631301D01*
X51072257Y-140638548D01*
X51072256Y-140638550D01*
X51051483Y-140704836D01*
X51023247Y-140794938D01*
X51016500Y-140868365D01*
X51016501Y-141381634D01*
X51023247Y-141455062D01*
X51074528Y-141618699D01*
X51163361Y-141765381D01*
X51284619Y-141886639D01*
X51431301Y-141975472D01*
X51438548Y-141977743D01*
X51438550Y-141977744D01*
X51504836Y-141998517D01*
X51594938Y-142026753D01*
X51668365Y-142033500D01*
X51671263Y-142033500D01*
X52000860Y-142033499D01*
X52331634Y-142033499D01*
X52334492Y-142033236D01*
X52334501Y-142033236D01*
X52370004Y-142029974D01*
X52405062Y-142026753D01*
X52411447Y-142024752D01*
X52561450Y-141977744D01*
X52561452Y-141977743D01*
X52568699Y-141975472D01*
X52715381Y-141886639D01*
X52726615Y-141875405D01*
X52788927Y-141841379D01*
X52815710Y-141838500D01*
X53548801Y-141838500D01*
X53616922Y-141858502D01*
X53656234Y-141898665D01*
X53723075Y-142007740D01*
X53883927Y-142196073D01*
X54072260Y-142356925D01*
X54283437Y-142486334D01*
X54288007Y-142488227D01*
X54288011Y-142488229D01*
X54407481Y-142537715D01*
X54512258Y-142581115D01*
X54597170Y-142601501D01*
X54748276Y-142637779D01*
X54748282Y-142637780D01*
X54753089Y-142638934D01*
X55000000Y-142658366D01*
X55246911Y-142638934D01*
X55251718Y-142637780D01*
X55251724Y-142637779D01*
X55402830Y-142601501D01*
X55487742Y-142581115D01*
X55592519Y-142537715D01*
X55711989Y-142488229D01*
X55711993Y-142488227D01*
X55716563Y-142486334D01*
X55927740Y-142356925D01*
X56116073Y-142196073D01*
X56276925Y-142007740D01*
X56406334Y-141796563D01*
X56417024Y-141770757D01*
X56499221Y-141572315D01*
X56499222Y-141572313D01*
X56501115Y-141567742D01*
X56545796Y-141381634D01*
X56557779Y-141331724D01*
X56557780Y-141331718D01*
X56558934Y-141326911D01*
X56578366Y-141080000D01*
X56558934Y-140833089D01*
X56557780Y-140828282D01*
X56557779Y-140828276D01*
X56502270Y-140597070D01*
X56501115Y-140592258D01*
X56490400Y-140566390D01*
X56408229Y-140368011D01*
X56408227Y-140368007D01*
X56406334Y-140363437D01*
X56276925Y-140152260D01*
X56116073Y-139963927D01*
X55927740Y-139803075D01*
X55716563Y-139673666D01*
X55711993Y-139671773D01*
X55711989Y-139671771D01*
X55578333Y-139616409D01*
X55523052Y-139571860D01*
X55500631Y-139504497D01*
X55518189Y-139435706D01*
X55570151Y-139387328D01*
X55578333Y-139383591D01*
X55711989Y-139328229D01*
X55711993Y-139328227D01*
X55716563Y-139326334D01*
X55927740Y-139196925D01*
X56116073Y-139036073D01*
X56276925Y-138847740D01*
X56406334Y-138636563D01*
X56412191Y-138622425D01*
X56499221Y-138412315D01*
X56499222Y-138412313D01*
X56501115Y-138407742D01*
X56525836Y-138304771D01*
X56557779Y-138171724D01*
X56557780Y-138171718D01*
X56558934Y-138166911D01*
X56578366Y-137920000D01*
X56558934Y-137673089D01*
X56557780Y-137668282D01*
X56557779Y-137668276D01*
X56518313Y-137503891D01*
X56501115Y-137432258D01*
X56484094Y-137391166D01*
X56408229Y-137208011D01*
X56408227Y-137208007D01*
X56406334Y-137203437D01*
X56276925Y-136992260D01*
X56116073Y-136803927D01*
X55927740Y-136643075D01*
X55716563Y-136513666D01*
X55711993Y-136511773D01*
X55711989Y-136511771D01*
X55492315Y-136420779D01*
X55492313Y-136420778D01*
X55487742Y-136418885D01*
X55402830Y-136398499D01*
X55251724Y-136362221D01*
X55251718Y-136362220D01*
X55246911Y-136361066D01*
X55000000Y-136341634D01*
X54753089Y-136361066D01*
X54748282Y-136362220D01*
X54748276Y-136362221D01*
X54597170Y-136398499D01*
X54512258Y-136418885D01*
X54507687Y-136420778D01*
X54507685Y-136420779D01*
X54288011Y-136511771D01*
X54288007Y-136511773D01*
X54283437Y-136513666D01*
X54072260Y-136643075D01*
X53883927Y-136803927D01*
X53723075Y-136992260D01*
X53593666Y-137203437D01*
X53591773Y-137208007D01*
X53591771Y-137208011D01*
X53515906Y-137391166D01*
X53498885Y-137432258D01*
X53481687Y-137503891D01*
X53442221Y-137668276D01*
X53442220Y-137668282D01*
X53441066Y-137673089D01*
X53421634Y-137920000D01*
X53441066Y-138166911D01*
X53442220Y-138171718D01*
X53442221Y-138171724D01*
X53474164Y-138304771D01*
X53498885Y-138407742D01*
X53500778Y-138412313D01*
X53500779Y-138412315D01*
X53587810Y-138622425D01*
X53593666Y-138636563D01*
X53723075Y-138847740D01*
X53883927Y-139036073D01*
X54072260Y-139196925D01*
X54283437Y-139326334D01*
X54288007Y-139328227D01*
X54288011Y-139328229D01*
X54421667Y-139383591D01*
X54476948Y-139428140D01*
X54499369Y-139495503D01*
X54481811Y-139564294D01*
X54429849Y-139612672D01*
X54421667Y-139616409D01*
X54288011Y-139671771D01*
X54288007Y-139671773D01*
X54283437Y-139673666D01*
X54072260Y-139803075D01*
X53883927Y-139963927D01*
X53723075Y-140152260D01*
X53671368Y-140236639D01*
X53656234Y-140261335D01*
X53603586Y-140308966D01*
X53548801Y-140321500D01*
X52932772Y-140321500D01*
X52864651Y-140301498D01*
X52818158Y-140247842D01*
X52808054Y-140177568D01*
X52833136Y-140118884D01*
X52836639Y-140115381D01*
X52925472Y-139968699D01*
X52938230Y-139927990D01*
X52948517Y-139895164D01*
X52976753Y-139805062D01*
X52983500Y-139731635D01*
X52983499Y-139218366D01*
X52983234Y-139215474D01*
X52977364Y-139151592D01*
X52976753Y-139144938D01*
X52925472Y-138981301D01*
X52836639Y-138834619D01*
X52745405Y-138743385D01*
X52711379Y-138681073D01*
X52708500Y-138654290D01*
X52708500Y-129620000D01*
X53421634Y-129620000D01*
X53441066Y-129866911D01*
X53442220Y-129871718D01*
X53442221Y-129871724D01*
X53478499Y-130022830D01*
X53498885Y-130107742D01*
X53593666Y-130336563D01*
X53723075Y-130547740D01*
X53883927Y-130736073D01*
X54072260Y-130896925D01*
X54283437Y-131026334D01*
X54288007Y-131028227D01*
X54288011Y-131028229D01*
X54507685Y-131119221D01*
X54512258Y-131121115D01*
X54597170Y-131141501D01*
X54748276Y-131177779D01*
X54748282Y-131177780D01*
X54753089Y-131178934D01*
X55000000Y-131198366D01*
X55246911Y-131178934D01*
X55251718Y-131177780D01*
X55251724Y-131177779D01*
X55402830Y-131141501D01*
X55487742Y-131121115D01*
X55492315Y-131119221D01*
X55711989Y-131028229D01*
X55711993Y-131028227D01*
X55716563Y-131026334D01*
X55927740Y-130896925D01*
X56116073Y-130736073D01*
X56276925Y-130547740D01*
X56406334Y-130336563D01*
X56501115Y-130107742D01*
X56521501Y-130022830D01*
X56557779Y-129871724D01*
X56557780Y-129871718D01*
X56558934Y-129866911D01*
X56578366Y-129620000D01*
X56558934Y-129373089D01*
X56557780Y-129368282D01*
X56557779Y-129368276D01*
X56502270Y-129137070D01*
X56501115Y-129132258D01*
X56406334Y-128903437D01*
X56276925Y-128692260D01*
X56116073Y-128503927D01*
X55927740Y-128343075D01*
X55716563Y-128213666D01*
X55648342Y-128185408D01*
X55593062Y-128140859D01*
X55570641Y-128073496D01*
X55588199Y-128004705D01*
X55640162Y-127956326D01*
X55696561Y-127942999D01*
X56009669Y-127942999D01*
X56016490Y-127942629D01*
X56067352Y-127937105D01*
X56082604Y-127933479D01*
X56203054Y-127888324D01*
X56218649Y-127879786D01*
X56320724Y-127803285D01*
X56333285Y-127790724D01*
X56409786Y-127688649D01*
X56418324Y-127673054D01*
X56463478Y-127552606D01*
X56467105Y-127537351D01*
X56472631Y-127486486D01*
X56473000Y-127479672D01*
X56473000Y-126792115D01*
X56468525Y-126776876D01*
X56467135Y-126775671D01*
X56459452Y-126774000D01*
X53545116Y-126774000D01*
X53529877Y-126778475D01*
X53528672Y-126779865D01*
X53527001Y-126787548D01*
X53527001Y-127479669D01*
X53527371Y-127486490D01*
X53532895Y-127537352D01*
X53536521Y-127552604D01*
X53581676Y-127673054D01*
X53590214Y-127688649D01*
X53666715Y-127790724D01*
X53679276Y-127803285D01*
X53781351Y-127879786D01*
X53796946Y-127888324D01*
X53917394Y-127933478D01*
X53932649Y-127937105D01*
X53983514Y-127942631D01*
X53990328Y-127943000D01*
X54303438Y-127943000D01*
X54371559Y-127963002D01*
X54418052Y-128016658D01*
X54428156Y-128086932D01*
X54398662Y-128151512D01*
X54351657Y-128185408D01*
X54323360Y-128197129D01*
X54288011Y-128211771D01*
X54288007Y-128211773D01*
X54283437Y-128213666D01*
X54072260Y-128343075D01*
X53883927Y-128503927D01*
X53723075Y-128692260D01*
X53593666Y-128903437D01*
X53498885Y-129132258D01*
X53497730Y-129137070D01*
X53442221Y-129368276D01*
X53442220Y-129368282D01*
X53441066Y-129373089D01*
X53421634Y-129620000D01*
X52708500Y-129620000D01*
X52708500Y-127828912D01*
X52708792Y-127820342D01*
X52712209Y-127770224D01*
X52712209Y-127770220D01*
X52712725Y-127762648D01*
X52701738Y-127699697D01*
X52700776Y-127693175D01*
X52694014Y-127637298D01*
X52693102Y-127629758D01*
X52690419Y-127622657D01*
X52689778Y-127620048D01*
X52685315Y-127603738D01*
X52684550Y-127601202D01*
X52683243Y-127593716D01*
X52657556Y-127535200D01*
X52655065Y-127529096D01*
X52635173Y-127476452D01*
X52635172Y-127476451D01*
X52632487Y-127469344D01*
X52628183Y-127463081D01*
X52626946Y-127460715D01*
X52618701Y-127445903D01*
X52617368Y-127443649D01*
X52614315Y-127436695D01*
X52575413Y-127385998D01*
X52571541Y-127380668D01*
X52539661Y-127334280D01*
X52539656Y-127334275D01*
X52535357Y-127328019D01*
X52488829Y-127286564D01*
X52483554Y-127281584D01*
X49400065Y-124198095D01*
X49366039Y-124135783D01*
X49371104Y-124064968D01*
X49413651Y-124008132D01*
X49480171Y-123983321D01*
X49489160Y-123983000D01*
X49495438Y-123983000D01*
X49501953Y-123982663D01*
X49594057Y-123973106D01*
X49607456Y-123970212D01*
X49756107Y-123920619D01*
X49769286Y-123914445D01*
X49902173Y-123832212D01*
X49919311Y-123818629D01*
X49920841Y-123820559D01*
X49972880Y-123792097D01*
X50043699Y-123797113D01*
X50080617Y-123820799D01*
X50081372Y-123819843D01*
X50087118Y-123824381D01*
X50092298Y-123829552D01*
X50098528Y-123833392D01*
X50098529Y-123833393D01*
X50230020Y-123914445D01*
X50237899Y-123919302D01*
X50400243Y-123973149D01*
X50407080Y-123973849D01*
X50407082Y-123973850D01*
X50448401Y-123978083D01*
X50501268Y-123983500D01*
X51048732Y-123983500D01*
X51051978Y-123983163D01*
X51051982Y-123983163D01*
X51086083Y-123979625D01*
X51151019Y-123972887D01*
X51304726Y-123921606D01*
X51306324Y-123921073D01*
X51306326Y-123921072D01*
X51313268Y-123918756D01*
X51331067Y-123907742D01*
X51452485Y-123832606D01*
X51458713Y-123828752D01*
X51467607Y-123819843D01*
X51574381Y-123712882D01*
X51579552Y-123707702D01*
X51604696Y-123666911D01*
X51665462Y-123568331D01*
X51665463Y-123568329D01*
X51669302Y-123562101D01*
X51723149Y-123399757D01*
X51733500Y-123298732D01*
X51733500Y-122701268D01*
X51722887Y-122598981D01*
X51668756Y-122436732D01*
X51578752Y-122291287D01*
X51573570Y-122286114D01*
X51573566Y-122286109D01*
X51520483Y-122233119D01*
X51486403Y-122170837D01*
X51483500Y-122143946D01*
X51483500Y-121839500D01*
X51503502Y-121771379D01*
X51557158Y-121724886D01*
X51609500Y-121713500D01*
X53366502Y-121713500D01*
X53368950Y-121713307D01*
X53368958Y-121713307D01*
X53397421Y-121711067D01*
X53397426Y-121711066D01*
X53403831Y-121710562D01*
X53503769Y-121681528D01*
X53555988Y-121666357D01*
X53555990Y-121666356D01*
X53563601Y-121664145D01*
X53619569Y-121631045D01*
X53683706Y-121613500D01*
X54719706Y-121613500D01*
X54787827Y-121633502D01*
X54834320Y-121687158D01*
X54844424Y-121757432D01*
X54814930Y-121822012D01*
X54749120Y-121862019D01*
X54512258Y-121918885D01*
X54507687Y-121920778D01*
X54507685Y-121920779D01*
X54288011Y-122011771D01*
X54288007Y-122011773D01*
X54283437Y-122013666D01*
X54072260Y-122143075D01*
X53883927Y-122303927D01*
X53723075Y-122492260D01*
X53593666Y-122703437D01*
X53591773Y-122708007D01*
X53591771Y-122708011D01*
X53522414Y-122875454D01*
X53498885Y-122932258D01*
X53497730Y-122937070D01*
X53442221Y-123168276D01*
X53442220Y-123168282D01*
X53441066Y-123173089D01*
X53421634Y-123420000D01*
X53441066Y-123666911D01*
X53442220Y-123671718D01*
X53442221Y-123671724D01*
X53471121Y-123792097D01*
X53498885Y-123907742D01*
X53500778Y-123912313D01*
X53500779Y-123912315D01*
X53526164Y-123973598D01*
X53593666Y-124136563D01*
X53723075Y-124347740D01*
X53789544Y-124425565D01*
X53872733Y-124522966D01*
X53883927Y-124536073D01*
X54072260Y-124696925D01*
X54283437Y-124826334D01*
X54288007Y-124828227D01*
X54288011Y-124828229D01*
X54309906Y-124837298D01*
X54351656Y-124854591D01*
X54351658Y-124854592D01*
X54406939Y-124899140D01*
X54429360Y-124966504D01*
X54411802Y-125035295D01*
X54359840Y-125083673D01*
X54303440Y-125097001D01*
X53990331Y-125097001D01*
X53983510Y-125097371D01*
X53932648Y-125102895D01*
X53917396Y-125106521D01*
X53796946Y-125151676D01*
X53781351Y-125160214D01*
X53679276Y-125236715D01*
X53666715Y-125249276D01*
X53590214Y-125351351D01*
X53581676Y-125366946D01*
X53536522Y-125487394D01*
X53532895Y-125502649D01*
X53527369Y-125553514D01*
X53527000Y-125560328D01*
X53527000Y-126247885D01*
X53531475Y-126263124D01*
X53532865Y-126264329D01*
X53540548Y-126266000D01*
X54727885Y-126266000D01*
X54743124Y-126261525D01*
X54744329Y-126260135D01*
X54746000Y-126252452D01*
X54746000Y-125114682D01*
X54766002Y-125046561D01*
X54819658Y-125000068D01*
X54881885Y-124989070D01*
X55000000Y-124998366D01*
X55118115Y-124989070D01*
X55187594Y-125003666D01*
X55238153Y-125053508D01*
X55254000Y-125114682D01*
X55254000Y-126247885D01*
X55258475Y-126263124D01*
X55259865Y-126264329D01*
X55267548Y-126266000D01*
X56454884Y-126266000D01*
X56470123Y-126261525D01*
X56471328Y-126260135D01*
X56472999Y-126252452D01*
X56472999Y-125560331D01*
X56472629Y-125553510D01*
X56467105Y-125502648D01*
X56463479Y-125487396D01*
X56418324Y-125366946D01*
X56409786Y-125351351D01*
X56333285Y-125249276D01*
X56320724Y-125236715D01*
X56218649Y-125160214D01*
X56203054Y-125151676D01*
X56082606Y-125106522D01*
X56067351Y-125102895D01*
X56016486Y-125097369D01*
X56009672Y-125097000D01*
X55696563Y-125097000D01*
X55628442Y-125076998D01*
X55581949Y-125023342D01*
X55571845Y-124953068D01*
X55601339Y-124888488D01*
X55648345Y-124854591D01*
X55711989Y-124828229D01*
X55711993Y-124828227D01*
X55716563Y-124826334D01*
X55927740Y-124696925D01*
X56116073Y-124536073D01*
X56127268Y-124522966D01*
X56210456Y-124425565D01*
X56276925Y-124347740D01*
X56406334Y-124136563D01*
X56473837Y-123973598D01*
X56499221Y-123912315D01*
X56499222Y-123912313D01*
X56501115Y-123907742D01*
X56528879Y-123792097D01*
X56557779Y-123671724D01*
X56557780Y-123671718D01*
X56558934Y-123666911D01*
X56578366Y-123420000D01*
X56558934Y-123173089D01*
X56557780Y-123168282D01*
X56557779Y-123168276D01*
X56502270Y-122937070D01*
X56501115Y-122932258D01*
X56477586Y-122875454D01*
X56408229Y-122708011D01*
X56408227Y-122708007D01*
X56406334Y-122703437D01*
X56276925Y-122492260D01*
X56116073Y-122303927D01*
X55927740Y-122143075D01*
X55716563Y-122013666D01*
X55711993Y-122011773D01*
X55711989Y-122011771D01*
X55492315Y-121920779D01*
X55492313Y-121920778D01*
X55487742Y-121918885D01*
X55250880Y-121862019D01*
X55189311Y-121826667D01*
X55156628Y-121763640D01*
X55163209Y-121692949D01*
X55206963Y-121637038D01*
X55280294Y-121613500D01*
X56749339Y-121613500D01*
X56817460Y-121633502D01*
X56838435Y-121650405D01*
X57254596Y-122066567D01*
X57288621Y-122128879D01*
X57291500Y-122155662D01*
X57291500Y-143454340D01*
X57271498Y-143522461D01*
X57254595Y-143543435D01*
X57143435Y-143654595D01*
X57081123Y-143688621D01*
X57054340Y-143691500D01*
X55699600Y-143691500D01*
X55696354Y-143691837D01*
X55696350Y-143691837D01*
X55600692Y-143701762D01*
X55600688Y-143701763D01*
X55593834Y-143702474D01*
X55587298Y-143704655D01*
X55587296Y-143704655D01*
X55582213Y-143706351D01*
X55426054Y-143758450D01*
X55275652Y-143851522D01*
X55150695Y-143976697D01*
X55146855Y-143982927D01*
X55146854Y-143982928D01*
X55106961Y-144047647D01*
X55054189Y-144095140D01*
X54984117Y-144106564D01*
X54918994Y-144078290D01*
X54892557Y-144047834D01*
X54851937Y-143982193D01*
X54842901Y-143970792D01*
X54728171Y-143856261D01*
X54716760Y-143847249D01*
X54578757Y-143762184D01*
X54565576Y-143756037D01*
X54411290Y-143704862D01*
X54397914Y-143701995D01*
X54303562Y-143692328D01*
X54297145Y-143692000D01*
X53472115Y-143692000D01*
X53456876Y-143696475D01*
X53455671Y-143697865D01*
X53454000Y-143705548D01*
X53454000Y-146289881D01*
X53454585Y-146291873D01*
X53454586Y-146362870D01*
X53416203Y-146422596D01*
X53401210Y-146433753D01*
X53346096Y-146468730D01*
X53343627Y-146470255D01*
X53273907Y-146512147D01*
X53268950Y-146516834D01*
X53266293Y-146518851D01*
X53265547Y-146519369D01*
X53261614Y-146522344D01*
X53257257Y-146525109D01*
X53252984Y-146528930D01*
X53199006Y-146582908D01*
X53196484Y-146585362D01*
X53138380Y-146640308D01*
X53134542Y-146645956D01*
X53130123Y-146651148D01*
X53129723Y-146650808D01*
X53123114Y-146658800D01*
X53021469Y-146760445D01*
X52959157Y-146794471D01*
X52888342Y-146789406D01*
X52833626Y-146749611D01*
X52823178Y-146736428D01*
X52712571Y-146626014D01*
X52701160Y-146617002D01*
X52578283Y-146541260D01*
X52530790Y-146488488D01*
X52519366Y-146418416D01*
X52547640Y-146353293D01*
X52606634Y-146313793D01*
X52644399Y-146308000D01*
X52927885Y-146308000D01*
X52943124Y-146303525D01*
X52944329Y-146302135D01*
X52946000Y-146294452D01*
X52946000Y-145272115D01*
X52941525Y-145256876D01*
X52940135Y-145255671D01*
X52932452Y-145254000D01*
X51410116Y-145254000D01*
X51394877Y-145258475D01*
X51393672Y-145259865D01*
X51392001Y-145267548D01*
X51392001Y-145597095D01*
X51392338Y-145603614D01*
X51402257Y-145699206D01*
X51405149Y-145712600D01*
X51456588Y-145866784D01*
X51462761Y-145879962D01*
X51548063Y-146017807D01*
X51557099Y-146029208D01*
X51671829Y-146143739D01*
X51683243Y-146152753D01*
X51814629Y-146233740D01*
X51862123Y-146286512D01*
X51873547Y-146356583D01*
X51845273Y-146421707D01*
X51786279Y-146461207D01*
X51748514Y-146467000D01*
X51704562Y-146467000D01*
X51698047Y-146467337D01*
X51605943Y-146476894D01*
X51592544Y-146479788D01*
X51443893Y-146529381D01*
X51430714Y-146535555D01*
X51297827Y-146617788D01*
X51286426Y-146626824D01*
X51176014Y-146737429D01*
X51167002Y-146748840D01*
X51084996Y-146881880D01*
X51078849Y-146895061D01*
X51029509Y-147043814D01*
X51026642Y-147057190D01*
X51017328Y-147148097D01*
X51017071Y-147153126D01*
X51021475Y-147168124D01*
X51022865Y-147169329D01*
X51030548Y-147171000D01*
X52128000Y-147171000D01*
X52196121Y-147191002D01*
X52242614Y-147244658D01*
X52254000Y-147297000D01*
X52254000Y-147475723D01*
X52233998Y-147543844D01*
X52217095Y-147564818D01*
X52139818Y-147642095D01*
X52077506Y-147676121D01*
X52050723Y-147679000D01*
X51035115Y-147679000D01*
X51019876Y-147683475D01*
X51018671Y-147684865D01*
X51017000Y-147692548D01*
X51017000Y-147695438D01*
X51017337Y-147701953D01*
X51026894Y-147794057D01*
X51029788Y-147807456D01*
X51079381Y-147956107D01*
X51085555Y-147969286D01*
X51167788Y-148102173D01*
X51181371Y-148119311D01*
X51179441Y-148120841D01*
X51207903Y-148172880D01*
X51202887Y-148243699D01*
X51179201Y-148280617D01*
X51180157Y-148281372D01*
X51175619Y-148287118D01*
X51170448Y-148292298D01*
X51080698Y-148437899D01*
X51026851Y-148600243D01*
X51016500Y-148701268D01*
X51016500Y-149248732D01*
X51016837Y-149251978D01*
X51016837Y-149251982D01*
X51020068Y-149283124D01*
X51027113Y-149351019D01*
X51029295Y-149357559D01*
X51078537Y-149505153D01*
X51081244Y-149513268D01*
X51122646Y-149580173D01*
X51141500Y-149646473D01*
X51141500Y-150996596D01*
X51141869Y-150999992D01*
X51141869Y-150999993D01*
X51150766Y-151081892D01*
X51138238Y-151151775D01*
X51089917Y-151203790D01*
X51025503Y-151221500D01*
X50994156Y-151221500D01*
X50990637Y-151221451D01*
X50910743Y-151219219D01*
X50904039Y-151220498D01*
X50897238Y-151221045D01*
X50897196Y-151220525D01*
X50886875Y-151221500D01*
X50511589Y-151221500D01*
X50443468Y-151201498D01*
X50436024Y-151196326D01*
X50346705Y-151129385D01*
X50210316Y-151078255D01*
X50148134Y-151071500D01*
X46901866Y-151071500D01*
X46839684Y-151078255D01*
X46703295Y-151129385D01*
X46613976Y-151196326D01*
X46547470Y-151221174D01*
X46538411Y-151221500D01*
X45461589Y-151221500D01*
X45393468Y-151201498D01*
X45386024Y-151196326D01*
X45296705Y-151129385D01*
X45160316Y-151078255D01*
X45098134Y-151071500D01*
X41851866Y-151071500D01*
X41789684Y-151078255D01*
X41653295Y-151129385D01*
X41536739Y-151216739D01*
X41449385Y-151333295D01*
X41398255Y-151469684D01*
X41391500Y-151531866D01*
X41391500Y-152628134D01*
X41398255Y-152690316D01*
X41449385Y-152826705D01*
X41536739Y-152943261D01*
X41653295Y-153030615D01*
X41789684Y-153081745D01*
X41851866Y-153088500D01*
X45098134Y-153088500D01*
X45160316Y-153081745D01*
X45296705Y-153030615D01*
X45386024Y-152963674D01*
X45452530Y-152938826D01*
X45461589Y-152938500D01*
X46538411Y-152938500D01*
X46606532Y-152958502D01*
X46613975Y-152963674D01*
X46703295Y-153030615D01*
X46839684Y-153081745D01*
X46901866Y-153088500D01*
X50148134Y-153088500D01*
X50210316Y-153081745D01*
X50346705Y-153030615D01*
X50436024Y-152963674D01*
X50502530Y-152938826D01*
X50511589Y-152938500D01*
X50572208Y-152938500D01*
X50640329Y-152958502D01*
X50661303Y-152975405D01*
X51313674Y-153627776D01*
X51320816Y-153635542D01*
X51354471Y-153675367D01*
X51419017Y-153724717D01*
X51421419Y-153726601D01*
X51479411Y-153773228D01*
X51479417Y-153773232D01*
X51484738Y-153777510D01*
X51490857Y-153780547D01*
X51493652Y-153782335D01*
X51494013Y-153782588D01*
X51494380Y-153782790D01*
X51497238Y-153784521D01*
X51502652Y-153788660D01*
X51535049Y-153803767D01*
X51576262Y-153822985D01*
X51579033Y-153824319D01*
X51651814Y-153860447D01*
X51658435Y-153862098D01*
X51661563Y-153863249D01*
X51661956Y-153863413D01*
X51662361Y-153863532D01*
X51665525Y-153864609D01*
X51671704Y-153867490D01*
X51745498Y-153883985D01*
X51751002Y-153885215D01*
X51753998Y-153885924D01*
X51810947Y-153900123D01*
X51832801Y-153905572D01*
X51839622Y-153905763D01*
X51842925Y-153906215D01*
X51843809Y-153906374D01*
X51848692Y-153907052D01*
X51853740Y-153908180D01*
X51859463Y-153908500D01*
X51935844Y-153908500D01*
X51939363Y-153908549D01*
X52019257Y-153910781D01*
X52025961Y-153909502D01*
X52032762Y-153908955D01*
X52032804Y-153909475D01*
X52039789Y-153908815D01*
X52039782Y-153908684D01*
X52043052Y-153908507D01*
X52043125Y-153908500D01*
X52046596Y-153908500D01*
X52185437Y-153893417D01*
X52191902Y-153891241D01*
X52191908Y-153891240D01*
X52283874Y-153860290D01*
X52310453Y-153854446D01*
X52316359Y-153853804D01*
X52335316Y-153851745D01*
X52471705Y-153800615D01*
X52588261Y-153713261D01*
X52675615Y-153596705D01*
X52681583Y-153580786D01*
X52695353Y-153554193D01*
X52758646Y-153461060D01*
X52758647Y-153461058D01*
X52762480Y-153455418D01*
X52768780Y-153439669D01*
X53527001Y-153439669D01*
X53527371Y-153446490D01*
X53532895Y-153497352D01*
X53536521Y-153512604D01*
X53581676Y-153633054D01*
X53590214Y-153648649D01*
X53666715Y-153750724D01*
X53679276Y-153763285D01*
X53781351Y-153839786D01*
X53796946Y-153848324D01*
X53917394Y-153893478D01*
X53932649Y-153897105D01*
X53983514Y-153902631D01*
X53990328Y-153903000D01*
X54727885Y-153903000D01*
X54743124Y-153898525D01*
X54744329Y-153897135D01*
X54746000Y-153889452D01*
X54746000Y-153884884D01*
X55254000Y-153884884D01*
X55258475Y-153900123D01*
X55259865Y-153901328D01*
X55267548Y-153902999D01*
X56009669Y-153902999D01*
X56016490Y-153902629D01*
X56067352Y-153897105D01*
X56082604Y-153893479D01*
X56203054Y-153848324D01*
X56218649Y-153839786D01*
X56320724Y-153763285D01*
X56333285Y-153750724D01*
X56409786Y-153648649D01*
X56418324Y-153633054D01*
X56463478Y-153512606D01*
X56467105Y-153497351D01*
X56472631Y-153446486D01*
X56473000Y-153439672D01*
X56473000Y-152752115D01*
X56468525Y-152736876D01*
X56467135Y-152735671D01*
X56459452Y-152734000D01*
X55272115Y-152734000D01*
X55256876Y-152738475D01*
X55255671Y-152739865D01*
X55254000Y-152747548D01*
X55254000Y-153884884D01*
X54746000Y-153884884D01*
X54746000Y-152752115D01*
X54741525Y-152736876D01*
X54740135Y-152735671D01*
X54732452Y-152734000D01*
X53545116Y-152734000D01*
X53529877Y-152738475D01*
X53528672Y-152739865D01*
X53527001Y-152747548D01*
X53527001Y-153439669D01*
X52768780Y-153439669D01*
X52829215Y-153288570D01*
X52829216Y-153288568D01*
X52831751Y-153282229D01*
X52862216Y-153098205D01*
X52861708Y-153088500D01*
X52852810Y-152918746D01*
X52852453Y-152911933D01*
X52802920Y-152732102D01*
X52715925Y-152567102D01*
X52700553Y-152548912D01*
X52683291Y-152519460D01*
X52683078Y-152519577D01*
X52679088Y-152512289D01*
X52678810Y-152511815D01*
X52678770Y-152511709D01*
X52678767Y-152511704D01*
X52675615Y-152503295D01*
X52588261Y-152386739D01*
X52564567Y-152368981D01*
X52478887Y-152304767D01*
X52478884Y-152304765D01*
X52471705Y-152299385D01*
X52404135Y-152274054D01*
X52359270Y-152245168D01*
X52117474Y-152003372D01*
X52083448Y-151941060D01*
X52088513Y-151870245D01*
X52131060Y-151813409D01*
X52173109Y-151792801D01*
X52206883Y-151783498D01*
X52303827Y-151756796D01*
X52323680Y-151753009D01*
X52327459Y-151752599D01*
X52327463Y-151752598D01*
X52335316Y-151751745D01*
X52471705Y-151700615D01*
X52588261Y-151613261D01*
X52675615Y-151496705D01*
X52681494Y-151481023D01*
X52699380Y-151448724D01*
X52734516Y-151402769D01*
X52734519Y-151402765D01*
X52738660Y-151397348D01*
X52817490Y-151228296D01*
X52858180Y-151046260D01*
X52858500Y-151040537D01*
X52858500Y-149646454D01*
X52877240Y-149580338D01*
X52915462Y-149518331D01*
X52915463Y-149518329D01*
X52919302Y-149512101D01*
X52973149Y-149349757D01*
X52980283Y-149280135D01*
X52981458Y-149268663D01*
X53008300Y-149202936D01*
X53017707Y-149192411D01*
X53240166Y-148969952D01*
X53302478Y-148935926D01*
X53373293Y-148940991D01*
X53430129Y-148983538D01*
X53454940Y-149050058D01*
X53451780Y-149088461D01*
X53441066Y-149133089D01*
X53421634Y-149380000D01*
X53441066Y-149626911D01*
X53442220Y-149631718D01*
X53442221Y-149631724D01*
X53445762Y-149646473D01*
X53498885Y-149867742D01*
X53500778Y-149872313D01*
X53500779Y-149872315D01*
X53591565Y-150091490D01*
X53593666Y-150096563D01*
X53723075Y-150307740D01*
X53883927Y-150496073D01*
X54072260Y-150656925D01*
X54283437Y-150786334D01*
X54351656Y-150814591D01*
X54351658Y-150814592D01*
X54406938Y-150859141D01*
X54429359Y-150926504D01*
X54411801Y-150995295D01*
X54359838Y-151043674D01*
X54303439Y-151057001D01*
X53990331Y-151057001D01*
X53983510Y-151057371D01*
X53932648Y-151062895D01*
X53917396Y-151066521D01*
X53796946Y-151111676D01*
X53781351Y-151120214D01*
X53679276Y-151196715D01*
X53666715Y-151209276D01*
X53590214Y-151311351D01*
X53581676Y-151326946D01*
X53536522Y-151447394D01*
X53532895Y-151462649D01*
X53527369Y-151513514D01*
X53527000Y-151520328D01*
X53527000Y-152207885D01*
X53531475Y-152223124D01*
X53532865Y-152224329D01*
X53540548Y-152226000D01*
X56454884Y-152226000D01*
X56470123Y-152221525D01*
X56471328Y-152220135D01*
X56472999Y-152212452D01*
X56472999Y-151520331D01*
X56472629Y-151513510D01*
X56467105Y-151462648D01*
X56463479Y-151447396D01*
X56418324Y-151326946D01*
X56409786Y-151311351D01*
X56333285Y-151209276D01*
X56320724Y-151196715D01*
X56218649Y-151120214D01*
X56203054Y-151111676D01*
X56082606Y-151066522D01*
X56067351Y-151062895D01*
X56016486Y-151057369D01*
X56009672Y-151057000D01*
X55696562Y-151057000D01*
X55628441Y-151036998D01*
X55581948Y-150983342D01*
X55571844Y-150913068D01*
X55601338Y-150848488D01*
X55648343Y-150814592D01*
X55676640Y-150802871D01*
X55711989Y-150788229D01*
X55711993Y-150788227D01*
X55716563Y-150786334D01*
X55927740Y-150656925D01*
X56116073Y-150496073D01*
X56276925Y-150307740D01*
X56406334Y-150096563D01*
X56408436Y-150091490D01*
X56499221Y-149872315D01*
X56499222Y-149872313D01*
X56501115Y-149867742D01*
X56554238Y-149646473D01*
X56557779Y-149631724D01*
X56557780Y-149631718D01*
X56558934Y-149626911D01*
X56578366Y-149380000D01*
X56558934Y-149133089D01*
X56557780Y-149128282D01*
X56557779Y-149128276D01*
X56512815Y-148940991D01*
X56501115Y-148892258D01*
X56499221Y-148887685D01*
X56408229Y-148668011D01*
X56408227Y-148668007D01*
X56406334Y-148663437D01*
X56276925Y-148452260D01*
X56116073Y-148263927D01*
X55927740Y-148103075D01*
X55716563Y-147973666D01*
X55711993Y-147971773D01*
X55711989Y-147971771D01*
X55492315Y-147880779D01*
X55492313Y-147880778D01*
X55487742Y-147878885D01*
X55422237Y-147863159D01*
X55360669Y-147827807D01*
X55327986Y-147764780D01*
X55334566Y-147694089D01*
X55362557Y-147651545D01*
X56668698Y-146345405D01*
X56731010Y-146311379D01*
X56757793Y-146308500D01*
X57900400Y-146308500D01*
X57903646Y-146308163D01*
X57903650Y-146308163D01*
X57999308Y-146298238D01*
X57999312Y-146298237D01*
X58006166Y-146297526D01*
X58012702Y-146295345D01*
X58012704Y-146295345D01*
X58166998Y-146243868D01*
X58173946Y-146241550D01*
X58324348Y-146148478D01*
X58449305Y-146023303D01*
X58457434Y-146010116D01*
X58538275Y-145878968D01*
X58538276Y-145878966D01*
X58542115Y-145872738D01*
X58597797Y-145704861D01*
X58608500Y-145600400D01*
X58608500Y-144399600D01*
X58597526Y-144293834D01*
X58593494Y-144281749D01*
X58590908Y-144210800D01*
X58605241Y-144176601D01*
X58605790Y-144175694D01*
X58610476Y-144169718D01*
X58613600Y-144162799D01*
X58614988Y-144160507D01*
X58623357Y-144145835D01*
X58624622Y-144143475D01*
X58628990Y-144137261D01*
X58632889Y-144127262D01*
X58652202Y-144077725D01*
X58654759Y-144071642D01*
X58665594Y-144047647D01*
X58681045Y-144013427D01*
X58682430Y-144005954D01*
X58683234Y-144003388D01*
X58687855Y-143987165D01*
X58688520Y-143984573D01*
X58691282Y-143977491D01*
X58699622Y-143914139D01*
X58700654Y-143907623D01*
X58710911Y-143852281D01*
X58712295Y-143844814D01*
X58708709Y-143782620D01*
X58708500Y-143775367D01*
X58708500Y-121838912D01*
X58708792Y-121830342D01*
X58712209Y-121780224D01*
X58712209Y-121780220D01*
X58712725Y-121772648D01*
X58701739Y-121709703D01*
X58700777Y-121703182D01*
X58694015Y-121647304D01*
X58693102Y-121639758D01*
X58690416Y-121632650D01*
X58689779Y-121630056D01*
X58685318Y-121613750D01*
X58684548Y-121611199D01*
X58683242Y-121603716D01*
X58680190Y-121596763D01*
X58657561Y-121545212D01*
X58655069Y-121539105D01*
X58635173Y-121486452D01*
X58635173Y-121486451D01*
X58632487Y-121479344D01*
X58628184Y-121473083D01*
X58626947Y-121470717D01*
X58618720Y-121455937D01*
X58617369Y-121453652D01*
X58614315Y-121446695D01*
X58609695Y-121440675D01*
X58609692Y-121440669D01*
X58575421Y-121396009D01*
X58571541Y-121390668D01*
X58539661Y-121344280D01*
X58539656Y-121344275D01*
X58535357Y-121338019D01*
X58488829Y-121296564D01*
X58483554Y-121291584D01*
X57616450Y-120424480D01*
X57610596Y-120418215D01*
X57589598Y-120394145D01*
X57572561Y-120374615D01*
X57520280Y-120337871D01*
X57514986Y-120333939D01*
X57470693Y-120299209D01*
X57464718Y-120294524D01*
X57457802Y-120291401D01*
X57455516Y-120290017D01*
X57440835Y-120281643D01*
X57438475Y-120280378D01*
X57432261Y-120276010D01*
X57425182Y-120273250D01*
X57425180Y-120273249D01*
X57372725Y-120252798D01*
X57366656Y-120250247D01*
X57308427Y-120223955D01*
X57300960Y-120222571D01*
X57298405Y-120221770D01*
X57282152Y-120217141D01*
X57279572Y-120216478D01*
X57272491Y-120213718D01*
X57264960Y-120212727D01*
X57264958Y-120212726D01*
X57232180Y-120208411D01*
X57209139Y-120205378D01*
X57202641Y-120204348D01*
X57139814Y-120192704D01*
X57132234Y-120193141D01*
X57132233Y-120193141D01*
X57077608Y-120196291D01*
X57070354Y-120196500D01*
X54033472Y-120196500D01*
X53965351Y-120176498D01*
X53918858Y-120122842D01*
X53908754Y-120052568D01*
X53912475Y-120035347D01*
X53949939Y-119906396D01*
X53949899Y-119892294D01*
X53942630Y-119889000D01*
X51013122Y-119889000D01*
X50999591Y-119892973D01*
X50998456Y-119900871D01*
X51041318Y-120048400D01*
X51038475Y-120049226D01*
X51045462Y-120105843D01*
X51014682Y-120169821D01*
X50954199Y-120207001D01*
X50936272Y-120210505D01*
X50924758Y-120211898D01*
X50917651Y-120214584D01*
X50915056Y-120215221D01*
X50898750Y-120219682D01*
X50896199Y-120220452D01*
X50888716Y-120221758D01*
X50881764Y-120224810D01*
X50881763Y-120224810D01*
X50830212Y-120247439D01*
X50824105Y-120249931D01*
X50777645Y-120267487D01*
X50764344Y-120272513D01*
X50758083Y-120276816D01*
X50755717Y-120278053D01*
X50740937Y-120286280D01*
X50738652Y-120287631D01*
X50731695Y-120290685D01*
X50725675Y-120295305D01*
X50725669Y-120295308D01*
X50695781Y-120318243D01*
X50680998Y-120329587D01*
X50675668Y-120333459D01*
X50629280Y-120365339D01*
X50629275Y-120365344D01*
X50623019Y-120369643D01*
X50617968Y-120375313D01*
X50617966Y-120375314D01*
X50581565Y-120416170D01*
X50576584Y-120421446D01*
X50294480Y-120703550D01*
X50288215Y-120709404D01*
X50244615Y-120747439D01*
X50223839Y-120777000D01*
X50207872Y-120799719D01*
X50203939Y-120805014D01*
X50164524Y-120855282D01*
X50161401Y-120862198D01*
X50160017Y-120864484D01*
X50151643Y-120879165D01*
X50150378Y-120881525D01*
X50146010Y-120887739D01*
X50143250Y-120894818D01*
X50143249Y-120894820D01*
X50122798Y-120947275D01*
X50120247Y-120953344D01*
X50093955Y-121011573D01*
X50092571Y-121019040D01*
X50091770Y-121021595D01*
X50087141Y-121037848D01*
X50086478Y-121040428D01*
X50083718Y-121047509D01*
X50082727Y-121055040D01*
X50082726Y-121055042D01*
X50075379Y-121110852D01*
X50074348Y-121117359D01*
X50062704Y-121180186D01*
X50063141Y-121187766D01*
X50063141Y-121187767D01*
X50066291Y-121242392D01*
X50066500Y-121249646D01*
X50066500Y-122043237D01*
X50046498Y-122111358D01*
X49992842Y-122157851D01*
X49922568Y-122167955D01*
X49874384Y-122150497D01*
X49768120Y-122084996D01*
X49754939Y-122078849D01*
X49606186Y-122029509D01*
X49592810Y-122026642D01*
X49501903Y-122017328D01*
X49496874Y-122017071D01*
X49481876Y-122021475D01*
X49480671Y-122022865D01*
X49479000Y-122030548D01*
X49479000Y-123128000D01*
X49458998Y-123196121D01*
X49405342Y-123242614D01*
X49353000Y-123254000D01*
X49097000Y-123254000D01*
X49028879Y-123233998D01*
X48982386Y-123180342D01*
X48971000Y-123128000D01*
X48971000Y-122035115D01*
X48966525Y-122019876D01*
X48965135Y-122018671D01*
X48957452Y-122017000D01*
X48954562Y-122017000D01*
X48948047Y-122017337D01*
X48855943Y-122026894D01*
X48842544Y-122029788D01*
X48693893Y-122079381D01*
X48680714Y-122085555D01*
X48547827Y-122167788D01*
X48536426Y-122176824D01*
X48426014Y-122287429D01*
X48417002Y-122298840D01*
X48334996Y-122431880D01*
X48328849Y-122445061D01*
X48279509Y-122593814D01*
X48276642Y-122607190D01*
X48267328Y-122698097D01*
X48267000Y-122704514D01*
X48267000Y-122760840D01*
X48246998Y-122828961D01*
X48193342Y-122875454D01*
X48123068Y-122885558D01*
X48058488Y-122856064D01*
X48051905Y-122849935D01*
X47130065Y-121928095D01*
X47096039Y-121865783D01*
X47101104Y-121794968D01*
X47143651Y-121738132D01*
X47210171Y-121713321D01*
X47219160Y-121713000D01*
X47252885Y-121713000D01*
X47268124Y-121708525D01*
X47269329Y-121707135D01*
X47271000Y-121699452D01*
X47271000Y-121694884D01*
X47779000Y-121694884D01*
X47783475Y-121710123D01*
X47784865Y-121711328D01*
X47792548Y-121712999D01*
X48413984Y-121712999D01*
X48418920Y-121712805D01*
X48447336Y-121710570D01*
X48459931Y-121708270D01*
X48605790Y-121665893D01*
X48620221Y-121659648D01*
X48749678Y-121583089D01*
X48762104Y-121573449D01*
X48868449Y-121467104D01*
X48878089Y-121454678D01*
X48954648Y-121325221D01*
X48960893Y-121310790D01*
X48999939Y-121176395D01*
X48999899Y-121162294D01*
X48992630Y-121159000D01*
X47797115Y-121159000D01*
X47781876Y-121163475D01*
X47780671Y-121164865D01*
X47779000Y-121172548D01*
X47779000Y-121694884D01*
X47271000Y-121694884D01*
X47271000Y-120777000D01*
X47291002Y-120708879D01*
X47344658Y-120662386D01*
X47397000Y-120651000D01*
X48986878Y-120651000D01*
X49000409Y-120647027D01*
X49001544Y-120639129D01*
X48960893Y-120499210D01*
X48954647Y-120484776D01*
X48952254Y-120480730D01*
X48934796Y-120411913D01*
X48957314Y-120344582D01*
X49010061Y-120301221D01*
X49029813Y-120292550D01*
X49035904Y-120290065D01*
X49088548Y-120270173D01*
X49088549Y-120270172D01*
X49095656Y-120267487D01*
X49101919Y-120263183D01*
X49104285Y-120261946D01*
X49119097Y-120253701D01*
X49121351Y-120252368D01*
X49128305Y-120249315D01*
X49179002Y-120210413D01*
X49184332Y-120206541D01*
X49230720Y-120174661D01*
X49230725Y-120174656D01*
X49236981Y-120170357D01*
X49258812Y-120145855D01*
X49278435Y-120123830D01*
X49283416Y-120118554D01*
X50480520Y-118921450D01*
X50486785Y-118915596D01*
X50524660Y-118882555D01*
X50530385Y-118877561D01*
X50545400Y-118856197D01*
X50600930Y-118811966D01*
X50671562Y-118804778D01*
X50737581Y-118839552D01*
X50743557Y-118845528D01*
X50749411Y-118851793D01*
X50776247Y-118882555D01*
X50787439Y-118895385D01*
X50839729Y-118932136D01*
X50844971Y-118936028D01*
X50895282Y-118975476D01*
X50902201Y-118978600D01*
X50904493Y-118979988D01*
X50919165Y-118988357D01*
X50921525Y-118989622D01*
X50927739Y-118993990D01*
X50934818Y-118996750D01*
X50934820Y-118996751D01*
X50987275Y-119017202D01*
X50993358Y-119019759D01*
X50996428Y-119021146D01*
X50997228Y-119021507D01*
X51051074Y-119067778D01*
X51071357Y-119135816D01*
X51053811Y-119200475D01*
X51045353Y-119214777D01*
X51039107Y-119229210D01*
X51000061Y-119363605D01*
X51000101Y-119377706D01*
X51007370Y-119381000D01*
X53936878Y-119381000D01*
X53982415Y-119367629D01*
X53991168Y-119362004D01*
X54062164Y-119362004D01*
X54121890Y-119400388D01*
X54134441Y-119417628D01*
X54163361Y-119465381D01*
X54284619Y-119586639D01*
X54431301Y-119675472D01*
X54438548Y-119677743D01*
X54438550Y-119677744D01*
X54504836Y-119698517D01*
X54594938Y-119726753D01*
X54668365Y-119733500D01*
X54671263Y-119733500D01*
X55000860Y-119733499D01*
X55331634Y-119733499D01*
X55334492Y-119733236D01*
X55334501Y-119733236D01*
X55370004Y-119729974D01*
X55405062Y-119726753D01*
X55411447Y-119724752D01*
X55561450Y-119677744D01*
X55561452Y-119677743D01*
X55568699Y-119675472D01*
X55715381Y-119586639D01*
X55781615Y-119520405D01*
X55843927Y-119486379D01*
X55870710Y-119483500D01*
X56143951Y-119483500D01*
X56212072Y-119503502D01*
X56232968Y-119520326D01*
X56281651Y-119568924D01*
X56292298Y-119579552D01*
X56437899Y-119669302D01*
X56600243Y-119723149D01*
X56607080Y-119723849D01*
X56607082Y-119723850D01*
X56648401Y-119728083D01*
X56701268Y-119733500D01*
X57298732Y-119733500D01*
X57301978Y-119733163D01*
X57301982Y-119733163D01*
X57336083Y-119729625D01*
X57401019Y-119722887D01*
X57435737Y-119711304D01*
X57556324Y-119671073D01*
X57556326Y-119671072D01*
X57563268Y-119668756D01*
X57708713Y-119578752D01*
X57829552Y-119457702D01*
X57876832Y-119381000D01*
X57915462Y-119318331D01*
X57915463Y-119318329D01*
X57919302Y-119312101D01*
X57973149Y-119149757D01*
X57974578Y-119135816D01*
X57980962Y-119073500D01*
X57983500Y-119048732D01*
X57983500Y-118501268D01*
X57972887Y-118398981D01*
X57918756Y-118236732D01*
X57904526Y-118213736D01*
X57832605Y-118097513D01*
X57832604Y-118097512D01*
X57828752Y-118091287D01*
X57823570Y-118086114D01*
X57819025Y-118080380D01*
X57820945Y-118078858D01*
X57792455Y-118026794D01*
X57797456Y-117955974D01*
X57820882Y-117919448D01*
X57819843Y-117918628D01*
X57824381Y-117912882D01*
X57829552Y-117907702D01*
X57833393Y-117901471D01*
X57915462Y-117768331D01*
X57915463Y-117768329D01*
X57919302Y-117762101D01*
X57973149Y-117599757D01*
X57983500Y-117498732D01*
X57983500Y-116951268D01*
X57972887Y-116848981D01*
X57918756Y-116686732D01*
X57828752Y-116541287D01*
X57707702Y-116420448D01*
X57690251Y-116409691D01*
X57568331Y-116334538D01*
X57568329Y-116334537D01*
X57562101Y-116330698D01*
X57399757Y-116276851D01*
X57392920Y-116276151D01*
X57392918Y-116276150D01*
X57351599Y-116271917D01*
X57298732Y-116266500D01*
X56701268Y-116266500D01*
X56698022Y-116266837D01*
X56698018Y-116266837D01*
X56663917Y-116270375D01*
X56598981Y-116277113D01*
X56564263Y-116288696D01*
X56443676Y-116328927D01*
X56443674Y-116328928D01*
X56436732Y-116331244D01*
X56430508Y-116335096D01*
X56430507Y-116335096D01*
X56352159Y-116383579D01*
X56291287Y-116421248D01*
X56286113Y-116426431D01*
X56283029Y-116429520D01*
X56280401Y-116430958D01*
X56280377Y-116430977D01*
X56280374Y-116430973D01*
X56220746Y-116463598D01*
X56193858Y-116466500D01*
X56187816Y-116466500D01*
X56119695Y-116446498D01*
X56073202Y-116392842D01*
X56063098Y-116322568D01*
X56092592Y-116257988D01*
X56105985Y-116244689D01*
X56112317Y-116239281D01*
X56116073Y-116236073D01*
X56276925Y-116047740D01*
X56406334Y-115836563D01*
X56419855Y-115803922D01*
X56499221Y-115612315D01*
X56499222Y-115612313D01*
X56501115Y-115607742D01*
X56521501Y-115522830D01*
X56557779Y-115371724D01*
X56557780Y-115371718D01*
X56558934Y-115366911D01*
X56578366Y-115120000D01*
X56558934Y-114873089D01*
X56557780Y-114868282D01*
X56557779Y-114868276D01*
X56510479Y-114671263D01*
X56501115Y-114632258D01*
X56490215Y-114605943D01*
X56408229Y-114408011D01*
X56408227Y-114408007D01*
X56406334Y-114403437D01*
X56276925Y-114192260D01*
X56116073Y-114003927D01*
X55927740Y-113843075D01*
X55716563Y-113713666D01*
X55711993Y-113711773D01*
X55711989Y-113711771D01*
X55492315Y-113620779D01*
X55492313Y-113620778D01*
X55487742Y-113618885D01*
X55402830Y-113598499D01*
X55251724Y-113562221D01*
X55251718Y-113562220D01*
X55246911Y-113561066D01*
X55000000Y-113541634D01*
X54753089Y-113561066D01*
X54748282Y-113562220D01*
X54748276Y-113562221D01*
X54597170Y-113598499D01*
X54512258Y-113618885D01*
X54507687Y-113620778D01*
X54507685Y-113620779D01*
X54288011Y-113711771D01*
X54288007Y-113711773D01*
X54283437Y-113713666D01*
X54072260Y-113843075D01*
X53883927Y-114003927D01*
X53880719Y-114007683D01*
X53743166Y-114168737D01*
X53723075Y-114192260D01*
X53719650Y-114197848D01*
X53719198Y-114198257D01*
X53717580Y-114200485D01*
X53717112Y-114200145D01*
X53667003Y-114245477D01*
X53596962Y-114257083D01*
X53531765Y-114228979D01*
X53523125Y-114221105D01*
X53465381Y-114163361D01*
X53318699Y-114074528D01*
X53311452Y-114072257D01*
X53311450Y-114072256D01*
X53245164Y-114051483D01*
X53155062Y-114023247D01*
X53081635Y-114016500D01*
X53066795Y-114016500D01*
X52731641Y-114016501D01*
X52663522Y-113996499D01*
X52623067Y-113949106D01*
X52621235Y-113950189D01*
X52617367Y-113943648D01*
X52614315Y-113936695D01*
X52609695Y-113930675D01*
X52609692Y-113930669D01*
X52575421Y-113886009D01*
X52571541Y-113880668D01*
X52539661Y-113834280D01*
X52539656Y-113834275D01*
X52535357Y-113828019D01*
X52488829Y-113786564D01*
X52483554Y-113781584D01*
X51546450Y-112844480D01*
X51540596Y-112838215D01*
X51540201Y-112837762D01*
X51502561Y-112794615D01*
X51450280Y-112757871D01*
X51444986Y-112753939D01*
X51400693Y-112719209D01*
X51394718Y-112714524D01*
X51387802Y-112711401D01*
X51385516Y-112710017D01*
X51370835Y-112701643D01*
X51368475Y-112700378D01*
X51362261Y-112696010D01*
X51355182Y-112693250D01*
X51355180Y-112693249D01*
X51302725Y-112672798D01*
X51296656Y-112670247D01*
X51238427Y-112643955D01*
X51230960Y-112642571D01*
X51228405Y-112641770D01*
X51212152Y-112637141D01*
X51209572Y-112636478D01*
X51202491Y-112633718D01*
X51194960Y-112632727D01*
X51194958Y-112632726D01*
X51165339Y-112628827D01*
X51139139Y-112625378D01*
X51132641Y-112624348D01*
X51069814Y-112612704D01*
X51062234Y-112613141D01*
X51062233Y-112613141D01*
X51007608Y-112616291D01*
X51000354Y-112616500D01*
X50839710Y-112616500D01*
X50771589Y-112596498D01*
X50725096Y-112542842D01*
X50714992Y-112472568D01*
X50744486Y-112407988D01*
X50750615Y-112401405D01*
X50836639Y-112315381D01*
X50925472Y-112168699D01*
X50976753Y-112005062D01*
X50983500Y-111931635D01*
X50983499Y-111418366D01*
X50983234Y-111415474D01*
X50977364Y-111351592D01*
X50976753Y-111344938D01*
X50925472Y-111181301D01*
X50876724Y-111100807D01*
X50858500Y-111035537D01*
X50858500Y-110682723D01*
X50878502Y-110614602D01*
X50904942Y-110586848D01*
X50904085Y-110585834D01*
X50908040Y-110582492D01*
X50912243Y-110579494D01*
X51076303Y-110416005D01*
X51145370Y-110319888D01*
X51201365Y-110276240D01*
X51272068Y-110269794D01*
X51335033Y-110302597D01*
X51355128Y-110327584D01*
X51356799Y-110330311D01*
X51356804Y-110330317D01*
X51359501Y-110334719D01*
X51511147Y-110509784D01*
X51689349Y-110657730D01*
X51889322Y-110774584D01*
X52105694Y-110857209D01*
X52110760Y-110858240D01*
X52110761Y-110858240D01*
X52163846Y-110869040D01*
X52332656Y-110903385D01*
X52463324Y-110908176D01*
X52558949Y-110911683D01*
X52558953Y-110911683D01*
X52564113Y-110911872D01*
X52569233Y-110911216D01*
X52569235Y-110911216D01*
X52668668Y-110898478D01*
X52793847Y-110882442D01*
X52798795Y-110880957D01*
X52798802Y-110880956D01*
X53010747Y-110817369D01*
X53015690Y-110815886D01*
X53096236Y-110776427D01*
X53219049Y-110716262D01*
X53219052Y-110716260D01*
X53223684Y-110713991D01*
X53412243Y-110579494D01*
X53576303Y-110416005D01*
X53711458Y-110227917D01*
X53814078Y-110020280D01*
X53881408Y-109798671D01*
X53911640Y-109569041D01*
X53913327Y-109500000D01*
X53907032Y-109423434D01*
X53894773Y-109274318D01*
X53894772Y-109274312D01*
X53894349Y-109269167D01*
X53837925Y-109044533D01*
X53745570Y-108832131D01*
X53619764Y-108637665D01*
X53463887Y-108466358D01*
X53459836Y-108463159D01*
X53459832Y-108463155D01*
X53286177Y-108326011D01*
X53286172Y-108326008D01*
X53282123Y-108322810D01*
X53277607Y-108320317D01*
X53277604Y-108320315D01*
X53083879Y-108213373D01*
X53083875Y-108213371D01*
X53079355Y-108210876D01*
X53074486Y-108209152D01*
X53074482Y-108209150D01*
X52865903Y-108135288D01*
X52865899Y-108135287D01*
X52861028Y-108133562D01*
X52855935Y-108132655D01*
X52855932Y-108132654D01*
X52638095Y-108093851D01*
X52638089Y-108093850D01*
X52633006Y-108092945D01*
X52555644Y-108092000D01*
X52406581Y-108090179D01*
X52406579Y-108090179D01*
X52401411Y-108090116D01*
X52172464Y-108125150D01*
X51952314Y-108197106D01*
X51947726Y-108199494D01*
X51947722Y-108199496D01*
X51751461Y-108301663D01*
X51746872Y-108304052D01*
X51742739Y-108307155D01*
X51742736Y-108307157D01*
X51565790Y-108440012D01*
X51561655Y-108443117D01*
X51401639Y-108610564D01*
X51354836Y-108679174D01*
X51299927Y-108724175D01*
X51229402Y-108732346D01*
X51165655Y-108701092D01*
X51144959Y-108676609D01*
X51122577Y-108642013D01*
X51122574Y-108642009D01*
X51119764Y-108637665D01*
X50963887Y-108466358D01*
X50959836Y-108463159D01*
X50959832Y-108463155D01*
X50786177Y-108326011D01*
X50786172Y-108326008D01*
X50782123Y-108322810D01*
X50777607Y-108320317D01*
X50777604Y-108320315D01*
X50583879Y-108213373D01*
X50583875Y-108213371D01*
X50579355Y-108210876D01*
X50574486Y-108209152D01*
X50574482Y-108209150D01*
X50365903Y-108135288D01*
X50365899Y-108135287D01*
X50361028Y-108133562D01*
X50355935Y-108132655D01*
X50355932Y-108132654D01*
X50138095Y-108093851D01*
X50138089Y-108093850D01*
X50133006Y-108092945D01*
X50055644Y-108092000D01*
X49906581Y-108090179D01*
X49906579Y-108090179D01*
X49901411Y-108090116D01*
X49672464Y-108125150D01*
X49452314Y-108197106D01*
X49447726Y-108199494D01*
X49447722Y-108199496D01*
X49251461Y-108301663D01*
X49246872Y-108304052D01*
X49242739Y-108307155D01*
X49242736Y-108307157D01*
X49065790Y-108440012D01*
X49061655Y-108443117D01*
X49061066Y-108442333D01*
X49001346Y-108470484D01*
X48930955Y-108461231D01*
X48876741Y-108415391D01*
X48863925Y-108390224D01*
X48853323Y-108361944D01*
X48844786Y-108346351D01*
X48768285Y-108244276D01*
X48755724Y-108231715D01*
X48653649Y-108155214D01*
X48638054Y-108146676D01*
X48517606Y-108101522D01*
X48502351Y-108097895D01*
X48451486Y-108092369D01*
X48444672Y-108092000D01*
X47772115Y-108092000D01*
X47756876Y-108096475D01*
X47755671Y-108097865D01*
X47754000Y-108105548D01*
X47754000Y-110889884D01*
X47758475Y-110905123D01*
X47759865Y-110906328D01*
X47767548Y-110907999D01*
X48444669Y-110907999D01*
X48451490Y-110907629D01*
X48502352Y-110902105D01*
X48517604Y-110898479D01*
X48638054Y-110853324D01*
X48653649Y-110844786D01*
X48755724Y-110768285D01*
X48768285Y-110755724D01*
X48844786Y-110653649D01*
X48853325Y-110638052D01*
X48865278Y-110606167D01*
X48907919Y-110549402D01*
X48974480Y-110524702D01*
X49043829Y-110539909D01*
X49063744Y-110553451D01*
X49095984Y-110580217D01*
X49135620Y-110639120D01*
X49141500Y-110677162D01*
X49141500Y-111035537D01*
X49123276Y-111100807D01*
X49074528Y-111181301D01*
X49023247Y-111344938D01*
X49016500Y-111418365D01*
X49016501Y-111931634D01*
X49016764Y-111934492D01*
X49016764Y-111934501D01*
X49019503Y-111964310D01*
X49023247Y-112005062D01*
X49074528Y-112168699D01*
X49163361Y-112315381D01*
X49199385Y-112351405D01*
X49233411Y-112413717D01*
X49228346Y-112484532D01*
X49185799Y-112541368D01*
X49119279Y-112566179D01*
X49110290Y-112566500D01*
X47691371Y-112566500D01*
X47623250Y-112546498D01*
X47602276Y-112529595D01*
X46295405Y-111222724D01*
X46261379Y-111160412D01*
X46258500Y-111133629D01*
X46258500Y-110996342D01*
X46278502Y-110928221D01*
X46332158Y-110881728D01*
X46402432Y-110871624D01*
X46428730Y-110878360D01*
X46482395Y-110898478D01*
X46497649Y-110902105D01*
X46548514Y-110907631D01*
X46555328Y-110908000D01*
X47227885Y-110908000D01*
X47243124Y-110903525D01*
X47244329Y-110902135D01*
X47246000Y-110894452D01*
X47246000Y-108110116D01*
X47241525Y-108094877D01*
X47240135Y-108093672D01*
X47232452Y-108092001D01*
X46555331Y-108092001D01*
X46548510Y-108092371D01*
X46497648Y-108097895D01*
X46482397Y-108101521D01*
X46428730Y-108121640D01*
X46357923Y-108126823D01*
X46295554Y-108092903D01*
X46261425Y-108030648D01*
X46258500Y-108003658D01*
X46258500Y-107566371D01*
X46278502Y-107498250D01*
X46295405Y-107477276D01*
X50488911Y-103283770D01*
X50503323Y-103271384D01*
X50514918Y-103262851D01*
X50514923Y-103262846D01*
X50520818Y-103258508D01*
X50525557Y-103252930D01*
X50525560Y-103252927D01*
X50555035Y-103218232D01*
X50561965Y-103210716D01*
X50567660Y-103205021D01*
X50585281Y-103182749D01*
X50588072Y-103179345D01*
X50630591Y-103129297D01*
X50630592Y-103129295D01*
X50635333Y-103123715D01*
X50638661Y-103117199D01*
X50642028Y-103112150D01*
X50645195Y-103107021D01*
X50649734Y-103101284D01*
X50680655Y-103035125D01*
X50682561Y-103031225D01*
X50715769Y-102966192D01*
X50717508Y-102959084D01*
X50719607Y-102953441D01*
X50721524Y-102947678D01*
X50724622Y-102941050D01*
X50739487Y-102869583D01*
X50740457Y-102865299D01*
X50756473Y-102799845D01*
X50757808Y-102794390D01*
X50758500Y-102783236D01*
X50758536Y-102783238D01*
X50758775Y-102779245D01*
X50759149Y-102775053D01*
X50760640Y-102767885D01*
X50758546Y-102690479D01*
X50758500Y-102687072D01*
X50758500Y-102328884D01*
X52931500Y-102328884D01*
X52931665Y-102331152D01*
X52931665Y-102331164D01*
X52935631Y-102385819D01*
X52946125Y-102530451D01*
X52947109Y-102534906D01*
X52947109Y-102534909D01*
X53003161Y-102788785D01*
X53004585Y-102795237D01*
X53006203Y-102799507D01*
X53093993Y-103031225D01*
X53100655Y-103048810D01*
X53232324Y-103285859D01*
X53396833Y-103501417D01*
X53590736Y-103690970D01*
X53809972Y-103850547D01*
X54049947Y-103976804D01*
X54054248Y-103978323D01*
X54054253Y-103978325D01*
X54187087Y-104025233D01*
X54305634Y-104067096D01*
X54403653Y-104086415D01*
X54567206Y-104118652D01*
X54567212Y-104118653D01*
X54571678Y-104119533D01*
X54576232Y-104119760D01*
X54576234Y-104119760D01*
X54837936Y-104132789D01*
X54837942Y-104132789D01*
X54842505Y-104133016D01*
X55112441Y-104107262D01*
X55116870Y-104106178D01*
X55116877Y-104106177D01*
X55276584Y-104067096D01*
X55375832Y-104042810D01*
X55535039Y-103978325D01*
X55622931Y-103942725D01*
X55622932Y-103942725D01*
X55627160Y-103941012D01*
X55861161Y-103803999D01*
X56072932Y-103634641D01*
X56194399Y-103504612D01*
X56254921Y-103439824D01*
X56254923Y-103439821D01*
X56258037Y-103436488D01*
X56412598Y-103213688D01*
X56414627Y-103209610D01*
X56531346Y-102974997D01*
X56531347Y-102974994D01*
X56533379Y-102970910D01*
X56617847Y-102713240D01*
X56664235Y-102446075D01*
X56668500Y-102360400D01*
X56668500Y-101671116D01*
X56666328Y-101641170D01*
X56654205Y-101474100D01*
X56653875Y-101469549D01*
X56652891Y-101465091D01*
X56596400Y-101209223D01*
X56596399Y-101209219D01*
X56595415Y-101204763D01*
X56499345Y-100951190D01*
X56367676Y-100714141D01*
X56203167Y-100498583D01*
X56009264Y-100309030D01*
X55790028Y-100149453D01*
X55550053Y-100023196D01*
X55545752Y-100021677D01*
X55545747Y-100021675D01*
X55367998Y-99958906D01*
X55294366Y-99932904D01*
X55196347Y-99913585D01*
X55032794Y-99881348D01*
X55032788Y-99881347D01*
X55028322Y-99880467D01*
X55023768Y-99880240D01*
X55023766Y-99880240D01*
X54762064Y-99867211D01*
X54762058Y-99867211D01*
X54757495Y-99866984D01*
X54487559Y-99892738D01*
X54483130Y-99893822D01*
X54483123Y-99893823D01*
X54353069Y-99925648D01*
X54224168Y-99957190D01*
X54219933Y-99958905D01*
X54219931Y-99958906D01*
X53977069Y-100057275D01*
X53972840Y-100058988D01*
X53738839Y-100196001D01*
X53527068Y-100365359D01*
X53523947Y-100368700D01*
X53399224Y-100502215D01*
X53341963Y-100563512D01*
X53187402Y-100786312D01*
X53185374Y-100790388D01*
X53185373Y-100790390D01*
X53103252Y-100955460D01*
X53066621Y-101029090D01*
X52982153Y-101286760D01*
X52935765Y-101553925D01*
X52931500Y-101639600D01*
X52931500Y-102328884D01*
X50758500Y-102328884D01*
X50758500Y-97595710D01*
X50778502Y-97527589D01*
X50795405Y-97506615D01*
X50836639Y-97465381D01*
X50925472Y-97318699D01*
X50976753Y-97155062D01*
X50983500Y-97081635D01*
X50983499Y-96568366D01*
X50976753Y-96494938D01*
X50925472Y-96331301D01*
X50836639Y-96184619D01*
X50741115Y-96089095D01*
X50707089Y-96026783D01*
X50712154Y-95955968D01*
X50741115Y-95910905D01*
X50836639Y-95815381D01*
X50925472Y-95668699D01*
X50976753Y-95505062D01*
X50983500Y-95431635D01*
X50983499Y-94918366D01*
X50983234Y-94915474D01*
X50977364Y-94851592D01*
X50976753Y-94844938D01*
X50925472Y-94681301D01*
X50876724Y-94600807D01*
X50858500Y-94535537D01*
X50858500Y-93682723D01*
X50878502Y-93614602D01*
X50904942Y-93586848D01*
X50904085Y-93585834D01*
X50908040Y-93582492D01*
X50912243Y-93579494D01*
X51076303Y-93416005D01*
X51145370Y-93319888D01*
X51201365Y-93276240D01*
X51272068Y-93269794D01*
X51335033Y-93302597D01*
X51355128Y-93327584D01*
X51356799Y-93330311D01*
X51356804Y-93330317D01*
X51359501Y-93334719D01*
X51511147Y-93509784D01*
X51689349Y-93657730D01*
X51889322Y-93774584D01*
X52105694Y-93857209D01*
X52110760Y-93858240D01*
X52110761Y-93858240D01*
X52163846Y-93869040D01*
X52332656Y-93903385D01*
X52463324Y-93908176D01*
X52558949Y-93911683D01*
X52558953Y-93911683D01*
X52564113Y-93911872D01*
X52569233Y-93911216D01*
X52569235Y-93911216D01*
X52668668Y-93898478D01*
X52793847Y-93882442D01*
X52798795Y-93880957D01*
X52798802Y-93880956D01*
X53010747Y-93817369D01*
X53015690Y-93815886D01*
X53096236Y-93776427D01*
X53219049Y-93716262D01*
X53219052Y-93716260D01*
X53223684Y-93713991D01*
X53412243Y-93579494D01*
X53576303Y-93416005D01*
X53711458Y-93227917D01*
X53814078Y-93020280D01*
X53881408Y-92798671D01*
X53911640Y-92569041D01*
X53913327Y-92500000D01*
X53907032Y-92423434D01*
X53894773Y-92274318D01*
X53894772Y-92274312D01*
X53894349Y-92269167D01*
X53837925Y-92044533D01*
X53745570Y-91832131D01*
X53619764Y-91637665D01*
X53463887Y-91466358D01*
X53459836Y-91463159D01*
X53459832Y-91463155D01*
X53286177Y-91326011D01*
X53286172Y-91326008D01*
X53282123Y-91322810D01*
X53277607Y-91320317D01*
X53277604Y-91320315D01*
X53083879Y-91213373D01*
X53083875Y-91213371D01*
X53079355Y-91210876D01*
X53074486Y-91209152D01*
X53074482Y-91209150D01*
X52865903Y-91135288D01*
X52865899Y-91135287D01*
X52861028Y-91133562D01*
X52855935Y-91132655D01*
X52855932Y-91132654D01*
X52638095Y-91093851D01*
X52638089Y-91093850D01*
X52633006Y-91092945D01*
X52555644Y-91092000D01*
X52406581Y-91090179D01*
X52406579Y-91090179D01*
X52401411Y-91090116D01*
X52172464Y-91125150D01*
X51952314Y-91197106D01*
X51947726Y-91199494D01*
X51947722Y-91199496D01*
X51751461Y-91301663D01*
X51746872Y-91304052D01*
X51742739Y-91307155D01*
X51742736Y-91307157D01*
X51565790Y-91440012D01*
X51561655Y-91443117D01*
X51401639Y-91610564D01*
X51354836Y-91679174D01*
X51299927Y-91724175D01*
X51229402Y-91732346D01*
X51165655Y-91701092D01*
X51144959Y-91676609D01*
X51122577Y-91642013D01*
X51122574Y-91642009D01*
X51119764Y-91637665D01*
X50963887Y-91466358D01*
X50959836Y-91463159D01*
X50959832Y-91463155D01*
X50786177Y-91326011D01*
X50786172Y-91326008D01*
X50782123Y-91322810D01*
X50777607Y-91320317D01*
X50777604Y-91320315D01*
X50583879Y-91213373D01*
X50583875Y-91213371D01*
X50579355Y-91210876D01*
X50574486Y-91209152D01*
X50574482Y-91209150D01*
X50365903Y-91135288D01*
X50365899Y-91135287D01*
X50361028Y-91133562D01*
X50355935Y-91132655D01*
X50355932Y-91132654D01*
X50138095Y-91093851D01*
X50138089Y-91093850D01*
X50133006Y-91092945D01*
X50055644Y-91092000D01*
X49906581Y-91090179D01*
X49906579Y-91090179D01*
X49901411Y-91090116D01*
X49672464Y-91125150D01*
X49452314Y-91197106D01*
X49447726Y-91199494D01*
X49447722Y-91199496D01*
X49251461Y-91301663D01*
X49246872Y-91304052D01*
X49242739Y-91307155D01*
X49242736Y-91307157D01*
X49065790Y-91440012D01*
X49061655Y-91443117D01*
X49061066Y-91442333D01*
X49001346Y-91470484D01*
X48930955Y-91461231D01*
X48876741Y-91415391D01*
X48863925Y-91390224D01*
X48853323Y-91361944D01*
X48844786Y-91346351D01*
X48768285Y-91244276D01*
X48755724Y-91231715D01*
X48653649Y-91155214D01*
X48638054Y-91146676D01*
X48517606Y-91101522D01*
X48502351Y-91097895D01*
X48451486Y-91092369D01*
X48444672Y-91092000D01*
X47772115Y-91092000D01*
X47756876Y-91096475D01*
X47755671Y-91097865D01*
X47754000Y-91105548D01*
X47754000Y-93889884D01*
X47758475Y-93905123D01*
X47759865Y-93906328D01*
X47767548Y-93907999D01*
X48444669Y-93907999D01*
X48451490Y-93907629D01*
X48502352Y-93902105D01*
X48517604Y-93898479D01*
X48638054Y-93853324D01*
X48653649Y-93844786D01*
X48755724Y-93768285D01*
X48768285Y-93755724D01*
X48844786Y-93653649D01*
X48853325Y-93638052D01*
X48865278Y-93606167D01*
X48907919Y-93549402D01*
X48974480Y-93524702D01*
X49043829Y-93539909D01*
X49063744Y-93553451D01*
X49095984Y-93580217D01*
X49135620Y-93639120D01*
X49141500Y-93677162D01*
X49141500Y-94535537D01*
X49123276Y-94600807D01*
X49074528Y-94681301D01*
X49023247Y-94844938D01*
X49016500Y-94918365D01*
X49016501Y-95431634D01*
X49016764Y-95434492D01*
X49016764Y-95434501D01*
X49019503Y-95464310D01*
X49023247Y-95505062D01*
X49074528Y-95668699D01*
X49163361Y-95815381D01*
X49199385Y-95851405D01*
X49233411Y-95913717D01*
X49228346Y-95984532D01*
X49185799Y-96041368D01*
X49119279Y-96066179D01*
X49110290Y-96066500D01*
X47691371Y-96066500D01*
X47623250Y-96046498D01*
X47602276Y-96029595D01*
X46295405Y-94722724D01*
X46261379Y-94660412D01*
X46258500Y-94633629D01*
X46258500Y-93996342D01*
X46278502Y-93928221D01*
X46332158Y-93881728D01*
X46402432Y-93871624D01*
X46428730Y-93878360D01*
X46482395Y-93898478D01*
X46497649Y-93902105D01*
X46548514Y-93907631D01*
X46555328Y-93908000D01*
X47227885Y-93908000D01*
X47243124Y-93903525D01*
X47244329Y-93902135D01*
X47246000Y-93894452D01*
X47246000Y-91110116D01*
X47241525Y-91094877D01*
X47240135Y-91093672D01*
X47232452Y-91092001D01*
X46555331Y-91092001D01*
X46548510Y-91092371D01*
X46497648Y-91097895D01*
X46482397Y-91101521D01*
X46428730Y-91121640D01*
X46357923Y-91126823D01*
X46295554Y-91092903D01*
X46261425Y-91030648D01*
X46258500Y-91003658D01*
X46258500Y-89866371D01*
X46278502Y-89798250D01*
X46295405Y-89777276D01*
X50488911Y-85583770D01*
X50503323Y-85571384D01*
X50514918Y-85562851D01*
X50514923Y-85562846D01*
X50520818Y-85558508D01*
X50525557Y-85552930D01*
X50525560Y-85552927D01*
X50555035Y-85518232D01*
X50561965Y-85510716D01*
X50567660Y-85505021D01*
X50585281Y-85482749D01*
X50588072Y-85479345D01*
X50630591Y-85429297D01*
X50630592Y-85429295D01*
X50635333Y-85423715D01*
X50638661Y-85417199D01*
X50642028Y-85412150D01*
X50645195Y-85407021D01*
X50649734Y-85401284D01*
X50680655Y-85335125D01*
X50682561Y-85331225D01*
X50682592Y-85331164D01*
X50683756Y-85328884D01*
X52931500Y-85328884D01*
X52931665Y-85331152D01*
X52931665Y-85331164D01*
X52938786Y-85429297D01*
X52946125Y-85530451D01*
X52947109Y-85534906D01*
X52947109Y-85534909D01*
X52986482Y-85713240D01*
X53004585Y-85795237D01*
X53100655Y-86048810D01*
X53232324Y-86285859D01*
X53396833Y-86501417D01*
X53590736Y-86690970D01*
X53809972Y-86850547D01*
X54049947Y-86976804D01*
X54054248Y-86978323D01*
X54054253Y-86978325D01*
X54187087Y-87025233D01*
X54305634Y-87067096D01*
X54403653Y-87086415D01*
X54567206Y-87118652D01*
X54567212Y-87118653D01*
X54571678Y-87119533D01*
X54576232Y-87119760D01*
X54576234Y-87119760D01*
X54837936Y-87132789D01*
X54837942Y-87132789D01*
X54842505Y-87133016D01*
X55112441Y-87107262D01*
X55116870Y-87106178D01*
X55116877Y-87106177D01*
X55276584Y-87067096D01*
X55375832Y-87042810D01*
X55535039Y-86978325D01*
X55622931Y-86942725D01*
X55622932Y-86942725D01*
X55627160Y-86941012D01*
X55861161Y-86803999D01*
X56072932Y-86634641D01*
X56194399Y-86504612D01*
X56254921Y-86439824D01*
X56254923Y-86439821D01*
X56258037Y-86436488D01*
X56412598Y-86213688D01*
X56494624Y-86048810D01*
X56531346Y-85974997D01*
X56531347Y-85974994D01*
X56533379Y-85970910D01*
X56617847Y-85713240D01*
X56643959Y-85562851D01*
X56663579Y-85449856D01*
X56663580Y-85449848D01*
X56664235Y-85446075D01*
X56668500Y-85360400D01*
X56668500Y-84671116D01*
X56666328Y-84641170D01*
X56654205Y-84474100D01*
X56653875Y-84469549D01*
X56652891Y-84465091D01*
X56596400Y-84209223D01*
X56596399Y-84209219D01*
X56595415Y-84204763D01*
X56499345Y-83951190D01*
X56367676Y-83714141D01*
X56203167Y-83498583D01*
X56009264Y-83309030D01*
X55790028Y-83149453D01*
X55550053Y-83023196D01*
X55545752Y-83021677D01*
X55545747Y-83021675D01*
X55367998Y-82958906D01*
X55294366Y-82932904D01*
X55196347Y-82913585D01*
X55032794Y-82881348D01*
X55032788Y-82881347D01*
X55028322Y-82880467D01*
X55023768Y-82880240D01*
X55023766Y-82880240D01*
X54762064Y-82867211D01*
X54762058Y-82867211D01*
X54757495Y-82866984D01*
X54487559Y-82892738D01*
X54483130Y-82893822D01*
X54483123Y-82893823D01*
X54353069Y-82925648D01*
X54224168Y-82957190D01*
X54219933Y-82958905D01*
X54219931Y-82958906D01*
X53977069Y-83057275D01*
X53972840Y-83058988D01*
X53738839Y-83196001D01*
X53527068Y-83365359D01*
X53523947Y-83368700D01*
X53399224Y-83502215D01*
X53341963Y-83563512D01*
X53187402Y-83786312D01*
X53185374Y-83790388D01*
X53185373Y-83790390D01*
X53103252Y-83955460D01*
X53066621Y-84029090D01*
X52982153Y-84286760D01*
X52935765Y-84553925D01*
X52931500Y-84639600D01*
X52931500Y-85328884D01*
X50683756Y-85328884D01*
X50715769Y-85266192D01*
X50717508Y-85259084D01*
X50719607Y-85253441D01*
X50721524Y-85247678D01*
X50724622Y-85241050D01*
X50739487Y-85169583D01*
X50740457Y-85165299D01*
X50756473Y-85099845D01*
X50757808Y-85094390D01*
X50758500Y-85083236D01*
X50758536Y-85083238D01*
X50758775Y-85079245D01*
X50759149Y-85075053D01*
X50760640Y-85067885D01*
X50758546Y-84990479D01*
X50758500Y-84987072D01*
X50758500Y-80595710D01*
X50778502Y-80527589D01*
X50795405Y-80506615D01*
X50836639Y-80465381D01*
X50925472Y-80318699D01*
X50976753Y-80155062D01*
X50983500Y-80081635D01*
X50983499Y-79568366D01*
X50976753Y-79494938D01*
X50925472Y-79331301D01*
X50836639Y-79184619D01*
X50741115Y-79089095D01*
X50707089Y-79026783D01*
X50712154Y-78955968D01*
X50741115Y-78910905D01*
X50836639Y-78815381D01*
X50925472Y-78668699D01*
X50976753Y-78505062D01*
X50983500Y-78431635D01*
X50983499Y-77918366D01*
X50983234Y-77915474D01*
X50977364Y-77851592D01*
X50976753Y-77844938D01*
X50974752Y-77838554D01*
X50927744Y-77688550D01*
X50927743Y-77688548D01*
X50925472Y-77681301D01*
X50876724Y-77600807D01*
X50858500Y-77535537D01*
X50858500Y-76682723D01*
X50878502Y-76614602D01*
X50904942Y-76586848D01*
X50904085Y-76585834D01*
X50908040Y-76582492D01*
X50912243Y-76579494D01*
X51076303Y-76416005D01*
X51145370Y-76319888D01*
X51201365Y-76276240D01*
X51272068Y-76269794D01*
X51335033Y-76302597D01*
X51355128Y-76327584D01*
X51356799Y-76330311D01*
X51356804Y-76330317D01*
X51359501Y-76334719D01*
X51511147Y-76509784D01*
X51689349Y-76657730D01*
X51889322Y-76774584D01*
X52105694Y-76857209D01*
X52110760Y-76858240D01*
X52110761Y-76858240D01*
X52163846Y-76869040D01*
X52332656Y-76903385D01*
X52463324Y-76908176D01*
X52558949Y-76911683D01*
X52558953Y-76911683D01*
X52564113Y-76911872D01*
X52569233Y-76911216D01*
X52569235Y-76911216D01*
X52668668Y-76898478D01*
X52793847Y-76882442D01*
X52798795Y-76880957D01*
X52798802Y-76880956D01*
X53010747Y-76817369D01*
X53015690Y-76815886D01*
X53096236Y-76776427D01*
X53219049Y-76716262D01*
X53219052Y-76716260D01*
X53223684Y-76713991D01*
X53412243Y-76579494D01*
X53576303Y-76416005D01*
X53711458Y-76227917D01*
X53814078Y-76020280D01*
X53881408Y-75798671D01*
X53911640Y-75569041D01*
X53913327Y-75500000D01*
X53907032Y-75423434D01*
X53894773Y-75274318D01*
X53894772Y-75274312D01*
X53894349Y-75269167D01*
X53837925Y-75044533D01*
X53745570Y-74832131D01*
X53619764Y-74637665D01*
X53463887Y-74466358D01*
X53459836Y-74463159D01*
X53459832Y-74463155D01*
X53286177Y-74326011D01*
X53286172Y-74326008D01*
X53282123Y-74322810D01*
X53277607Y-74320317D01*
X53277604Y-74320315D01*
X53083879Y-74213373D01*
X53083875Y-74213371D01*
X53079355Y-74210876D01*
X53074486Y-74209152D01*
X53074482Y-74209150D01*
X52865903Y-74135288D01*
X52865899Y-74135287D01*
X52861028Y-74133562D01*
X52855935Y-74132655D01*
X52855932Y-74132654D01*
X52638095Y-74093851D01*
X52638089Y-74093850D01*
X52633006Y-74092945D01*
X52555644Y-74092000D01*
X52406581Y-74090179D01*
X52406579Y-74090179D01*
X52401411Y-74090116D01*
X52172464Y-74125150D01*
X51952314Y-74197106D01*
X51947726Y-74199494D01*
X51947722Y-74199496D01*
X51751461Y-74301663D01*
X51746872Y-74304052D01*
X51742739Y-74307155D01*
X51742736Y-74307157D01*
X51565790Y-74440012D01*
X51561655Y-74443117D01*
X51401639Y-74610564D01*
X51354836Y-74679174D01*
X51299927Y-74724175D01*
X51229402Y-74732346D01*
X51165655Y-74701092D01*
X51144959Y-74676609D01*
X51122577Y-74642013D01*
X51122574Y-74642009D01*
X51119764Y-74637665D01*
X50963887Y-74466358D01*
X50959836Y-74463159D01*
X50959832Y-74463155D01*
X50786177Y-74326011D01*
X50786172Y-74326008D01*
X50782123Y-74322810D01*
X50777607Y-74320317D01*
X50777604Y-74320315D01*
X50583879Y-74213373D01*
X50583875Y-74213371D01*
X50579355Y-74210876D01*
X50574486Y-74209152D01*
X50574482Y-74209150D01*
X50365903Y-74135288D01*
X50365899Y-74135287D01*
X50361028Y-74133562D01*
X50355935Y-74132655D01*
X50355932Y-74132654D01*
X50138095Y-74093851D01*
X50138089Y-74093850D01*
X50133006Y-74092945D01*
X50055644Y-74092000D01*
X49906581Y-74090179D01*
X49906579Y-74090179D01*
X49901411Y-74090116D01*
X49672464Y-74125150D01*
X49452314Y-74197106D01*
X49447726Y-74199494D01*
X49447722Y-74199496D01*
X49251461Y-74301663D01*
X49246872Y-74304052D01*
X49242739Y-74307155D01*
X49242736Y-74307157D01*
X49065790Y-74440012D01*
X49061655Y-74443117D01*
X49061066Y-74442333D01*
X49001346Y-74470484D01*
X48930955Y-74461231D01*
X48876741Y-74415391D01*
X48863925Y-74390224D01*
X48853323Y-74361944D01*
X48844786Y-74346351D01*
X48768285Y-74244276D01*
X48755724Y-74231715D01*
X48653649Y-74155214D01*
X48638054Y-74146676D01*
X48517606Y-74101522D01*
X48502351Y-74097895D01*
X48451486Y-74092369D01*
X48444672Y-74092000D01*
X47772115Y-74092000D01*
X47756876Y-74096475D01*
X47755671Y-74097865D01*
X47754000Y-74105548D01*
X47754000Y-76889884D01*
X47758475Y-76905123D01*
X47759865Y-76906328D01*
X47767548Y-76907999D01*
X48444669Y-76907999D01*
X48451490Y-76907629D01*
X48502352Y-76902105D01*
X48517604Y-76898479D01*
X48638054Y-76853324D01*
X48653649Y-76844786D01*
X48755724Y-76768285D01*
X48768285Y-76755724D01*
X48844786Y-76653649D01*
X48853325Y-76638052D01*
X48865278Y-76606167D01*
X48907919Y-76549402D01*
X48974480Y-76524702D01*
X49043829Y-76539909D01*
X49063744Y-76553451D01*
X49095984Y-76580217D01*
X49135620Y-76639120D01*
X49141500Y-76677162D01*
X49141500Y-77535537D01*
X49123276Y-77600807D01*
X49074528Y-77681301D01*
X49072257Y-77688548D01*
X49072256Y-77688550D01*
X49057313Y-77736233D01*
X49023247Y-77844938D01*
X49016500Y-77918365D01*
X49016501Y-78431634D01*
X49016764Y-78434492D01*
X49016764Y-78434501D01*
X49020026Y-78470004D01*
X49023247Y-78505062D01*
X49074528Y-78668699D01*
X49163361Y-78815381D01*
X49199385Y-78851405D01*
X49233411Y-78913717D01*
X49228346Y-78984532D01*
X49185799Y-79041368D01*
X49119279Y-79066179D01*
X49110290Y-79066500D01*
X47991371Y-79066500D01*
X47923250Y-79046498D01*
X47902276Y-79029595D01*
X46295405Y-77422724D01*
X46261379Y-77360412D01*
X46258500Y-77333629D01*
X46258500Y-76996342D01*
X46278502Y-76928221D01*
X46332158Y-76881728D01*
X46402432Y-76871624D01*
X46428730Y-76878360D01*
X46482395Y-76898478D01*
X46497649Y-76902105D01*
X46548514Y-76907631D01*
X46555328Y-76908000D01*
X47227885Y-76908000D01*
X47243124Y-76903525D01*
X47244329Y-76902135D01*
X47246000Y-76894452D01*
X47246000Y-74110116D01*
X47241525Y-74094877D01*
X47240135Y-74093672D01*
X47232452Y-74092001D01*
X46555331Y-74092001D01*
X46548510Y-74092371D01*
X46497648Y-74097895D01*
X46482397Y-74101521D01*
X46428730Y-74121640D01*
X46357923Y-74126823D01*
X46295554Y-74092903D01*
X46261425Y-74030648D01*
X46258500Y-74003658D01*
X46258500Y-73166371D01*
X46278502Y-73098250D01*
X46295405Y-73077276D01*
X50488911Y-68883770D01*
X50503323Y-68871384D01*
X50514918Y-68862851D01*
X50514923Y-68862846D01*
X50520818Y-68858508D01*
X50525557Y-68852930D01*
X50525560Y-68852927D01*
X50555035Y-68818232D01*
X50561965Y-68810716D01*
X50567660Y-68805021D01*
X50585281Y-68782749D01*
X50588072Y-68779345D01*
X50630591Y-68729297D01*
X50630592Y-68729295D01*
X50635333Y-68723715D01*
X50638661Y-68717199D01*
X50642028Y-68712150D01*
X50645195Y-68707021D01*
X50649734Y-68701284D01*
X50680655Y-68635125D01*
X50682561Y-68631225D01*
X50715769Y-68566192D01*
X50717508Y-68559084D01*
X50719607Y-68553441D01*
X50721524Y-68547678D01*
X50724622Y-68541050D01*
X50739487Y-68469583D01*
X50740457Y-68465299D01*
X50756473Y-68399845D01*
X50757808Y-68394390D01*
X50758500Y-68383236D01*
X50758536Y-68383238D01*
X50758775Y-68379245D01*
X50759149Y-68375053D01*
X50760640Y-68367885D01*
X50759585Y-68328884D01*
X52931500Y-68328884D01*
X52931665Y-68331152D01*
X52931665Y-68331164D01*
X52939725Y-68442238D01*
X52946125Y-68530451D01*
X52947109Y-68534906D01*
X52947109Y-68534909D01*
X53001446Y-68781018D01*
X53004585Y-68795237D01*
X53100655Y-69048810D01*
X53232324Y-69285859D01*
X53396833Y-69501417D01*
X53590736Y-69690970D01*
X53809972Y-69850547D01*
X54049947Y-69976804D01*
X54054248Y-69978323D01*
X54054253Y-69978325D01*
X54187087Y-70025233D01*
X54305634Y-70067096D01*
X54403653Y-70086415D01*
X54567206Y-70118652D01*
X54567212Y-70118653D01*
X54571678Y-70119533D01*
X54576232Y-70119760D01*
X54576234Y-70119760D01*
X54837936Y-70132789D01*
X54837942Y-70132789D01*
X54842505Y-70133016D01*
X55112441Y-70107262D01*
X55116870Y-70106178D01*
X55116877Y-70106177D01*
X55276584Y-70067096D01*
X55375832Y-70042810D01*
X55535039Y-69978325D01*
X55622931Y-69942725D01*
X55622932Y-69942725D01*
X55627160Y-69941012D01*
X55861161Y-69803999D01*
X56072932Y-69634641D01*
X56194399Y-69504612D01*
X56254921Y-69439824D01*
X56254923Y-69439821D01*
X56258037Y-69436488D01*
X56412598Y-69213688D01*
X56494624Y-69048810D01*
X56531346Y-68974997D01*
X56531347Y-68974994D01*
X56533379Y-68970910D01*
X56617847Y-68713240D01*
X56632087Y-68631225D01*
X56663579Y-68449856D01*
X56663580Y-68449848D01*
X56664235Y-68446075D01*
X56667615Y-68378174D01*
X56668422Y-68361971D01*
X56668422Y-68361963D01*
X56668500Y-68360400D01*
X56668500Y-67671116D01*
X56666328Y-67641170D01*
X56654205Y-67474100D01*
X56653875Y-67469549D01*
X56652891Y-67465091D01*
X56596400Y-67209223D01*
X56596399Y-67209219D01*
X56595415Y-67204763D01*
X56499345Y-66951190D01*
X56367676Y-66714141D01*
X56203167Y-66498583D01*
X56009264Y-66309030D01*
X55790028Y-66149453D01*
X55550053Y-66023196D01*
X55545752Y-66021677D01*
X55545747Y-66021675D01*
X55367998Y-65958906D01*
X55294366Y-65932904D01*
X55196347Y-65913585D01*
X55032794Y-65881348D01*
X55032788Y-65881347D01*
X55028322Y-65880467D01*
X55023768Y-65880240D01*
X55023766Y-65880240D01*
X54762064Y-65867211D01*
X54762058Y-65867211D01*
X54757495Y-65866984D01*
X54487559Y-65892738D01*
X54483130Y-65893822D01*
X54483123Y-65893823D01*
X54353069Y-65925648D01*
X54224168Y-65957190D01*
X54219933Y-65958905D01*
X54219931Y-65958906D01*
X53977069Y-66057275D01*
X53972840Y-66058988D01*
X53738839Y-66196001D01*
X53527068Y-66365359D01*
X53523947Y-66368700D01*
X53399224Y-66502215D01*
X53341963Y-66563512D01*
X53187402Y-66786312D01*
X53185374Y-66790388D01*
X53185373Y-66790390D01*
X53103252Y-66955460D01*
X53066621Y-67029090D01*
X52982153Y-67286760D01*
X52935765Y-67553925D01*
X52931500Y-67639600D01*
X52931500Y-68328884D01*
X50759585Y-68328884D01*
X50758546Y-68290479D01*
X50758500Y-68287072D01*
X50758500Y-63595710D01*
X50778502Y-63527589D01*
X50795405Y-63506615D01*
X50836639Y-63465381D01*
X50925472Y-63318699D01*
X50976753Y-63155062D01*
X50983500Y-63081635D01*
X50983499Y-62568366D01*
X50983234Y-62565474D01*
X50977364Y-62501592D01*
X50976753Y-62494938D01*
X50925472Y-62331301D01*
X50836639Y-62184619D01*
X50741115Y-62089095D01*
X50707089Y-62026783D01*
X50712154Y-61955968D01*
X50741115Y-61910905D01*
X50836639Y-61815381D01*
X50925472Y-61668699D01*
X50976753Y-61505062D01*
X50983500Y-61431635D01*
X50983499Y-60918366D01*
X50983234Y-60915474D01*
X50977364Y-60851592D01*
X50976753Y-60844938D01*
X50925472Y-60681301D01*
X50876724Y-60600807D01*
X50858500Y-60535537D01*
X50858500Y-59682723D01*
X50878502Y-59614602D01*
X50904942Y-59586848D01*
X50904085Y-59585834D01*
X50908040Y-59582492D01*
X50912243Y-59579494D01*
X51076303Y-59416005D01*
X51145370Y-59319888D01*
X51201365Y-59276240D01*
X51272068Y-59269794D01*
X51335033Y-59302597D01*
X51355128Y-59327584D01*
X51356799Y-59330311D01*
X51356804Y-59330317D01*
X51359501Y-59334719D01*
X51511147Y-59509784D01*
X51689349Y-59657730D01*
X51889322Y-59774584D01*
X52105694Y-59857209D01*
X52110760Y-59858240D01*
X52110761Y-59858240D01*
X52163846Y-59869040D01*
X52332656Y-59903385D01*
X52463324Y-59908176D01*
X52558949Y-59911683D01*
X52558953Y-59911683D01*
X52564113Y-59911872D01*
X52569233Y-59911216D01*
X52569235Y-59911216D01*
X52668668Y-59898478D01*
X52793847Y-59882442D01*
X52798795Y-59880957D01*
X52798802Y-59880956D01*
X53010747Y-59817369D01*
X53015690Y-59815886D01*
X53096236Y-59776427D01*
X53219049Y-59716262D01*
X53219052Y-59716260D01*
X53223684Y-59713991D01*
X53412243Y-59579494D01*
X53576303Y-59416005D01*
X53711458Y-59227917D01*
X53814078Y-59020280D01*
X53881408Y-58798671D01*
X53911640Y-58569041D01*
X53913327Y-58500000D01*
X53907032Y-58423434D01*
X53894773Y-58274318D01*
X53894772Y-58274312D01*
X53894349Y-58269167D01*
X53837925Y-58044533D01*
X53745570Y-57832131D01*
X53619764Y-57637665D01*
X53463887Y-57466358D01*
X53459836Y-57463159D01*
X53459832Y-57463155D01*
X53286177Y-57326011D01*
X53286172Y-57326008D01*
X53282123Y-57322810D01*
X53277607Y-57320317D01*
X53277604Y-57320315D01*
X53083879Y-57213373D01*
X53083875Y-57213371D01*
X53079355Y-57210876D01*
X53074486Y-57209152D01*
X53074482Y-57209150D01*
X52865903Y-57135288D01*
X52865899Y-57135287D01*
X52861028Y-57133562D01*
X52855935Y-57132655D01*
X52855932Y-57132654D01*
X52638095Y-57093851D01*
X52638089Y-57093850D01*
X52633006Y-57092945D01*
X52555644Y-57092000D01*
X52406581Y-57090179D01*
X52406579Y-57090179D01*
X52401411Y-57090116D01*
X52172464Y-57125150D01*
X51952314Y-57197106D01*
X51947726Y-57199494D01*
X51947722Y-57199496D01*
X51751461Y-57301663D01*
X51746872Y-57304052D01*
X51742739Y-57307155D01*
X51742736Y-57307157D01*
X51565790Y-57440012D01*
X51561655Y-57443117D01*
X51401639Y-57610564D01*
X51354836Y-57679174D01*
X51299927Y-57724175D01*
X51229402Y-57732346D01*
X51165655Y-57701092D01*
X51144959Y-57676609D01*
X51122577Y-57642013D01*
X51122574Y-57642009D01*
X51119764Y-57637665D01*
X50963887Y-57466358D01*
X50959836Y-57463159D01*
X50959832Y-57463155D01*
X50786177Y-57326011D01*
X50786172Y-57326008D01*
X50782123Y-57322810D01*
X50777607Y-57320317D01*
X50777604Y-57320315D01*
X50583879Y-57213373D01*
X50583875Y-57213371D01*
X50579355Y-57210876D01*
X50574486Y-57209152D01*
X50574482Y-57209150D01*
X50365903Y-57135288D01*
X50365899Y-57135287D01*
X50361028Y-57133562D01*
X50355935Y-57132655D01*
X50355932Y-57132654D01*
X50138095Y-57093851D01*
X50138089Y-57093850D01*
X50133006Y-57092945D01*
X50055644Y-57092000D01*
X49906581Y-57090179D01*
X49906579Y-57090179D01*
X49901411Y-57090116D01*
X49672464Y-57125150D01*
X49452314Y-57197106D01*
X49447726Y-57199494D01*
X49447722Y-57199496D01*
X49251461Y-57301663D01*
X49246872Y-57304052D01*
X49242739Y-57307155D01*
X49242736Y-57307157D01*
X49065790Y-57440012D01*
X49061655Y-57443117D01*
X49061066Y-57442333D01*
X49001346Y-57470484D01*
X48930955Y-57461231D01*
X48876741Y-57415391D01*
X48863925Y-57390224D01*
X48853323Y-57361944D01*
X48844786Y-57346351D01*
X48768285Y-57244276D01*
X48755724Y-57231715D01*
X48653649Y-57155214D01*
X48638054Y-57146676D01*
X48517606Y-57101522D01*
X48502351Y-57097895D01*
X48451486Y-57092369D01*
X48444672Y-57092000D01*
X47772115Y-57092000D01*
X47756876Y-57096475D01*
X47755671Y-57097865D01*
X47754000Y-57105548D01*
X47754000Y-59889884D01*
X47758475Y-59905123D01*
X47759865Y-59906328D01*
X47767548Y-59907999D01*
X48444669Y-59907999D01*
X48451490Y-59907629D01*
X48502352Y-59902105D01*
X48517604Y-59898479D01*
X48638054Y-59853324D01*
X48653649Y-59844786D01*
X48755724Y-59768285D01*
X48768285Y-59755724D01*
X48844786Y-59653649D01*
X48853325Y-59638052D01*
X48865278Y-59606167D01*
X48907919Y-59549402D01*
X48974480Y-59524702D01*
X49043829Y-59539909D01*
X49063744Y-59553451D01*
X49095984Y-59580217D01*
X49135620Y-59639120D01*
X49141500Y-59677162D01*
X49141500Y-60535537D01*
X49123276Y-60600807D01*
X49074528Y-60681301D01*
X49023247Y-60844938D01*
X49016500Y-60918365D01*
X49016501Y-61431634D01*
X49016764Y-61434492D01*
X49016764Y-61434501D01*
X49020026Y-61470004D01*
X49023247Y-61505062D01*
X49074528Y-61668699D01*
X49163361Y-61815381D01*
X49258885Y-61910905D01*
X49292911Y-61973217D01*
X49287846Y-62044032D01*
X49258885Y-62089095D01*
X49163361Y-62184619D01*
X49074528Y-62331301D01*
X49023247Y-62494938D01*
X49016500Y-62568365D01*
X49016501Y-63081634D01*
X49016764Y-63084492D01*
X49016764Y-63084501D01*
X49020026Y-63120004D01*
X49023247Y-63155062D01*
X49074528Y-63318699D01*
X49163361Y-63465381D01*
X49204595Y-63506615D01*
X49238621Y-63568927D01*
X49241500Y-63595710D01*
X49241500Y-67933629D01*
X49221498Y-68001750D01*
X49204595Y-68022724D01*
X45011089Y-72216230D01*
X44996677Y-72228616D01*
X44985082Y-72237149D01*
X44985077Y-72237154D01*
X44979182Y-72241492D01*
X44974443Y-72247070D01*
X44974440Y-72247073D01*
X44944965Y-72281768D01*
X44938035Y-72289284D01*
X44932340Y-72294979D01*
X44930060Y-72297861D01*
X44914719Y-72317251D01*
X44911928Y-72320655D01*
X44869409Y-72370703D01*
X44864667Y-72376285D01*
X44861339Y-72382801D01*
X44857972Y-72387850D01*
X44854805Y-72392979D01*
X44850266Y-72398716D01*
X44819345Y-72464875D01*
X44817442Y-72468769D01*
X44784231Y-72533808D01*
X44782492Y-72540916D01*
X44780393Y-72546559D01*
X44778476Y-72552322D01*
X44775378Y-72558950D01*
X44773888Y-72566112D01*
X44773888Y-72566113D01*
X44760514Y-72630412D01*
X44759544Y-72634696D01*
X44742192Y-72705610D01*
X44741500Y-72716764D01*
X44741464Y-72716762D01*
X44741225Y-72720755D01*
X44740851Y-72724947D01*
X44739360Y-72732115D01*
X44739558Y-72739432D01*
X44741454Y-72809521D01*
X44741500Y-72812928D01*
X44741500Y-77632930D01*
X44740067Y-77651880D01*
X44736801Y-77673349D01*
X44737394Y-77680641D01*
X44737394Y-77680644D01*
X44741085Y-77726018D01*
X44741500Y-77736233D01*
X44741500Y-77744293D01*
X44741925Y-77747937D01*
X44744789Y-77772507D01*
X44745222Y-77776882D01*
X44750239Y-77838554D01*
X44751140Y-77849637D01*
X44753396Y-77856601D01*
X44754587Y-77862560D01*
X44755971Y-77868415D01*
X44756818Y-77875681D01*
X44781735Y-77944327D01*
X44783152Y-77948455D01*
X44805649Y-78017899D01*
X44809445Y-78024154D01*
X44811951Y-78029628D01*
X44814670Y-78035058D01*
X44817167Y-78041937D01*
X44821180Y-78048057D01*
X44821180Y-78048058D01*
X44857186Y-78102976D01*
X44859523Y-78106680D01*
X44897405Y-78169107D01*
X44901121Y-78173315D01*
X44901122Y-78173316D01*
X44904803Y-78177484D01*
X44904776Y-78177508D01*
X44907429Y-78180500D01*
X44910132Y-78183733D01*
X44914144Y-78189852D01*
X44919456Y-78194884D01*
X44970383Y-78243128D01*
X44972825Y-78245506D01*
X47041230Y-80313911D01*
X47053616Y-80328323D01*
X47062149Y-80339918D01*
X47062154Y-80339923D01*
X47066492Y-80345818D01*
X47072070Y-80350557D01*
X47072073Y-80350560D01*
X47106768Y-80380035D01*
X47114284Y-80386965D01*
X47119980Y-80392661D01*
X47122841Y-80394924D01*
X47122846Y-80394929D01*
X47142266Y-80410293D01*
X47145667Y-80413082D01*
X47201285Y-80460333D01*
X47207798Y-80463659D01*
X47212837Y-80467020D01*
X47217979Y-80470196D01*
X47223716Y-80474734D01*
X47289875Y-80505655D01*
X47293769Y-80507558D01*
X47358808Y-80540769D01*
X47365917Y-80542508D01*
X47371551Y-80544604D01*
X47377321Y-80546523D01*
X47383950Y-80549622D01*
X47391113Y-80551112D01*
X47391116Y-80551113D01*
X47441830Y-80561661D01*
X47455435Y-80564491D01*
X47459701Y-80565457D01*
X47530610Y-80582808D01*
X47536212Y-80583156D01*
X47536215Y-80583156D01*
X47541764Y-80583500D01*
X47541762Y-80583535D01*
X47545734Y-80583775D01*
X47549955Y-80584152D01*
X47557115Y-80585641D01*
X47634542Y-80583546D01*
X47637950Y-80583500D01*
X49115500Y-80583500D01*
X49183621Y-80603502D01*
X49230114Y-80657158D01*
X49241500Y-80709500D01*
X49241500Y-84633629D01*
X49221498Y-84701750D01*
X49204595Y-84722724D01*
X45011089Y-88916230D01*
X44996677Y-88928616D01*
X44985082Y-88937149D01*
X44985077Y-88937154D01*
X44979182Y-88941492D01*
X44974443Y-88947070D01*
X44974440Y-88947073D01*
X44944965Y-88981768D01*
X44938035Y-88989284D01*
X44932340Y-88994979D01*
X44930060Y-88997861D01*
X44914719Y-89017251D01*
X44911928Y-89020655D01*
X44869409Y-89070703D01*
X44864667Y-89076285D01*
X44861339Y-89082801D01*
X44857972Y-89087850D01*
X44854805Y-89092979D01*
X44850266Y-89098716D01*
X44819345Y-89164875D01*
X44817442Y-89168769D01*
X44784231Y-89233808D01*
X44782492Y-89240916D01*
X44780393Y-89246559D01*
X44778476Y-89252322D01*
X44775378Y-89258950D01*
X44773888Y-89266112D01*
X44773888Y-89266113D01*
X44760514Y-89330412D01*
X44759544Y-89334696D01*
X44742192Y-89405610D01*
X44741500Y-89416764D01*
X44741464Y-89416762D01*
X44741225Y-89420755D01*
X44740851Y-89424947D01*
X44739360Y-89432115D01*
X44739558Y-89439432D01*
X44741454Y-89509521D01*
X44741500Y-89512928D01*
X44741500Y-94932930D01*
X44740067Y-94951880D01*
X44736801Y-94973349D01*
X44737394Y-94980641D01*
X44737394Y-94980644D01*
X44741085Y-95026018D01*
X44741500Y-95036233D01*
X44741500Y-95044293D01*
X44741925Y-95047937D01*
X44744789Y-95072507D01*
X44745222Y-95076882D01*
X44751140Y-95149637D01*
X44753396Y-95156601D01*
X44754587Y-95162560D01*
X44755971Y-95168415D01*
X44756818Y-95175681D01*
X44781735Y-95244327D01*
X44783152Y-95248455D01*
X44805649Y-95317899D01*
X44809445Y-95324154D01*
X44811951Y-95329628D01*
X44814670Y-95335058D01*
X44817167Y-95341937D01*
X44821180Y-95348057D01*
X44821180Y-95348058D01*
X44857186Y-95402976D01*
X44859523Y-95406680D01*
X44897405Y-95469107D01*
X44901121Y-95473315D01*
X44901122Y-95473316D01*
X44904803Y-95477484D01*
X44904776Y-95477508D01*
X44907429Y-95480500D01*
X44910132Y-95483733D01*
X44914144Y-95489852D01*
X44919456Y-95494884D01*
X44970383Y-95543128D01*
X44972825Y-95545506D01*
X46741230Y-97313911D01*
X46753616Y-97328323D01*
X46762149Y-97339918D01*
X46762154Y-97339923D01*
X46766492Y-97345818D01*
X46772070Y-97350557D01*
X46772073Y-97350560D01*
X46806768Y-97380035D01*
X46814284Y-97386965D01*
X46819980Y-97392661D01*
X46822841Y-97394924D01*
X46822846Y-97394929D01*
X46842266Y-97410293D01*
X46845667Y-97413082D01*
X46901285Y-97460333D01*
X46907798Y-97463659D01*
X46912837Y-97467020D01*
X46917979Y-97470196D01*
X46923716Y-97474734D01*
X46989875Y-97505655D01*
X46993769Y-97507558D01*
X47058808Y-97540769D01*
X47065917Y-97542508D01*
X47071551Y-97544604D01*
X47077321Y-97546523D01*
X47083950Y-97549622D01*
X47091113Y-97551112D01*
X47091116Y-97551113D01*
X47141830Y-97561661D01*
X47155435Y-97564491D01*
X47159701Y-97565457D01*
X47230610Y-97582808D01*
X47236212Y-97583156D01*
X47236215Y-97583156D01*
X47241764Y-97583500D01*
X47241762Y-97583535D01*
X47245734Y-97583775D01*
X47249955Y-97584152D01*
X47257115Y-97585641D01*
X47334542Y-97583546D01*
X47337950Y-97583500D01*
X49115500Y-97583500D01*
X49183621Y-97603502D01*
X49230114Y-97657158D01*
X49241500Y-97709500D01*
X49241500Y-102333629D01*
X49221498Y-102401750D01*
X49204595Y-102422724D01*
X45011089Y-106616230D01*
X44996677Y-106628616D01*
X44985082Y-106637149D01*
X44985077Y-106637154D01*
X44979182Y-106641492D01*
X44974443Y-106647070D01*
X44974440Y-106647073D01*
X44944965Y-106681768D01*
X44938035Y-106689284D01*
X44932340Y-106694979D01*
X44930060Y-106697861D01*
X44914719Y-106717251D01*
X44911928Y-106720655D01*
X44869409Y-106770703D01*
X44864667Y-106776285D01*
X44861339Y-106782801D01*
X44857972Y-106787850D01*
X44854805Y-106792979D01*
X44850266Y-106798716D01*
X44819345Y-106864875D01*
X44817442Y-106868769D01*
X44784231Y-106933808D01*
X44782492Y-106940916D01*
X44780393Y-106946559D01*
X44778476Y-106952322D01*
X44775378Y-106958950D01*
X44773888Y-106966112D01*
X44773888Y-106966113D01*
X44760514Y-107030412D01*
X44759544Y-107034696D01*
X44742192Y-107105610D01*
X44741500Y-107116764D01*
X44741464Y-107116762D01*
X44741225Y-107120755D01*
X44740851Y-107124947D01*
X44739360Y-107132115D01*
X44739558Y-107139432D01*
X44741454Y-107209521D01*
X44741500Y-107212928D01*
X44741500Y-111432930D01*
X44740067Y-111451880D01*
X44736801Y-111473349D01*
X44737394Y-111480641D01*
X44737394Y-111480644D01*
X44741085Y-111526018D01*
X44741500Y-111536233D01*
X44741500Y-111544293D01*
X44741925Y-111547937D01*
X44744789Y-111572507D01*
X44745222Y-111576882D01*
X44751140Y-111649637D01*
X44753396Y-111656601D01*
X44754587Y-111662560D01*
X44755971Y-111668415D01*
X44756818Y-111675681D01*
X44781735Y-111744327D01*
X44783152Y-111748455D01*
X44805649Y-111817899D01*
X44809445Y-111824154D01*
X44811951Y-111829628D01*
X44814670Y-111835058D01*
X44817167Y-111841937D01*
X44821180Y-111848057D01*
X44821180Y-111848058D01*
X44857186Y-111902976D01*
X44859523Y-111906680D01*
X44897405Y-111969107D01*
X44901121Y-111973315D01*
X44901122Y-111973316D01*
X44904803Y-111977484D01*
X44904776Y-111977508D01*
X44907429Y-111980500D01*
X44910132Y-111983733D01*
X44914144Y-111989852D01*
X44919456Y-111994884D01*
X44970383Y-112043128D01*
X44972825Y-112045506D01*
X46741230Y-113813911D01*
X46753616Y-113828323D01*
X46762149Y-113839918D01*
X46762154Y-113839923D01*
X46766492Y-113845818D01*
X46772070Y-113850557D01*
X46772073Y-113850560D01*
X46772561Y-113850974D01*
X46772802Y-113851341D01*
X46777061Y-113855908D01*
X46776279Y-113856637D01*
X46811526Y-113910323D01*
X46812219Y-113981316D01*
X46774420Y-114041414D01*
X46730861Y-114066521D01*
X46686732Y-114081244D01*
X46541287Y-114171248D01*
X46536114Y-114176430D01*
X46482522Y-114230115D01*
X46420239Y-114264194D01*
X46349419Y-114259191D01*
X46292546Y-114216693D01*
X46285916Y-114206932D01*
X46280600Y-114198257D01*
X46276925Y-114192260D01*
X46116073Y-114003927D01*
X45927740Y-113843075D01*
X45716563Y-113713666D01*
X45711993Y-113711773D01*
X45711989Y-113711771D01*
X45492315Y-113620779D01*
X45492313Y-113620778D01*
X45487742Y-113618885D01*
X45402830Y-113598499D01*
X45251724Y-113562221D01*
X45251718Y-113562220D01*
X45246911Y-113561066D01*
X45000000Y-113541634D01*
X44753089Y-113561066D01*
X44748282Y-113562220D01*
X44748276Y-113562221D01*
X44597170Y-113598499D01*
X44512258Y-113618885D01*
X44507687Y-113620778D01*
X44507685Y-113620779D01*
X44288011Y-113711771D01*
X44288007Y-113711773D01*
X44283437Y-113713666D01*
X44072260Y-113843075D01*
X43883927Y-114003927D01*
X43723075Y-114192260D01*
X43593666Y-114403437D01*
X43591773Y-114408007D01*
X43591771Y-114408011D01*
X43509785Y-114605943D01*
X43498885Y-114632258D01*
X43489521Y-114671263D01*
X43442221Y-114868276D01*
X43442220Y-114868282D01*
X43441066Y-114873089D01*
X43421634Y-115120000D01*
X43441066Y-115366911D01*
X43442220Y-115371718D01*
X43442221Y-115371724D01*
X43478499Y-115522830D01*
X43498885Y-115607742D01*
X43500778Y-115612313D01*
X43500779Y-115612315D01*
X43580146Y-115803922D01*
X43593666Y-115836563D01*
X43723075Y-116047740D01*
X43726282Y-116051494D01*
X43726290Y-116051506D01*
X43834899Y-116178670D01*
X43863930Y-116243459D01*
X43853325Y-116313659D01*
X43806450Y-116366982D01*
X43739088Y-116386500D01*
X42233922Y-116386500D01*
X42225352Y-116386208D01*
X42175224Y-116382790D01*
X42175220Y-116382790D01*
X42167648Y-116382274D01*
X42104681Y-116393264D01*
X42098169Y-116394224D01*
X42034758Y-116401898D01*
X42027657Y-116404581D01*
X42025048Y-116405222D01*
X42008715Y-116409691D01*
X42006195Y-116410452D01*
X41998717Y-116411757D01*
X41991765Y-116414809D01*
X41991764Y-116414809D01*
X41940204Y-116437441D01*
X41934099Y-116439932D01*
X41881456Y-116459825D01*
X41881452Y-116459827D01*
X41874344Y-116462513D01*
X41868083Y-116466816D01*
X41865717Y-116468053D01*
X41850937Y-116476280D01*
X41848652Y-116477631D01*
X41841695Y-116480685D01*
X41835675Y-116485305D01*
X41835669Y-116485308D01*
X41804542Y-116509194D01*
X41790998Y-116519587D01*
X41785668Y-116523459D01*
X41739280Y-116555339D01*
X41739275Y-116555344D01*
X41733019Y-116559643D01*
X41727968Y-116565313D01*
X41727966Y-116565314D01*
X41691565Y-116606170D01*
X41686584Y-116611446D01*
X41223595Y-117074435D01*
X41161283Y-117108461D01*
X41090468Y-117103396D01*
X41033632Y-117060849D01*
X41008821Y-116994329D01*
X41008500Y-116985340D01*
X41008500Y-102328884D01*
X43331500Y-102328884D01*
X43331665Y-102331152D01*
X43331665Y-102331164D01*
X43335631Y-102385819D01*
X43346125Y-102530451D01*
X43347109Y-102534906D01*
X43347109Y-102534909D01*
X43403161Y-102788785D01*
X43404585Y-102795237D01*
X43406203Y-102799507D01*
X43493993Y-103031225D01*
X43500655Y-103048810D01*
X43632324Y-103285859D01*
X43796833Y-103501417D01*
X43990736Y-103690970D01*
X44209972Y-103850547D01*
X44449947Y-103976804D01*
X44454248Y-103978323D01*
X44454253Y-103978325D01*
X44587087Y-104025233D01*
X44705634Y-104067096D01*
X44803653Y-104086415D01*
X44967206Y-104118652D01*
X44967212Y-104118653D01*
X44971678Y-104119533D01*
X44976232Y-104119760D01*
X44976234Y-104119760D01*
X45237936Y-104132789D01*
X45237942Y-104132789D01*
X45242505Y-104133016D01*
X45512441Y-104107262D01*
X45516870Y-104106178D01*
X45516877Y-104106177D01*
X45676584Y-104067096D01*
X45775832Y-104042810D01*
X45935039Y-103978325D01*
X46022931Y-103942725D01*
X46022932Y-103942725D01*
X46027160Y-103941012D01*
X46261161Y-103803999D01*
X46472932Y-103634641D01*
X46594399Y-103504612D01*
X46654921Y-103439824D01*
X46654923Y-103439821D01*
X46658037Y-103436488D01*
X46812598Y-103213688D01*
X46814627Y-103209610D01*
X46931346Y-102974997D01*
X46931347Y-102974994D01*
X46933379Y-102970910D01*
X47017847Y-102713240D01*
X47064235Y-102446075D01*
X47068500Y-102360400D01*
X47068500Y-101671116D01*
X47066328Y-101641170D01*
X47054205Y-101474100D01*
X47053875Y-101469549D01*
X47052891Y-101465091D01*
X46996400Y-101209223D01*
X46996399Y-101209219D01*
X46995415Y-101204763D01*
X46899345Y-100951190D01*
X46767676Y-100714141D01*
X46603167Y-100498583D01*
X46409264Y-100309030D01*
X46190028Y-100149453D01*
X45950053Y-100023196D01*
X45945752Y-100021677D01*
X45945747Y-100021675D01*
X45767998Y-99958906D01*
X45694366Y-99932904D01*
X45596347Y-99913585D01*
X45432794Y-99881348D01*
X45432788Y-99881347D01*
X45428322Y-99880467D01*
X45423768Y-99880240D01*
X45423766Y-99880240D01*
X45162064Y-99867211D01*
X45162058Y-99867211D01*
X45157495Y-99866984D01*
X44887559Y-99892738D01*
X44883130Y-99893822D01*
X44883123Y-99893823D01*
X44753069Y-99925648D01*
X44624168Y-99957190D01*
X44619933Y-99958905D01*
X44619931Y-99958906D01*
X44377069Y-100057275D01*
X44372840Y-100058988D01*
X44138839Y-100196001D01*
X43927068Y-100365359D01*
X43923947Y-100368700D01*
X43799224Y-100502215D01*
X43741963Y-100563512D01*
X43587402Y-100786312D01*
X43585374Y-100790388D01*
X43585373Y-100790390D01*
X43503252Y-100955460D01*
X43466621Y-101029090D01*
X43382153Y-101286760D01*
X43335765Y-101553925D01*
X43331500Y-101639600D01*
X43331500Y-102328884D01*
X41008500Y-102328884D01*
X41008500Y-85328884D01*
X43331500Y-85328884D01*
X43331665Y-85331152D01*
X43331665Y-85331164D01*
X43338786Y-85429297D01*
X43346125Y-85530451D01*
X43347109Y-85534906D01*
X43347109Y-85534909D01*
X43386482Y-85713240D01*
X43404585Y-85795237D01*
X43500655Y-86048810D01*
X43632324Y-86285859D01*
X43796833Y-86501417D01*
X43990736Y-86690970D01*
X44209972Y-86850547D01*
X44449947Y-86976804D01*
X44454248Y-86978323D01*
X44454253Y-86978325D01*
X44587087Y-87025233D01*
X44705634Y-87067096D01*
X44803653Y-87086415D01*
X44967206Y-87118652D01*
X44967212Y-87118653D01*
X44971678Y-87119533D01*
X44976232Y-87119760D01*
X44976234Y-87119760D01*
X45237936Y-87132789D01*
X45237942Y-87132789D01*
X45242505Y-87133016D01*
X45512441Y-87107262D01*
X45516870Y-87106178D01*
X45516877Y-87106177D01*
X45676584Y-87067096D01*
X45775832Y-87042810D01*
X45935039Y-86978325D01*
X46022931Y-86942725D01*
X46022932Y-86942725D01*
X46027160Y-86941012D01*
X46261161Y-86803999D01*
X46472932Y-86634641D01*
X46594399Y-86504612D01*
X46654921Y-86439824D01*
X46654923Y-86439821D01*
X46658037Y-86436488D01*
X46812598Y-86213688D01*
X46894624Y-86048810D01*
X46931346Y-85974997D01*
X46931347Y-85974994D01*
X46933379Y-85970910D01*
X47017847Y-85713240D01*
X47043959Y-85562851D01*
X47063579Y-85449856D01*
X47063580Y-85449848D01*
X47064235Y-85446075D01*
X47068500Y-85360400D01*
X47068500Y-84671116D01*
X47066328Y-84641170D01*
X47054205Y-84474100D01*
X47053875Y-84469549D01*
X47052891Y-84465091D01*
X46996400Y-84209223D01*
X46996399Y-84209219D01*
X46995415Y-84204763D01*
X46899345Y-83951190D01*
X46767676Y-83714141D01*
X46603167Y-83498583D01*
X46409264Y-83309030D01*
X46190028Y-83149453D01*
X45950053Y-83023196D01*
X45945752Y-83021677D01*
X45945747Y-83021675D01*
X45767998Y-82958906D01*
X45694366Y-82932904D01*
X45596347Y-82913585D01*
X45432794Y-82881348D01*
X45432788Y-82881347D01*
X45428322Y-82880467D01*
X45423768Y-82880240D01*
X45423766Y-82880240D01*
X45162064Y-82867211D01*
X45162058Y-82867211D01*
X45157495Y-82866984D01*
X44887559Y-82892738D01*
X44883130Y-82893822D01*
X44883123Y-82893823D01*
X44753069Y-82925648D01*
X44624168Y-82957190D01*
X44619933Y-82958905D01*
X44619931Y-82958906D01*
X44377069Y-83057275D01*
X44372840Y-83058988D01*
X44138839Y-83196001D01*
X43927068Y-83365359D01*
X43923947Y-83368700D01*
X43799224Y-83502215D01*
X43741963Y-83563512D01*
X43587402Y-83786312D01*
X43585374Y-83790388D01*
X43585373Y-83790390D01*
X43503252Y-83955460D01*
X43466621Y-84029090D01*
X43382153Y-84286760D01*
X43335765Y-84553925D01*
X43331500Y-84639600D01*
X43331500Y-85328884D01*
X41008500Y-85328884D01*
X41008500Y-68328884D01*
X43331500Y-68328884D01*
X43331665Y-68331152D01*
X43331665Y-68331164D01*
X43339725Y-68442238D01*
X43346125Y-68530451D01*
X43347109Y-68534906D01*
X43347109Y-68534909D01*
X43401446Y-68781018D01*
X43404585Y-68795237D01*
X43500655Y-69048810D01*
X43632324Y-69285859D01*
X43796833Y-69501417D01*
X43990736Y-69690970D01*
X44209972Y-69850547D01*
X44449947Y-69976804D01*
X44454248Y-69978323D01*
X44454253Y-69978325D01*
X44587087Y-70025233D01*
X44705634Y-70067096D01*
X44803653Y-70086415D01*
X44967206Y-70118652D01*
X44967212Y-70118653D01*
X44971678Y-70119533D01*
X44976232Y-70119760D01*
X44976234Y-70119760D01*
X45237936Y-70132789D01*
X45237942Y-70132789D01*
X45242505Y-70133016D01*
X45512441Y-70107262D01*
X45516870Y-70106178D01*
X45516877Y-70106177D01*
X45676584Y-70067096D01*
X45775832Y-70042810D01*
X45935039Y-69978325D01*
X46022931Y-69942725D01*
X46022932Y-69942725D01*
X46027160Y-69941012D01*
X46261161Y-69803999D01*
X46472932Y-69634641D01*
X46594399Y-69504612D01*
X46654921Y-69439824D01*
X46654923Y-69439821D01*
X46658037Y-69436488D01*
X46812598Y-69213688D01*
X46894624Y-69048810D01*
X46931346Y-68974997D01*
X46931347Y-68974994D01*
X46933379Y-68970910D01*
X47017847Y-68713240D01*
X47032087Y-68631225D01*
X47063579Y-68449856D01*
X47063580Y-68449848D01*
X47064235Y-68446075D01*
X47067615Y-68378174D01*
X47068422Y-68361971D01*
X47068422Y-68361963D01*
X47068500Y-68360400D01*
X47068500Y-67671116D01*
X47066328Y-67641170D01*
X47054205Y-67474100D01*
X47053875Y-67469549D01*
X47052891Y-67465091D01*
X46996400Y-67209223D01*
X46996399Y-67209219D01*
X46995415Y-67204763D01*
X46899345Y-66951190D01*
X46767676Y-66714141D01*
X46603167Y-66498583D01*
X46409264Y-66309030D01*
X46190028Y-66149453D01*
X45950053Y-66023196D01*
X45945752Y-66021677D01*
X45945747Y-66021675D01*
X45767998Y-65958906D01*
X45694366Y-65932904D01*
X45596347Y-65913585D01*
X45432794Y-65881348D01*
X45432788Y-65881347D01*
X45428322Y-65880467D01*
X45423768Y-65880240D01*
X45423766Y-65880240D01*
X45162064Y-65867211D01*
X45162058Y-65867211D01*
X45157495Y-65866984D01*
X44887559Y-65892738D01*
X44883130Y-65893822D01*
X44883123Y-65893823D01*
X44753069Y-65925648D01*
X44624168Y-65957190D01*
X44619933Y-65958905D01*
X44619931Y-65958906D01*
X44377069Y-66057275D01*
X44372840Y-66058988D01*
X44138839Y-66196001D01*
X43927068Y-66365359D01*
X43923947Y-66368700D01*
X43799224Y-66502215D01*
X43741963Y-66563512D01*
X43587402Y-66786312D01*
X43585374Y-66790388D01*
X43585373Y-66790390D01*
X43503252Y-66955460D01*
X43466621Y-67029090D01*
X43382153Y-67286760D01*
X43335765Y-67553925D01*
X43331500Y-67639600D01*
X43331500Y-68328884D01*
X41008500Y-68328884D01*
X41008500Y-59444669D01*
X46092001Y-59444669D01*
X46092371Y-59451490D01*
X46097895Y-59502352D01*
X46101521Y-59517604D01*
X46146676Y-59638054D01*
X46155214Y-59653649D01*
X46231715Y-59755724D01*
X46244276Y-59768285D01*
X46346351Y-59844786D01*
X46361946Y-59853324D01*
X46482394Y-59898478D01*
X46497649Y-59902105D01*
X46548514Y-59907631D01*
X46555328Y-59908000D01*
X47227885Y-59908000D01*
X47243124Y-59903525D01*
X47244329Y-59902135D01*
X47246000Y-59894452D01*
X47246000Y-58772115D01*
X47241525Y-58756876D01*
X47240135Y-58755671D01*
X47232452Y-58754000D01*
X46110116Y-58754000D01*
X46094877Y-58758475D01*
X46093672Y-58759865D01*
X46092001Y-58767548D01*
X46092001Y-59444669D01*
X41008500Y-59444669D01*
X41008500Y-58227885D01*
X46092000Y-58227885D01*
X46096475Y-58243124D01*
X46097865Y-58244329D01*
X46105548Y-58246000D01*
X47227885Y-58246000D01*
X47243124Y-58241525D01*
X47244329Y-58240135D01*
X47246000Y-58232452D01*
X47246000Y-57110116D01*
X47241525Y-57094877D01*
X47240135Y-57093672D01*
X47232452Y-57092001D01*
X46555331Y-57092001D01*
X46548510Y-57092371D01*
X46497648Y-57097895D01*
X46482396Y-57101521D01*
X46361946Y-57146676D01*
X46346351Y-57155214D01*
X46244276Y-57231715D01*
X46231715Y-57244276D01*
X46155214Y-57346351D01*
X46146676Y-57361946D01*
X46101522Y-57482394D01*
X46097895Y-57497649D01*
X46092369Y-57548514D01*
X46092000Y-57555328D01*
X46092000Y-58227885D01*
X41008500Y-58227885D01*
X41008500Y-51328884D01*
X43331500Y-51328884D01*
X43331665Y-51331152D01*
X43331665Y-51331164D01*
X43339725Y-51442238D01*
X43346125Y-51530451D01*
X43347109Y-51534906D01*
X43347109Y-51534909D01*
X43386482Y-51713240D01*
X43404585Y-51795237D01*
X43500655Y-52048810D01*
X43632324Y-52285859D01*
X43796833Y-52501417D01*
X43990736Y-52690970D01*
X44209972Y-52850547D01*
X44449947Y-52976804D01*
X44454248Y-52978323D01*
X44454253Y-52978325D01*
X44587087Y-53025233D01*
X44705634Y-53067096D01*
X44803653Y-53086415D01*
X44967206Y-53118652D01*
X44967212Y-53118653D01*
X44971678Y-53119533D01*
X44976232Y-53119760D01*
X44976234Y-53119760D01*
X45237936Y-53132789D01*
X45237942Y-53132789D01*
X45242505Y-53133016D01*
X45512441Y-53107262D01*
X45516870Y-53106178D01*
X45516877Y-53106177D01*
X45676584Y-53067096D01*
X45775832Y-53042810D01*
X45935039Y-52978325D01*
X46022931Y-52942725D01*
X46022932Y-52942725D01*
X46027160Y-52941012D01*
X46261161Y-52803999D01*
X46472932Y-52634641D01*
X46594399Y-52504612D01*
X46654921Y-52439824D01*
X46654923Y-52439821D01*
X46658037Y-52436488D01*
X46812598Y-52213688D01*
X46894624Y-52048810D01*
X46931346Y-51974997D01*
X46931347Y-51974994D01*
X46933379Y-51970910D01*
X47017847Y-51713240D01*
X47064235Y-51446075D01*
X47068500Y-51360400D01*
X47068500Y-51328884D01*
X52931500Y-51328884D01*
X52931665Y-51331152D01*
X52931665Y-51331164D01*
X52939725Y-51442238D01*
X52946125Y-51530451D01*
X52947109Y-51534906D01*
X52947109Y-51534909D01*
X52986482Y-51713240D01*
X53004585Y-51795237D01*
X53100655Y-52048810D01*
X53232324Y-52285859D01*
X53396833Y-52501417D01*
X53590736Y-52690970D01*
X53809972Y-52850547D01*
X54049947Y-52976804D01*
X54054248Y-52978323D01*
X54054253Y-52978325D01*
X54187087Y-53025233D01*
X54305634Y-53067096D01*
X54403653Y-53086415D01*
X54567206Y-53118652D01*
X54567212Y-53118653D01*
X54571678Y-53119533D01*
X54576232Y-53119760D01*
X54576234Y-53119760D01*
X54837936Y-53132789D01*
X54837942Y-53132789D01*
X54842505Y-53133016D01*
X55112441Y-53107262D01*
X55116870Y-53106178D01*
X55116877Y-53106177D01*
X55276584Y-53067096D01*
X55375832Y-53042810D01*
X55535039Y-52978325D01*
X55622931Y-52942725D01*
X55622932Y-52942725D01*
X55627160Y-52941012D01*
X55861161Y-52803999D01*
X56072932Y-52634641D01*
X56194399Y-52504612D01*
X56254921Y-52439824D01*
X56254923Y-52439821D01*
X56258037Y-52436488D01*
X56412598Y-52213688D01*
X56494624Y-52048810D01*
X56531346Y-51974997D01*
X56531347Y-51974994D01*
X56533379Y-51970910D01*
X56617847Y-51713240D01*
X56664235Y-51446075D01*
X56668500Y-51360400D01*
X56668500Y-50671116D01*
X56666328Y-50641170D01*
X56654205Y-50474100D01*
X56653875Y-50469549D01*
X56652891Y-50465091D01*
X56596400Y-50209223D01*
X56596399Y-50209219D01*
X56595415Y-50204763D01*
X56499345Y-49951190D01*
X56367676Y-49714141D01*
X56203167Y-49498583D01*
X56009264Y-49309030D01*
X55790028Y-49149453D01*
X55550053Y-49023196D01*
X55545752Y-49021677D01*
X55545747Y-49021675D01*
X55367998Y-48958906D01*
X55294366Y-48932904D01*
X55196347Y-48913585D01*
X55032794Y-48881348D01*
X55032788Y-48881347D01*
X55028322Y-48880467D01*
X55023768Y-48880240D01*
X55023766Y-48880240D01*
X54762064Y-48867211D01*
X54762058Y-48867211D01*
X54757495Y-48866984D01*
X54487559Y-48892738D01*
X54483130Y-48893822D01*
X54483123Y-48893823D01*
X54353069Y-48925648D01*
X54224168Y-48957190D01*
X54219933Y-48958905D01*
X54219931Y-48958906D01*
X53977069Y-49057275D01*
X53972840Y-49058988D01*
X53738839Y-49196001D01*
X53527068Y-49365359D01*
X53523947Y-49368700D01*
X53399224Y-49502215D01*
X53341963Y-49563512D01*
X53187402Y-49786312D01*
X53185374Y-49790388D01*
X53185373Y-49790390D01*
X53103252Y-49955460D01*
X53066621Y-50029090D01*
X52982153Y-50286760D01*
X52935765Y-50553925D01*
X52931500Y-50639600D01*
X52931500Y-51328884D01*
X47068500Y-51328884D01*
X47068500Y-50671116D01*
X47066328Y-50641170D01*
X47054205Y-50474100D01*
X47053875Y-50469549D01*
X47052891Y-50465091D01*
X46996400Y-50209223D01*
X46996399Y-50209219D01*
X46995415Y-50204763D01*
X46899345Y-49951190D01*
X46767676Y-49714141D01*
X46603167Y-49498583D01*
X46409264Y-49309030D01*
X46190028Y-49149453D01*
X45950053Y-49023196D01*
X45945752Y-49021677D01*
X45945747Y-49021675D01*
X45767998Y-48958906D01*
X45694366Y-48932904D01*
X45596347Y-48913585D01*
X45432794Y-48881348D01*
X45432788Y-48881347D01*
X45428322Y-48880467D01*
X45423768Y-48880240D01*
X45423766Y-48880240D01*
X45162064Y-48867211D01*
X45162058Y-48867211D01*
X45157495Y-48866984D01*
X44887559Y-48892738D01*
X44883130Y-48893822D01*
X44883123Y-48893823D01*
X44753069Y-48925648D01*
X44624168Y-48957190D01*
X44619933Y-48958905D01*
X44619931Y-48958906D01*
X44377069Y-49057275D01*
X44372840Y-49058988D01*
X44138839Y-49196001D01*
X43927068Y-49365359D01*
X43923947Y-49368700D01*
X43799224Y-49502215D01*
X43741963Y-49563512D01*
X43587402Y-49786312D01*
X43585374Y-49790388D01*
X43585373Y-49790390D01*
X43503252Y-49955460D01*
X43466621Y-50029090D01*
X43382153Y-50286760D01*
X43335765Y-50553925D01*
X43331500Y-50639600D01*
X43331500Y-51328884D01*
X41008500Y-51328884D01*
X41008500Y-45634500D01*
X41028502Y-45566379D01*
X41082158Y-45519886D01*
X41134500Y-45508500D01*
X58865500Y-45508500D01*
X58933621Y-45528502D01*
G37*
%TD.AperFunction*%
%TA.AperFunction,Conductor*%
G36*
X41217012Y-124419436D02*
G01*
X41223595Y-124425565D01*
X42054595Y-125256565D01*
X42088621Y-125318877D01*
X42091500Y-125345660D01*
X42091500Y-130871088D01*
X42091208Y-130879658D01*
X42087275Y-130937352D01*
X42088580Y-130944829D01*
X42088580Y-130944830D01*
X42098261Y-131000299D01*
X42099223Y-131006821D01*
X42106898Y-131070242D01*
X42109581Y-131077343D01*
X42110222Y-131079952D01*
X42114685Y-131096262D01*
X42115450Y-131098798D01*
X42116757Y-131106284D01*
X42123775Y-131122270D01*
X42142442Y-131164795D01*
X42144933Y-131170899D01*
X42167513Y-131230656D01*
X42171817Y-131236919D01*
X42173054Y-131239285D01*
X42181299Y-131254097D01*
X42182632Y-131256351D01*
X42185685Y-131263305D01*
X42190307Y-131269328D01*
X42224579Y-131313991D01*
X42228459Y-131319332D01*
X42260339Y-131365720D01*
X42260344Y-131365725D01*
X42264643Y-131371981D01*
X42270313Y-131377032D01*
X42270314Y-131377034D01*
X42311170Y-131413435D01*
X42316429Y-131418399D01*
X43254597Y-132356568D01*
X43288621Y-132418878D01*
X43291500Y-132445661D01*
X43291500Y-133442207D01*
X43271498Y-133510328D01*
X43254595Y-133531302D01*
X43198095Y-133587802D01*
X43135783Y-133621828D01*
X43064968Y-133616763D01*
X43008132Y-133574216D01*
X42983321Y-133507696D01*
X42983000Y-133498707D01*
X42983000Y-133497115D01*
X42978525Y-133481876D01*
X42977135Y-133480671D01*
X42969452Y-133479000D01*
X41872000Y-133479000D01*
X41803879Y-133458998D01*
X41757386Y-133405342D01*
X41746000Y-133353000D01*
X41746000Y-132952885D01*
X42254000Y-132952885D01*
X42258475Y-132968124D01*
X42259865Y-132969329D01*
X42267548Y-132971000D01*
X42964885Y-132971000D01*
X42980124Y-132966525D01*
X42981329Y-132965135D01*
X42983000Y-132957452D01*
X42983000Y-132954562D01*
X42982663Y-132948047D01*
X42973106Y-132855943D01*
X42970212Y-132842544D01*
X42920619Y-132693893D01*
X42914445Y-132680714D01*
X42832212Y-132547827D01*
X42823176Y-132536426D01*
X42712571Y-132426014D01*
X42701160Y-132417002D01*
X42568120Y-132334996D01*
X42554939Y-132328849D01*
X42406186Y-132279509D01*
X42392810Y-132276642D01*
X42301903Y-132267328D01*
X42295486Y-132267000D01*
X42272115Y-132267000D01*
X42256876Y-132271475D01*
X42255671Y-132272865D01*
X42254000Y-132280548D01*
X42254000Y-132952885D01*
X41746000Y-132952885D01*
X41746000Y-132285115D01*
X41741525Y-132269876D01*
X41740135Y-132268671D01*
X41732452Y-132267000D01*
X41704562Y-132267000D01*
X41698047Y-132267337D01*
X41605943Y-132276894D01*
X41592544Y-132279788D01*
X41443893Y-132329381D01*
X41430714Y-132335555D01*
X41297827Y-132417788D01*
X41286421Y-132426828D01*
X41223673Y-132489686D01*
X41161391Y-132523766D01*
X41090571Y-132518763D01*
X41033698Y-132476266D01*
X41008829Y-132409768D01*
X41008500Y-132400669D01*
X41008500Y-124514660D01*
X41028502Y-124446539D01*
X41082158Y-124400046D01*
X41152432Y-124389942D01*
X41217012Y-124419436D01*
G37*
%TD.AperFunction*%
%TA.AperFunction,Conductor*%
G36*
X50288828Y-114253501D02*
G01*
X50335321Y-114307156D01*
X50345425Y-114377430D01*
X50331039Y-114417631D01*
X50331589Y-114417880D01*
X50328506Y-114424708D01*
X50328485Y-114424767D01*
X50324528Y-114431301D01*
X50273247Y-114594938D01*
X50266500Y-114668365D01*
X50266500Y-114854340D01*
X50246498Y-114922461D01*
X50229595Y-114943435D01*
X49912000Y-115261030D01*
X49849688Y-115295056D01*
X49778873Y-115289991D01*
X49740392Y-115267159D01*
X49727135Y-115255671D01*
X49719452Y-115254000D01*
X49047115Y-115254000D01*
X49031876Y-115258475D01*
X49030671Y-115259865D01*
X49029000Y-115267548D01*
X49029000Y-115964885D01*
X49033475Y-115980124D01*
X49034865Y-115981329D01*
X49042548Y-115983000D01*
X49045438Y-115983000D01*
X49051953Y-115982663D01*
X49150916Y-115972394D01*
X49151194Y-115975074D01*
X49209861Y-115979362D01*
X49266630Y-116021998D01*
X49291337Y-116088556D01*
X49289535Y-116120306D01*
X49287704Y-116130186D01*
X49288141Y-116137766D01*
X49288141Y-116137767D01*
X49291291Y-116192392D01*
X49291500Y-116199646D01*
X49291500Y-118054340D01*
X49271498Y-118122461D01*
X49254595Y-118143435D01*
X49218320Y-118179710D01*
X49156008Y-118213736D01*
X49085193Y-118208671D01*
X49028357Y-118166124D01*
X49005825Y-118114510D01*
X49005562Y-118111169D01*
X48959145Y-117951399D01*
X48874453Y-117808193D01*
X48871771Y-117805511D01*
X48846498Y-117741139D01*
X48860400Y-117671516D01*
X48870572Y-117655688D01*
X48874453Y-117651807D01*
X48959145Y-117508601D01*
X49005562Y-117348831D01*
X49008500Y-117311502D01*
X49008500Y-116878498D01*
X49008307Y-116876042D01*
X49006067Y-116847579D01*
X49006066Y-116847574D01*
X49005562Y-116841169D01*
X48959145Y-116681399D01*
X48914655Y-116606170D01*
X48878491Y-116545020D01*
X48878489Y-116545017D01*
X48874453Y-116538193D01*
X48756807Y-116420547D01*
X48749983Y-116416511D01*
X48749980Y-116416509D01*
X48620427Y-116339892D01*
X48620428Y-116339892D01*
X48613601Y-116335855D01*
X48605990Y-116333644D01*
X48605988Y-116333643D01*
X48534389Y-116312842D01*
X48453831Y-116289438D01*
X48447426Y-116288934D01*
X48447421Y-116288933D01*
X48418958Y-116286693D01*
X48418950Y-116286693D01*
X48416502Y-116286500D01*
X48279394Y-116286500D01*
X48211273Y-116266498D01*
X48164780Y-116212842D01*
X48161530Y-116205042D01*
X48160174Y-116201455D01*
X48157487Y-116194344D01*
X48153183Y-116188081D01*
X48151946Y-116185715D01*
X48143701Y-116170903D01*
X48142368Y-116168648D01*
X48139315Y-116161695D01*
X48105340Y-116117419D01*
X48079739Y-116051199D01*
X48094003Y-115981650D01*
X48143604Y-115930854D01*
X48212793Y-115914937D01*
X48244970Y-115921121D01*
X48393814Y-115970491D01*
X48407190Y-115973358D01*
X48498097Y-115982672D01*
X48503126Y-115982929D01*
X48518124Y-115978525D01*
X48519329Y-115977135D01*
X48521000Y-115969452D01*
X48521000Y-114872000D01*
X48541002Y-114803879D01*
X48594658Y-114757386D01*
X48647000Y-114746000D01*
X49714885Y-114746000D01*
X49730124Y-114741525D01*
X49731329Y-114740135D01*
X49733000Y-114732452D01*
X49733000Y-114704562D01*
X49732663Y-114698047D01*
X49723106Y-114605943D01*
X49720212Y-114592544D01*
X49670619Y-114443893D01*
X49664448Y-114430719D01*
X49661406Y-114425804D01*
X49642568Y-114357352D01*
X49663729Y-114289582D01*
X49718169Y-114244011D01*
X49768550Y-114233500D01*
X49983125Y-114233500D01*
X50220708Y-114233499D01*
X50288828Y-114253501D01*
G37*
%TD.AperFunction*%
%TD*%
M02*
