%TF.GenerationSoftware,KiCad,Pcbnew,(6.0.9)*%
%TF.CreationDate,2023-01-29T17:10:54+01:00*%
%TF.ProjectId,mxr_face_plate,6d78725f-6661-4636-955f-706c6174652e,rev?*%
%TF.SameCoordinates,Original*%
%TF.FileFunction,Legend,Bot*%
%TF.FilePolarity,Positive*%
%FSLAX46Y46*%
G04 Gerber Fmt 4.6, Leading zero omitted, Abs format (unit mm)*
G04 Created by KiCad (PCBNEW (6.0.9)) date 2023-01-29 17:10:54*
%MOMM*%
%LPD*%
G01*
G04 APERTURE LIST*
%ADD10C,0.150000*%
G04 APERTURE END LIST*
D10*
X54619047Y-42952380D02*
X54619047Y-43666666D01*
X54666666Y-43809523D01*
X54761904Y-43904761D01*
X54904761Y-43952380D01*
X55000000Y-43952380D01*
X53666666Y-43952380D02*
X54142857Y-43952380D01*
X54142857Y-42952380D01*
X52761904Y-43857142D02*
X52809523Y-43904761D01*
X52952380Y-43952380D01*
X53047619Y-43952380D01*
X53190476Y-43904761D01*
X53285714Y-43809523D01*
X53333333Y-43714285D01*
X53380952Y-43523809D01*
X53380952Y-43380952D01*
X53333333Y-43190476D01*
X53285714Y-43095238D01*
X53190476Y-43000000D01*
X53047619Y-42952380D01*
X52952380Y-42952380D01*
X52809523Y-43000000D01*
X52761904Y-43047619D01*
X52047619Y-42952380D02*
X52047619Y-43666666D01*
X52095238Y-43809523D01*
X52190476Y-43904761D01*
X52333333Y-43952380D01*
X52428571Y-43952380D01*
X51095238Y-43952380D02*
X51571428Y-43952380D01*
X51571428Y-42952380D01*
X50190476Y-43857142D02*
X50238095Y-43904761D01*
X50380952Y-43952380D01*
X50476190Y-43952380D01*
X50619047Y-43904761D01*
X50714285Y-43809523D01*
X50761904Y-43714285D01*
X50809523Y-43523809D01*
X50809523Y-43380952D01*
X50761904Y-43190476D01*
X50714285Y-43095238D01*
X50619047Y-43000000D01*
X50476190Y-42952380D01*
X50380952Y-42952380D01*
X50238095Y-43000000D01*
X50190476Y-43047619D01*
X49476190Y-42952380D02*
X49476190Y-43666666D01*
X49523809Y-43809523D01*
X49619047Y-43904761D01*
X49761904Y-43952380D01*
X49857142Y-43952380D01*
X48523809Y-43952380D02*
X49000000Y-43952380D01*
X49000000Y-42952380D01*
X47619047Y-43857142D02*
X47666666Y-43904761D01*
X47809523Y-43952380D01*
X47904761Y-43952380D01*
X48047619Y-43904761D01*
X48142857Y-43809523D01*
X48190476Y-43714285D01*
X48238095Y-43523809D01*
X48238095Y-43380952D01*
X48190476Y-43190476D01*
X48142857Y-43095238D01*
X48047619Y-43000000D01*
X47904761Y-42952380D01*
X47809523Y-42952380D01*
X47666666Y-43000000D01*
X47619047Y-43047619D01*
X46904761Y-42952380D02*
X46904761Y-43666666D01*
X46952380Y-43809523D01*
X47047619Y-43904761D01*
X47190476Y-43952380D01*
X47285714Y-43952380D01*
X45952380Y-43952380D02*
X46428571Y-43952380D01*
X46428571Y-42952380D01*
X45047619Y-43857142D02*
X45095238Y-43904761D01*
X45238095Y-43952380D01*
X45333333Y-43952380D01*
X45476190Y-43904761D01*
X45571428Y-43809523D01*
X45619047Y-43714285D01*
X45666666Y-43523809D01*
X45666666Y-43380952D01*
X45619047Y-43190476D01*
X45571428Y-43095238D01*
X45476190Y-43000000D01*
X45333333Y-42952380D01*
X45238095Y-42952380D01*
X45095238Y-43000000D01*
X45047619Y-43047619D01*
M02*
